<?xml version="1.0" encoding="utf-8"?>
<!-- Generator: Adobe Illustrator 23.0.3, SVG Export Plug-In . SVG Version: 6.00 Build 0)  -->
<svg version="1.1" id="Layer_1" xmlns="http://www.w3.org/2000/svg" xmlns:xlink="http://www.w3.org/1999/xlink" x="0px" y="0px"
	 viewBox="0 0 1460.6 2759.3" style="enable-background:new 0 0 1460.6 2759.3;" xml:space="preserve">
<style type="text/css">
	.st0{fill:none;stroke:#BFBFBF;stroke-width:2;stroke-miterlimit:10;stroke-dasharray:3,2;}
	.st1{fill:#DD6553;}
	.st2{fill:none;stroke:#877D77;stroke-width:4;stroke-miterlimit:10;stroke-dasharray:7,3;}
	.st3{fill:none;stroke:#877D77;stroke-width:4;stroke-miterlimit:10;}
	.st4{fill:none;stroke:#71BABF;stroke-width:4;stroke-miterlimit:10;}
	.st5{fill:none;stroke:#71BABF;stroke-width:4;stroke-miterlimit:10;stroke-dasharray:7,3;}
	.st6{fill:#BF6DA0;}
	.st7{fill:none;stroke:#71BABF;stroke-width:3;stroke-miterlimit:10;stroke-dasharray:7,3;}
	.st8{font-family:'Montserrat-Regular';}
	.st9{font-size:48px;}
	.st10{fill:#EA877D;}
	.st11{fill:none;stroke:#877D77;stroke-width:3;stroke-miterlimit:10;stroke-dasharray:7,3;}
	.st12{fill:#FFCD71;}
	.st13{fill:none;stroke:#85B645;stroke-width:4;stroke-miterlimit:10;stroke-dasharray:7,3;}
	.st14{fill:none;stroke:#85B645;stroke-width:4;stroke-miterlimit:10;}
	.st15{fill:#FFB000;}
	.st16{fill:none;stroke:#969696;stroke-width:4;stroke-miterlimit:10;}
	.st17{fill:#7F7F7F;}
	.st18{font-size:36.4928px;}
	.st19{font-size:50.6133px;}
	.st20{fill:#FFFFFF;stroke:#686868;stroke-width:4;stroke-miterlimit:10;}
	.st21{fill:#85B645;}
	.st22{font-size:37.6604px;}
	.st23{font-size:37.6679px;}
	.st24{font-size:37.5005px;}
	.st25{font-size:37.6673px;}
	.st26{font-size:37.6594px;}
	.st27{font-size:37.7346px;}
	.st28{font-size:37.6575px;}
	.st29{font-size:37.6713px;}
	.st30{font-size:37.6656px;}
	.st31{font-size:37.6718px;}
	.st32{fill:#71BABF;}
	.st33{font-size:37.8322px;}
	.st34{font-size:37.5316px;}
	.st35{font-size:37.6666px;}
	.st36{font-size:37.5558px;}
	.st37{font-size:37.6737px;}
	.st38{font-size:37.6911px;}
	.st39{font-size:37.7863px;}
	.st40{fill:none;stroke:#000000;stroke-miterlimit:10;stroke-dasharray:7,3;}
	.st41{font-size:35.3072px;}
	.st42{fill:none;stroke:#000000;stroke-miterlimit:10;}
	.st43{fill:#545454;}
	.st44{font-size:37.6091px;}
	.st45{font-size:37.4277px;}
	.st46{font-size:37.6661px;}
	.st47{font-size:37.6613px;}
	.st48{font-size:37.6672px;}
	.st49{font-size:37.7149px;}
	.st50{font-size:37.6599px;}
	.st51{font-size:56.4939px;}
	.st52{font-size:35.8407px;}
	.st53{font-size:42.69px;}
	.st54{fill:none;stroke:#000000;stroke-width:4;stroke-miterlimit:10;}
	.st55{font-size:35px;}
	.st56{fill:none;}
	.st57{font-size:36px;}
	.st58{font-size:100px;}
</style>
<title>VIZ2-USA</title>
<title>VIZ2-USA</title>
<g id="USA_IND_IN">
	<line class="st0" x1="956.9" y1="2449.6" x2="1410.9" y2="2449.6"/>
	<line class="st0" x1="1089.1" y1="2315.1" x2="1089.1" y2="2389.7"/>
	<path class="st1" d="M1029.4,2449.6c0,33.7,27.3,61.1,61.1,61.1c33.7,0,61.1-27.3,61.1-61.1c0-33.7-27.3-61.1-61.1-61.1l0,0
		C1056.8,2388.6,1029.5,2415.9,1029.4,2449.6z"/>
	<path class="st2" d="M1016.8,2400.3c-2.3,1.8-4.8,3.7-7.3,5.7c-12.6,9.9-14.4,12.4-28.9,24.3c-9.6,7.9-16.1,14.1-24,19.4"/>
	<path class="st3" d="M1154,2448.9c0,0,1.7-26.6-10.6-41.1c-5.6-6.9-12.2-12.9-19.6-18c-4.4-3-14.1-7.4-20.7-9.7
		c-7.1-2.5-15.7-3.2-17.8-3.4c-20.3-2.1-33.7,3.1-40.2,5.9c-8.1,3.5-17.3,9-28.6,17.6"/>
	<path class="st3" d="M980.5,2448.9c7.4-5.1,14.5-10.7,21.2-16.6c12.6-10.9,14.1-13.2,25.1-22.3c12.8-11,22.7-17.5,31.1-21.4
		c5.6-2.6,17.2-7.4,34.9-5.5c5.1,0.8,10.1,2.1,15,3.9c5.7,2.1,11.8,5.5,16.7,8.1c4.7,2.5,12.1,8.2,18.7,16.5
		c10.6,13.4,10.9,38.6,10.9,38.6"/>
	<path class="st4" d="M1153.1,2399c1.9,5.1,3.1,10.4,3.5,15.8c0.8,11.9-1.5,25.3-2.4,34.1"/>
	<path class="st5" d="M1090.4,2314.1c4.9,6.8,8.9,13.2,16.2,21.4c11.7,13,10.1,12,19.2,22.9c11,12.8,19.4,23.2,23.3,31.7
		c0.6,1.4,2.3,4.6,3.8,8.9"/>
	<line class="st0" x1="762.6" y1="2518.6" x2="1409.9" y2="2518.6"/>
	<line class="st0" x1="895.1" y1="2383.1" x2="895.1" y2="2457.7"/>
</g>
<g id="USA_DM">
	<line class="st0" x1="575.9" y1="2552.6" x2="1412.5" y2="2552.6"/>
	<line class="st0" x1="683.1" y1="2418.1" x2="683.1" y2="2492.7"/>
	<circle class="st6" cx="684.5" cy="2552.6" r="61.1"/>
	<path class="st3" d="M592.2,2538.4c1.2-1,2.3-2,3.6-3.1c12.6-10.9,14.1-13.2,25.1-22.3c12.8-11,22.7-17.5,31.1-21.4
		c5.6-2.6,17.2-7.4,34.9-5.5c5.1,0.8,10.1,2.1,15,3.9c5.7,2.1,11.8,5.5,16.7,8.1c4.7,2.5,12,8.2,18.7,16.5
		c10.6,13.4,10.9,38.6,10.9,38.6"/>
	<path class="st2" d="M574.5,2551.9c5.8-4.1,11.1-8,17.7-13.5"/>
	<path class="st4" d="M750.7,2519.2c0.5,11.5-1.6,24.2-2.5,32.7"/>
	<path class="st7" d="M747.1,2502c1.9,5.1,3.1,10.4,3.5,15.8c0,0.5,0.1,0.9,0.1,1.4"/>
	<path class="st5" d="M684.4,2417.1c4.8,6.8,8.9,13.2,16.2,21.4c11.7,13,10.1,12,19.2,22.9c11,12.8,19.4,23.2,23.3,31.7
		c0.6,1.4,2.3,4.6,3.8,8.9"/>
	<text transform="matrix(1 0 0 1 661.31 2571.3899)" class="st8 st9">11</text>
	<text transform="matrix(1 0 0 1 695.3 2571.3899)" class="st8 st9">1</text>
</g>
<g id="USA_IND_EX">
	<line class="st0" x1="1199.6" y1="2030.2" x2="1199.6" y2="2105.1"/>
	<path class="st10" d="M833.9,2518.1c0,33.7,27.3,61.1,61.1,61.1c33.7,0,61.1-27.3,61.1-61.1c0-33.7-27.3-61.1-61.1-61.1l0,0
		C861.3,2457,833.9,2484.4,833.9,2518.1z"/>
	<text transform="matrix(1 0 0 1 859.81 2539.3501)" class="st8 st9">13</text>
	<text transform="matrix(1 0 0 1 902.55 2539.3501)" class="st8 st9">8</text>
	<path class="st11" d="M822.8,2468.3c-2.3,1.8-4.8,3.7-7.3,5.7c-12.6,9.9-14.4,12.4-28.9,24.3c-9.6,7.9-16.1,14.1-24,19.4"/>
	<path class="st2" d="M924.8,2455.8c-5.3-3-10.9-5.6-16.6-7.6c-5.4-1.8-11-2.9-16.7-3.4c-20.3-2.1-33.7,3.1-40.2,5.9
		c-8.1,3.5-17.3,9-28.6,17.6"/>
	<path class="st3" d="M960,2516.9c-0.1-1.7,1.8-26.5-10.6-41.1c-7.6-9.1-16.5-14.5-21.5-18c-0.9-0.7-2-1.4-3.2-2.1"/>
	<path class="st3" d="M786.5,2516.9c7.4-5.1,14.5-10.7,21.2-16.6c12.6-10.9,14.1-13.2,25.1-22.3c12.8-11,22.7-17.5,31.1-21.4
		c5.6-2.6,17.2-7.4,34.9-5.5c5.1,0.8,10.1,2.1,15,3.9c5.7,2.1,11.8,5.5,16.7,8.1c4.7,2.5,12.1,8.2,18.7,16.5
		c10.7,13.4,10.9,36,10.9,38.6"/>
	<path class="st4" d="M961.7,2503.9c-0.5,4.8-1.2,9.3-1.6,13"/>
	<path class="st7" d="M959.1,2467c1.9,5.1,3.1,10.4,3.5,15.8c0.3,7.1,0,14.1-0.9,21.1"/>
	<path class="st5" d="M896.4,2382.1c4.8,6.8,8.9,13.2,16.2,21.4c11.7,13,10.1,12,19.2,22.9c11,12.8,19.4,23.2,23.3,31.7
		c0.6,1.4,2.3,4.6,3.8,8.9"/>
</g>
<g id="Circle">
	<text transform="matrix(1 0 0 1 1052.0601 2471.53)" class="st8 st9">19</text>
	<text transform="matrix(1 0 0 1 1096.9601 2471.53)" class="st8 st9">6</text>
</g>
<g id="USA_AG_EX">
	<line class="st0" x1="1018.9" y1="2165.1" x2="1411.3" y2="2165.1"/>
	<path class="st12" d="M1137.3,2165.1c0,33.7,27.3,61.1,61.1,61.1c33.7,0,61.1-27.3,61.1-61.1c0-33.7-27.3-61.1-61.1-61.1l0,0
		C1164.7,2104,1137.3,2131.4,1137.3,2165.1z"/>
	<path class="st13" d="M1093.6,2218.6l-2.8-2.4c0,0-14.7-12.2-32.5-25.8c-12.3-9.4-25.1-20.3-39.1-25.5"/>
	<path class="st14" d="M1264.5,2165.3c-0.2,6.6-0.2,33.9-15,52.1c-9.4,11.6-20,20.4-26.8,23.8c-14.6,7.6-33.3,12.3-38.3,12.8
		c-17.7,1.9-35.5-1-51.7-8.3c-11.4-5.1-22.6-13.3-39.2-27.1"/>
	<path class="st14" d="M1264.5,2165.3c-0.2,5.6-0.3,29.6-13.7,45.4c-8.5,10.1-18.7,17.2-24.8,20.2c-6.3,3.1-14,7-21.3,9.6
		c-5.8,2-11.7,3.5-17.8,4.4c-22.8,2.3-37.8-5.1-45-8.2c-10.9-4.7-22.8-12.4-39.2-25.7c0,0-12-11.1-28.1-23
		c-11.1-8.2-22.3-18-32-23.4"/>
	<path class="st14" d="M1264.5,2165.3c-0.2,4.9,1.4,27.1-10.6,41.3c-7.6,9-16.1,15.2-21.5,17.9c-5.7,2.8-12.7,6.5-19.2,8.8
		c-5.6,1.9-11.4,3.4-17.2,4.2c-20.4,2.1-33.8-3.1-40.2-5.9c-9.8-4.2-21.1-11.2-35.8-23.2c-12.6-9.9-14.4-12.4-28.9-24.2
		c-9.6-7.8-16.1-14-24-19.2"/>
	<path class="st14" d="M1264.5,2165.3c-0.1,4.3-0.5,24.5-10.9,37.5c-6.6,8.3-13.9,13.9-18.7,16.4c-4.9,2.6-11,5.9-16.7,8
		c-4.9,1.8-9.9,3.1-15,3.9c-17.7,1.9-29.3-2.9-34.9-5.4c-8.5-3.9-18.3-10.3-31.1-21.3c-11-9.1-12.5-11.4-25.1-22.2
		c-8.3-7.2-14.3-13.1-21.2-17.9"/>
	<path class="st3" d="M1230.4,2106.1l3.5,1.9c4.8,2.5,12.4,8.9,19.6,18.9c11.7,16.1,11,38.5,11,38.5"/>
	<path class="st2" d="M1090.6,2165.2c7-4.5,19.9-17.2,28.7-24.3c13.2-10.7,15.2-12.5,26.7-21.3c13.4-10.8,22.6-16.3,31-19.3
		c2.4-0.9,14.6-4.6,27.7-2.3c10.8,1.8,22,4.8,25.8,8.2"/>
	<path class="st4" d="M1259.7,2105.5c3.3,7.9,5.3,16.2,5.9,24.7c0.8,11.9-0.2,26.2-1.1,35.1"/>
	<path class="st5" d="M1200.9,2029.5c4.9,6.8,8.9,13.2,16.2,21.4c11.7,13,10.1,12,19.2,22.9c11,12.8,19.4,23.2,23.3,31.7"/>
	<text transform="matrix(1 0 0 1 1154.77 2185.6299)" class="st8 st9">43</text>
	<text transform="matrix(1 0 0 1 1211.91 2185.6299)" class="st8 st9">7</text>
</g>
<g id="USA_AG_IN">
	<line class="st0" x1="729.4" y1="366.6" x2="1409.7" y2="366.6"/>
	<line class="st0" x1="1221.1" y1="208.1" x2="1221.1" y2="306.7"/>
	<path class="st14" d="M1286,366.9c-0.3,9.7-2.3,40.3-18.7,62.6c-15.8,21.3-39.6,35.2-65.9,38.5c-27.6,3.2-48.8-7-57.5-11.4
		c-13.2-6.6-27.1-17.2-47-35.8c0,0-44-38.8-80.3-54.7"/>
	<path class="st14" d="M1286,366.9c-0.2,8,0,33.7-15,52.1c-9.4,11.5-20,20.3-26.8,23.8c-14.7,7.6-33.3,12.3-38.3,12.8
		c-17.7,1.9-35.5-1-51.7-8.3c-12-5.4-23.8-14.2-42-29.5c0,0-14.7-12.2-32.5-25.8c-12.3-9.4-25.1-20.3-39.1-25.5"/>
	<path class="st14" d="M1286.1,367.3c-0.2,7-0.2,29-13.7,45c-8.5,10-18.7,17.2-24.8,20.2c-6.3,3.2-14,7-21.3,9.6
		c-5.8,2-11.7,3.5-17.8,4.4c-22.8,2.3-37.8-5.1-45-8.2c-10.9-4.7-22.8-12.3-39.2-25.7c0,0-12-11.1-28.1-23
		c-11.1-8.2-22.3-18-32-23.4"/>
	<path class="st14" d="M1285.9,367.3c-0.2,6.2,1.6,26.5-10.5,40.8c-7.6,9-16.1,15.2-21.5,17.9c-5.7,2.8-12.7,6.5-19.2,8.8
		c-5.6,1.9-11.4,3.4-17.2,4.2c-20.4,2.1-33.8-3.1-40.2-5.9c-9.7-4.2-21.1-11.2-35.8-23.2c-12.6-9.9-14.4-12.4-28.9-24.2
		c-9.6-7.8-16.1-14-24-19.2"/>
	<path class="st14" d="M1285.9,367.3c-0.2,5.7-0.3,23.9-10.8,37c-6.6,8.3-14,13.9-18.7,16.4c-4.9,2.6-11,5.9-16.7,8
		c-4.9,1.8-9.9,3.1-15,3.9c-17.7,1.9-29.3-2.9-34.9-5.4c-8.5-3.9-18.3-10.3-31.1-21.3c-11-9.1-12.5-11.4-25.1-22.2
		c-8.3-7.2-14.3-13.1-21.2-17.9"/>
	<path class="st14" d="M1286,366.9c-0.3,10.6-3.7,44.1-21.7,68.4c-17.2,23.2-43.1,38.3-71.8,41.9c-30.1,3.5-53.2-7.7-62.7-12.4
		c-14.4-7.2-29.5-18.8-51.3-39c0,0-48-42.2-87.6-59.6"/>
	<path class="st14" d="M1286,366.9c-0.3,11.3,0.3,46.3-18.9,72.4c-12.1,16.4-28.3,27.6-36.9,32.5c-18.8,10.7-36.7,12.5-43.1,13.2
		c-32.2,3.8-57-8.2-67.2-13.3c-15.4-7.7-32.7-20.6-56.1-42.3c0,0-53.4-44.3-95.9-62.9"/>
	<path class="st14" d="M1286,366.9c-0.4,12.2,1.2,49.6-19.4,77.6c-13,17.6-30.8,31-40,36.3c-20.2,11.5-39.8,12-46.6,12.8
		c-34.6,4-61.2-8.8-72.1-14.2c-16.6-8.3-33.6-19.7-58.6-42.9c0,0-58.7-50.1-104.3-70"/>
	<path class="st14" d="M1285.9,367.3c-0.4,12.7,1.7,52.4-20.3,81.5c-13.8,18.3-32.6,32-42.5,37.5c-21.5,12-42.9,13.2-50.2,14
		c-37,4.2-65.8-10.4-77.4-16.1c-17.7-8.6-36.2-20.9-62.9-45.1c0,0-62.5-51.6-111.2-72.3"/>
	<path class="st14" d="M1285.9,367.3c-0.4,13.5,3.4,55.8-20,86.7c-14.7,19.4-35,34.4-45.5,40.2c-22.9,12.7-46.9,13.5-54.7,14.4
		c-39.3,4.5-69.9-11.1-82.3-17.1c-18.8-9.1-37.8-21.8-66.3-47.6c0,0-68-55.2-119.8-77.2"/>
	<path class="st14" d="M1286.1,367.3c-0.4,14.2,3,60.8-21.8,93.5c-15.6,20.6-36.5,35.5-47.7,41.7c-24.3,13.5-49.4,14.4-57.7,15.3
		c-41.6,4.7-74.2-12.5-87.3-18.9c-19.9-9.7-41.6-24.1-71.7-51.4c0,0-72.5-57.9-127.3-81.2"/>
	<path class="st14" d="M1286.1,367.3c-0.4,15,4.7,64.6-21.5,99.2c-16.4,21.7-40.7,37.8-52.4,44.3c-25.6,14.2-51.4,14.8-60.1,15.8
		c-43.9,5-78.4-13.8-92.3-20.5c-21-10.2-43.9-24.4-75.7-53.1c0,0-77.6-61.8-135.4-86.4"/>
	<path class="st14" d="M1286.1,367.3c-0.5,15.8,5.4,69.1-22.2,105.5c-17.3,22.9-42.4,39.1-54.8,46c-27,15-54.7,16.1-63.9,17.2
		c-46.3,5.3-83-15.3-97.6-22.3c-22.1-10.8-46-25.8-79.5-56.1c0,0-83.4-65.3-144.3-91.2"/>
	<path class="st14" d="M1286.1,367.3c-0.5,16.6,7,73.1-21.8,111.2c-18.1,23.9-45.4,41.5-58.3,48.7c-28.2,15.7-57.7,16.9-67.3,18
		c-48.4,5.5-86.7-17.3-102-24.8c-23.2-11.2-48.2-27.2-83.2-58.8c0,0-89-67.8-152.8-94.9"/>
	<path class="st14" d="M1286.1,367.3c-0.5,17.3,9,75.7-21.2,115.5c-18.9,25-49,44-62.6,51.5c-29.5,16.4-60.6,18.4-70.7,19.5
		c-50.6,5.8-90.2-18.8-106.2-26.6c-24.2-11.8-50.5-28.6-87.1-61.7c0,0-95.1-70.4-161.8-98.8"/>
	<path class="st14" d="M1286.1,367.3c-0.5,18.1,9.6,80.3-21.8,121.8c-19.8,26.1-51.5,45.5-65.7,53.3c-30.8,17.1-62.7,19.4-73.2,20.6
		c-52.8,6-95-20.5-111.6-28.6c-25.3-12.3-52.4-28.5-90.6-63.1c0,0-101.6-75.3-171.2-105"/>
	<path class="st14" d="M1286.1,367.3c-0.6,18.9,8.2,88-24.7,131.5c-20.7,27.3-51.2,44.3-66,52.5c-32.2,17.9-66,21.2-77,22.5
		c-55.2,6.3-99.6-23.3-117-31.8c-26.4-12.8-54.7-29.8-94.7-66c0,0-104.6-78.3-177.4-109.3"/>
	<path class="st15" d="M1161.4,366.7c0,33.7,27.3,61.1,61.1,61.1s61.1-27.3,61.1-61.1c0-33.7-27.3-61.1-61.1-61.1l0,0
		C1188.8,305.6,1161.5,332.9,1161.4,366.7z"/>
	<text transform="matrix(1 0 0 1 1170.33 382.11)" class="st8 st9">196</text>
	<text transform="matrix(1 0 0 1 1245.62 382.11)" class="st8 st9">0</text>
	<path class="st2" d="M1248.1,300.6l-0.5-0.3c-6.3-3.2-14-7.1-21.3-9.6c-5.8-2.1-11.7-3.5-17.8-4.4c-22.8-2.3-37.8,5.1-45,8.3
		c-10.9,4.8-22.8,12.4-39.2,25.8c0,0-12,11.2-28.1,23.1c-11.1,8.3-22.3,17.1-32,22.6"/>
	<path class="st3" d="M1286,365.9c0,0,1.7-26.6-10.6-41.1c-7.6-9-16-15.3-21.5-18c-5.7-2.8-12.7-6.5-19.2-8.8
		c-5.6-1.9-11.4-3.4-17.2-4.3c-20.4-2.1-33.7,3.2-40.2,6c-9.8,4.3-21.1,11.3-35.8,23.3c-12.6,9.9-14.4,12.5-28.9,24.3
		c-9.6,7.9-16.1,14.1-24,19.4"/>
	<path class="st3" d="M1112.5,365.9c7.4-5.1,14.5-10.7,21.2-16.5c12.6-10.9,14.1-13.2,25.1-22.3c12.8-11,22.7-17.5,31.1-21.4
		c5.6-2.6,17.2-7.4,34.9-5.5c5.1,0.8,10.1,2.1,15,3.9c5.7,2.1,11.8,5.5,16.7,8.1c4.7,2.5,12.1,8.2,18.7,16.5
		c10.6,13.4,10.8,38.3,10.8,38.3"/>
	<path class="st4" d="M1222.4,231.1c4.9,6.8,8.9,13.2,16.2,21.4c11.7,13,10.1,11.9,19.2,22.9c11,12.8,19.4,23.2,23.3,31.7
		c1.3,2.8,6.5,12.8,7.3,24.7c0.8,11.9-1.5,25.3-2.4,34.1"/>
	<path class="st4" d="M1282.8,295.6l0.2,0.6c1.3,3.2,6.6,14.9,7.5,28.7c0.8,13.8-3.5,30.7-4.4,41"/>
	<path class="st5" d="M1222.8,207.7c4.9,8,8.6,15.8,16.1,25.3c11.9,15.1,11.1,13.6,20.4,26.4c11,14.6,19.4,26.5,23.5,36.3"/>
	<path class="st3" d="M1286.2,366c0,0-0.1-29.1-13.7-45.3c-8.3-9.8-18.2-16.9-24.3-20.1"/>
	<path class="st16" d="M1275.9,286"/>
</g>
<g>
	<text transform="matrix(1 0 0 1 634.8604 1210.7578)" class="st17 st8 st18">of 3 water types</text>
	<text transform="matrix(1 0 0 1 0 921.6841)" class="st17 st8 st19">How to read it:</text>
	<path class="st5" d="M450.1,985.8c5.7,8.1,10.4,15.5,19.1,25.1c13.8,15.3,11.9,14,22.6,26.9c12.9,15.1,22.9,27.3,27.4,37.2"/>
	<path class="st20" d="M375.4,1145.1c0,39.6,32.1,71.8,71.8,71.8s71.8-32.1,71.8-71.8s-32.1-71.8-71.8-71.8l0,0
		C407.5,1073.4,375.4,1105.5,375.4,1145.1z"/>
	<path class="st14" d="M524.7,1145.8c-0.2,6.8-0.4,28.1-12.7,43.5c-7.8,9.7-16.4,16.4-21.9,19.3c-5.8,3.1-13,7-19.7,9.5
		c-5.7,2.1-11.6,3.7-17.7,4.6c-20.7,2.3-34.5-3.4-41-6.4c-10-4.6-21.6-12.2-36.5-25c-12.9-10.7-14.7-13.4-29.5-26.1
		c-9.7-8.4-16.8-15.4-24.9-21.1"/>
	<path class="st3" d="M488.8,1069.4c5.6,3.7,18.4,17.7,23.7,29.4c8.3,18.3,11.1,45.8,11.1,44"/>
	<path class="st16" d="M490.2,1072.9"/>
	<path class="st2" d="M328.5,1098.1c10.1-3.1,20-6.8,29.8-10.9c18-7.7,20.5-9.7,36-16c18.3-7.7,31.7-11.4,42.6-12.8
		c7.1-0.8,21.9-2.1,41,6.4c2,0.8,9.6,2.7,13.6,7.6"/>
	<path class="st4" d="M519.2,1075.1c1.5,3.3,7.7,15.1,8.7,28.9c0.9,13.9-1.8,29.8-2.8,40.2"/>
	<text transform="matrix(0.8601 0.5101 -0.5101 0.8601 354.9687 1232.2648)" class="st21 st8 st22">G</text>
	<text transform="matrix(0.89 0.4559 -0.4559 0.89 381.3708 1247.8071)" class="st21 st8 st23">r</text>
	<text transform="matrix(0.9243 0.3818 -0.3818 0.9243 395.6462 1255.3038)" class="st21 st8 st24">e</text>
	<text transform="matrix(0.9767 0.2147 -0.2147 0.9767 418.0668 1264.809)" class="st21 st8 st25">e</text>
	<text transform="matrix(0.9914 -0.1305 0.1305 0.9914 441.9936 1269.5758)" class="st21 st8 st26">n</text>
	<text transform="matrix(0.8984 -0.4392 0.4392 0.8984 480.2039 1263.7285)" class="st21 st8 st27">W</text>
	<text transform="matrix(0.7294 -0.684 0.684 0.7294 516.8872 1244.5966)" class="st21 st8 st28">a</text>
	<text transform="matrix(0.5717 -0.8205 0.8205 0.5717 533.4797 1227.6638)" class="st21 st8 st29">t</text>
	<text transform="matrix(0.5072 -0.8618 0.8618 0.5072 542.9222 1214.6099)" class="st21 st8 st30">e</text>
	<text transform="matrix(0.3234 -0.9463 0.9463 0.3234 554.919 1193.4938)" class="st21 st8 st31">r</text>
	<text transform="matrix(0.5055 0.7203 -0.8186 0.5744 473.3293 978.0233)" class="st32 st8 st25">B</text>
	<text transform="matrix(0.5078 0.7069 -0.8164 0.5775 487.6258 998.3586)" class="st32 st8 st33">l</text>
	<text transform="matrix(0.5119 0.7127 -0.8131 0.5822 492.7459 1005.6109)" class="st32 st8 st34">u</text>
	<text transform="matrix(0.52 0.7 -0.8 0.6 505.7054 1023.6218)" class="st32 st8 st35">e</text>
	<text transform="matrix(0.6218 0.6218 -0.7121 0.7021 521.9243 1047.3092)" class="st32 st8 st36">W</text>
	<text transform="matrix(0.2552 0.8422 -0.957 0.29 544.0721 1074.0192)" class="st32 st8 st30">a</text>
	<text transform="matrix(0.1368 0.8693 -0.9879 0.1554 549.4706 1092.7406)" class="st32 st8 st37">t</text>
	<text transform="matrix(1.998704e-02 0.8796 -0.9996 2.998056e-02 551.7422 1105.3333)" class="st32 st8 st38">e</text>
	<text transform="matrix(-6.977813e-02 0.8672 -0.9968 -7.974643e-02 551.824 1125.2534)" class="st32 st8 st39">r</text>
	<line class="st40" x1="249.8" y1="1214.6" x2="194.2" y2="1292.5"/>
	<text transform="matrix(1 0 0 1 117.9194 1334.9609)" class="st17 st8 st41">Partial</text>
	<text transform="matrix(1 0 0 1 129.0283 1372.627)" class="st17 st8 st41">units</text>
	<text transform="matrix(1 0 0 1 591.3301 1166.9736)" class="st17 st8 st18">Composite footprint</text>
	<text transform="matrix(1 0 0 1 267.8506 1351.2988)" class="st17 st8 st41">100 cubic meters</text>
	<text transform="matrix(1 0 0 1 267.8506 1388.9648)" class="st17 st8 st41">of water consumed yearly per capita</text>
	<line class="st42" x1="364.7" y1="1180.3" x2="278" y2="1311.6"/>
	<line class="st42" x1="587.1" y1="1155.2" x2="494.9" y2="1155.2"/>
	<line class="st42" x1="328.5" y1="1100.7" x2="248.3" y2="1217.2"/>
	<text transform="matrix(0.7511 -0.4206 0.4907 0.8713 286.2623 1104.2545)" class="st43 st8 st44">G</text>
	<text transform="matrix(0.7548 -0.4126 0.4831 0.8756 308.8731 1091.6288)" class="st43 st8 st45">r</text>
	<text transform="matrix(0.7456 -0.4081 0.4801 0.8772 320.6577 1085.0968)" class="st43 st8 st46">e</text>
	<text transform="matrix(0.7486 -0.4026 0.4736 0.8807 338.2996 1075.4437)" class="st43 st8 st47">y</text>
	<text transform="matrix(0.7614 -0.3778 0.4445 0.8958 362.8182 1062.132)" class="st43 st8 st25">W</text>
	<text transform="matrix(0.812 -0.2514 0.2957 0.9553 394.2846 1046.7278)" class="st43 st8 st48">a</text>
	<text transform="matrix(0.8282 -0.1914 0.2251 0.9743 413.4073 1040.9564)" class="st43 st8 st47">t</text>
	<text transform="matrix(0.8489 -0.1298 0.1498 0.9887 426.5189 1037.8029)" class="st43 st8 st49">e</text>
	<text transform="matrix(0.8489 -4.256725e-02 5.007910e-02 0.9987 446.7589 1034.9691)" class="st43 st8 st50">r</text>
	<text transform="matrix(1 0 0 1 399.998 1166.9736)" class="st17 st8 st51">19</text>
	<text transform="matrix(1 0 0 1 454.0605 1166.9736)" class="st17 st8 st51">8</text>
	<text transform="matrix(1 0 0 1 653.6689 1600.7959)" class="st17 st8 st52">Industrial - internal</text>
	<text transform="matrix(1 0 0 1 653.6689 1686.8115)" class="st17 st8 st52">Industrial - external</text>
	<path class="st6" d="M33.1,1591c0.2,14,11.7,25.1,25.7,24.9s25.1-11.7,24.9-25.7c-0.2-13.9-11.5-24.9-25.3-24.9
		C44.2,1565.4,33,1576.9,33.1,1591z"/>
	<path class="st1" d="M557.7,1586.2c0.2,14,11.7,25.1,25.7,24.9c14-0.2,25.1-11.7,24.9-25.7c-0.2-13.9-11.5-24.9-25.3-24.9
		C568.9,1560.6,557.6,1572.1,557.7,1586.2z"/>
	<path class="st10" d="M557.7,1672c0.2,14,11.7,25.1,25.7,24.9c14-0.2,25.1-11.7,24.9-25.7c-0.2-13.9-11.5-24.9-25.3-24.9
		C568.9,1646.4,557.6,1657.9,557.7,1672z"/>
	<path class="st15" d="M33.1,1661.2c0.2,14,11.7,25.1,25.7,24.9s25.1-11.7,24.9-25.7c-0.2-13.9-11.5-24.9-25.3-24.9
		C44.2,1635.6,33,1647.1,33.1,1661.2z"/>
	<path class="st12" d="M33.1,1739.7c0.2,14,11.7,25.1,25.7,24.9s25.1-11.7,24.9-25.7c-0.2-13.9-11.5-24.9-25.3-24.9
		C44.2,1714.1,33,1725.6,33.1,1739.7L33.1,1739.7z"/>
	<text transform="matrix(1 0 0 1 122.7925 1673.4502)" class="st17 st8 st52">Agriculture - internal</text>
	<text transform="matrix(1 0 0 1 120.4805 1749.0801)" class="st17 st8 st52">Agriculture - external</text>
	<text transform="matrix(1 0 0 1 126.1948 1602.6221)" class="st17 st8 st52">Domestic</text>
	<text transform="matrix(1 0 0 1 17.7363 1511.3193)" class="st17 st8 st18">Sector responsible for water footprint:</text>
</g>
<text transform="matrix(6.123234e-17 -1 1 6.123234e-17 1249 1865.6406)" class="st8 st53">Yearly water consumption per capita (cubic meters)</text>
<g id="ReferenceMarkLine">
	<line class="st54" x1="1364.2" y1="315.2" x2="1460.6" y2="315.2"/>
	<text transform="matrix(1 0 0 1 1314.29 1482.97)" class="st8 st55">1000</text>
	<line class="st56" x1="1412.4" y1="2689.6" x2="1412.4" y2="55.9"/>
	<line class="st54" x1="1412.4" y1="2689.6" x2="1412.4" y2="55.9"/>
	<path d="M1408.3,46.4c-2,6.6-3.8,10.9-6,16.2h20.2c-2.3-5.3-4.3-10.7-6-16.2c-1.8-5.8-3.2-11.7-4.1-17.7
		C1411.4,34.8,1410.1,40.7,1408.3,46.4z"/>
	<line class="st54" x1="1364.2" y1="1496.2" x2="1460.6" y2="1496.2"/>
	<line class="st54" x1="1398.8" y1="2445.2" x2="1426.1" y2="2445.2"/>
	<line class="st54" x1="1398.8" y1="2328.2" x2="1426.1" y2="2328.2"/>
	<line class="st54" x1="1398.8" y1="2210.2" x2="1426.1" y2="2210.2"/>
	<line class="st54" x1="1398.8" y1="2564.2" x2="1426.1" y2="2564.2"/>
	<line class="st54" x1="1398.8" y1="2088.2" x2="1426.1" y2="2088.2"/>
	<line class="st54" x1="1398.8" y1="1971.2" x2="1426.1" y2="1971.2"/>
	<line class="st54" x1="1398.8" y1="1852.2" x2="1426.1" y2="1852.2"/>
	<line class="st54" x1="1398.8" y1="1731.2" x2="1426.1" y2="1731.2"/>
	<line class="st54" x1="1398.8" y1="1613.2" x2="1426.1" y2="1613.2"/>
	<line class="st54" x1="1398.8" y1="1382.2" x2="1426.1" y2="1382.2"/>
	<line class="st54" x1="1398.8" y1="1268.2" x2="1426.1" y2="1268.2"/>
	<line class="st54" x1="1398.8" y1="1151.2" x2="1426.1" y2="1151.2"/>
	<line class="st54" x1="1398.8" y1="1030.2" x2="1426.1" y2="1030.2"/>
	<line class="st54" x1="1398.8" y1="919.2" x2="1426.1" y2="919.2"/>
	<line class="st54" x1="1398.8" y1="798.2" x2="1426.1" y2="798.2"/>
	<line class="st54" x1="1398.8" y1="677.2" x2="1426.1" y2="677.2"/>
	<line class="st54" x1="1398.8" y1="557.2" x2="1426.1" y2="557.2"/>
	<line class="st54" x1="1398.8" y1="438.2" x2="1426.1" y2="438.2"/>
	<text transform="matrix(1 0 0 1 1312.29 302.46)" class="st8 st55">2000</text>
	<text transform="matrix(1 0 0 1 1371.6899 2676.02)" class="st8 st57">0</text>
	<line class="st54" x1="1364.2" y1="2690.2" x2="1460.6" y2="2690.2"/>
	<text transform="matrix(1 0 0 1 621.4 95)" class="st8 st58">USA</text>
</g>
</svg>
