<?xml version="1.0" encoding="utf-8"?>
<!-- Generator: Adobe Illustrator 23.0.3, SVG Export Plug-In . SVG Version: 6.00 Build 0)  -->
<svg version="1.1" id="Layer_1" xmlns="http://www.w3.org/2000/svg" xmlns:xlink="http://www.w3.org/1999/xlink" x="0px" y="0px"
	 viewBox="0 0 1460.6 2759.3" style="enable-background:new 0 0 1460.6 2759.3;" xml:space="preserve">
<style type="text/css">
	.st0{fill:none;stroke:#BFBFBF;stroke-width:2;stroke-miterlimit:10;stroke-dasharray:3,2;}
	.st1{fill:none;stroke:#877D77;stroke-width:4;stroke-miterlimit:10;}
	.st2{font-family:'Montserrat-Regular';}
	.st3{font-size:100px;}
	.st4{font-size:60px;}
	.st5{fill:#EA877D;}
	.st6{font-size:48px;}
	.st7{letter-spacing:-2.1;}
	.st8{fill:#DD6553;}
	.st9{fill:#BF6DA0;}
	.st10{fill:#FFCD71;}
	.st11{fill:none;stroke:#85B645;stroke-width:4;stroke-dasharray:7,3;}
	.st12{fill:none;stroke:#85B645;stroke-width:4;stroke-miterlimit:10;}
	.st13{fill:none;stroke:#85B645;stroke-width:3;stroke-miterlimit:10;stroke-dasharray:7,3;}
	.st14{fill:none;stroke:#877D77;stroke-width:4;stroke-miterlimit:10;stroke-dasharray:7,3;}
	.st15{fill:#FFB000;}
	.st16{fill:none;stroke:#71BABF;stroke-width:4;stroke-miterlimit:10;}
	.st17{fill:none;stroke:#71BABF;stroke-width:4;stroke-miterlimit:10;stroke-dasharray:7,3;}
	.st18{fill:none;stroke:#71BABF;stroke-width:3;stroke-miterlimit:10;stroke-dasharray:7,3;}
	.st19{fill:none;stroke:#85B645;stroke-width:4;stroke-miterlimit:10;stroke-dasharray:7,3;}
	.st20{fill:none;stroke:#877D77;stroke-width:3;stroke-miterlimit:10;stroke-dasharray:7,3;}
	.st21{fill:none;stroke:#969696;stroke-width:4;stroke-miterlimit:10;}
	.st22{fill:#FFFFFF;stroke:#686868;stroke-width:4;stroke-miterlimit:10;}
	.st23{fill:none;stroke:#000000;stroke-miterlimit:10;stroke-dasharray:7,3;}
	.st24{fill:none;stroke:#000000;stroke-miterlimit:10;}
	.st25{fill:none;stroke:#000000;stroke-width:4;stroke-miterlimit:10;}
	.st26{fill:none;}
</style>
<g id="CONGO_AG_IN">
	<line class="st0" x1="185.2" y1="1889.8" x2="185.2" y2="1963.5"/>
	<path class="st1" d="M88.3,2662.8c-0.5,3.4-0.7,5.6-0.7,5.6"/>
	<text transform="matrix(1 0 0 1 555.0099 95.314)" class="st2 st3">CONGO</text>
	<text transform="matrix(1 0 0 1 665.0099 167.314)" class="st2 st4">       (DRC)</text>
	<line class="st0" x1="779" y1="2686.6" x2="0.1" y2="2686.6"/>
	<path class="st5" d="M798.8,2682.1c0.1,33.8-27.3,61.3-61.1,61.3c-33.8,0.1-61.3-27.3-61.3-61.1c-0.1-33.8,27.3-61.3,61.1-61.3h0.1
		C771.4,2621,798.8,2648.4,798.8,2682.1z"/>
	<text transform="matrix(0.97 0 0 1 711.3389 2699.4033)" class="st2 st6 st7">0.1</text>
	<line class="st0" x1="570" y1="2685.6" x2="1.1" y2="2685.6"/>
	<path class="st8" d="M608.8,2678.9c0,33.7-27.2,61-60.8,61.1c-33.6,0-60.8-25.3-60.8-59.1s27.2-63.1,60.8-63.1
		C581.7,2618,608.9,2645.3,608.8,2678.9z"/>
	<text transform="matrix(0.97 0 0 1 512.6899 2695.7334)" class="st2 st6 st7">0.4</text>
	<path class="st9" d="M417.4,2681.7c-0.2,33.6-27.5,60.6-61.1,60.4c-33.6-0.2-60.6-27.5-60.4-61.1c0.2-33.4,27.3-60.4,60.7-60.4
		C390.3,2620.8,417.5,2648.1,417.4,2681.7z"/>
	<text transform="matrix(0.97 0 0 1 336 2698.4443)" class="st2 st6 st7">4</text>
	<line class="st0" x1="150.6" y1="2531.9" x2="150.6" y2="2668.1"/>
	<line class="st0" x1="1.5" y1="2668.6" x2="260.9" y2="2668.6"/>
	<path class="st10" d="M211.8,2666.9c0,33.7-27.2,61-60.8,61.1c-33.6,0-60.8-25.4-60.8-59.1s27.2-63.1,60.8-63.1
		C184.6,2605.9,211.8,2633.3,211.8,2666.9z"/>
	<text transform="matrix(0.97 0 0 1 128 2685.3838)" class="st2 st6 st7">16</text>
	<path class="st11" d="M91.7,2693.8c1.6,4.6,3.9,9,6.9,12.8c6.6,8.3,12.9,14.4,17.6,16.8c5.2,2.8,10.7,5.9,16.5,7.5
		c8.2,2.2,13.9,2.8,15.8,2.8c21.7-0.6,29.5-3.6,35-6.1c8.4-3.9,18.2-10.3,31-21.3c8.7-7.2,11.4-10.1,18.5-16.5"/>
	<path class="st12" d="M87.8,2669.2c0.1,4,0.2,14.3,3.9,24.6"/>
	<path class="st13" d="M233,2689.8c1.8-1.6,3.9-3.5,6.5-5.7c8.3-7.2,15.2-10.8,22-15.6"/>
	<path class="st14" d="M261.4,2668.5c-6.9-4.9-11.2-10.7-19.5-18c-12.6-10.8-14.1-13.2-25.1-22.3c-12.8-11-22.7-17.5-31.2-21.4
		c-5.6-2.6-17.2-7.4-35-5.5c-5.1,0.8-10.1,2.2-15,3.9c-0.6,0.2-5.6,1.6-15.8,7c-4.7,2.5-13,9.3-19.7,17.6
		c-7.5,9.4-10.7,24.7-11.9,32.9"/>
	<path class="st1" d="M293.6,2678.1c-0.5,3.4-0.8,7.3-0.8,7.3"/>
	<path class="st14" d="M466.8,2683.8c-6.8-4.9-11.2-10.7-19.5-17.9c-12.6-10.9-14.1-13.2-25.1-22.4c-12.8-11-22.7-17.5-31.2-21.4
		c-5.6-2.6-17.2-7.4-35-5.5c-5.2,0.6-10.3,1.7-15.3,3.3c-0.6,0.2-6,1.8-16.2,7.2c-4.7,2.5-12.3,9.7-19,18
		c-7.5,9.4-10.7,24.7-11.9,32.9"/>
	<line class="st0" x1="2.9" y1="2024" x2="412.8" y2="2024"/>
	<path class="st15" d="M246.4,2024.9c0,33.7-27.2,61-60.8,61.1c-33.6,0-60.8-25.3-60.8-59.1c0-33.8,27.2-63.1,60.8-63.1
		C219.2,1963.9,246.4,1991.2,246.4,2024.9z"/>
	<text transform="matrix(0.97 0 0 1 151.5698 2042.3447)" class="st2 st6 st7">532</text>
	<path class="st16" d="M121.8,2022.2c0.2,1.4,0.3,2.8,0.5,4"/>
	<path class="st17" d="M143.5,1942.1c-7.6,9.7-13.3,18.7-16.4,25.3c-1.3,2.8-6.5,12.8-7.3,24.7c-0.7,10.2,0.9,21.6,2,30.2"/>
	<path class="st17" d="M181.9,1894.8c-3.8,5.6-7.9,10.9-12.4,15.9c-11.6,13-10.1,12-19.2,22.9c-2.4,2.8-4.7,5.6-6.9,8.4"/>
	<path class="st18" d="M185.7,1889.4c-0.9,1.4-1.8,2.8-2.7,4.2"/>
	<path class="st12" d="M122,2025.2c0.2,7.1,2.5,38.2,19.7,61.5c10.3,14,22.2,20.3,29.5,24.5c11.1,6.4,23.3,10.5,36,12
		c19.4,2.4,39.1-0.9,56.6-9.4c13.2-6.6,27-16.2,46.8-34.8c0,0,43.8-39.8,80-55.7"/>
	<path class="st12" d="M122.1,2025.2c0.2,5.3-0.5,33.6,15.2,53c7.3,9,16.4,16.4,26.6,21.8c14.6,7.6,33.2,12.3,38.2,12.8
		c17.6,1.9,35.4-1,51.5-8.3c12-5.4,23.7-13.2,41.8-28.5c0,0,14.7-12.2,32.4-25.8c12.2-9.4,25-21.3,39-26.5"/>
	<path class="st12" d="M122,2025.2c0.1,4.2-0.3,29.5,13.9,46.4c8.5,10.1,18.6,15.2,24.7,18.2c6.3,3.1,13.9,7,21.2,9.6
		c5.7,2.1,11.7,3.5,17.7,4.4c22.6,2.3,37.7-5.1,44.8-8.2c10.8-4.7,22.7-11.4,39.1-24.7c0,0,11.9-11.1,28-23
		c11.1-8.2,22.2-19,31.8-24.4"/>
	<path class="st12" d="M122.1,2025.2c0.2,6.2-1.3,27.9,10.8,42.2c7.6,9,16,13.2,21.4,15.9c5.7,2.8,12.6,6.5,19.2,8.8
		c5.6,1.9,11.3,3.4,17.2,4.2c20.3,2.1,33.6-3.1,40-5.9c9.7-4.2,21-10.3,35.7-22.2c12.6-9.9,14.3-12.4,28.8-24.2
		c9.5-7.8,16-15,23.9-20.2"/>
	<path class="st12" d="M122.1,2025.2c0.1,3.1-0.2,24.3,11.1,38.4c6.6,8.3,12.6,13.6,17.3,16.1c5.3,2.8,10.9,5.3,16.5,7.5
		c6.1,2.3,14.6,2.6,16.4,2.8c17.6,1.9,29.2-2.9,34.7-5.4c8.4-3.9,18.2-10.3,31-21.3c10.9-9.1,12.5-10.4,25-21.2
		c8.3-7.2,14.3-14.1,21.1-18.9"/>
	<path class="st19" d="M182.1,2124.5c10.5,5.2,21.7,8.6,33.3,10c29.9,3.5,53-7.7,62.4-12.4c14.3-7.2,29.4-17.8,51.1-38
		c0,0,47.8-43.2,87.2-60.6"/>
	<path class="st12" d="M122.1,2025.2c0.2,8,3.2,41.9,21.8,67.3c8.7,11.7,19.7,21.5,32.3,28.8c2,1.1,4,2.2,5.9,3.1"/>
	<path class="st17" d="M151.1,2531.4c-4.8,6.8-8.9,13.2-16.2,21.4c-11.6,13-10.1,12-19.2,22.9c-11,12.8-17.3,22.4-21.2,30.8
		c-1.3,2.8-6.9,15.8-7.7,27.7c-0.6,10-0.4,20,0.4,30"/>
</g>
<title>VIZ2-USA</title>
<title>VIZ2-USA</title>
<g id="USA_IND_IN">
	<line class="st0" x1="-455.4" y1="2449.6" x2="-1.4" y2="2449.6"/>
	<line class="st0" x1="-323.3" y1="2315.1" x2="-323.3" y2="2389.7"/>
	<path class="st8" d="M-382.9,2449.6c0,33.7,27.3,61.1,61.1,61.1c33.7,0,61.1-27.3,61.1-61.1c0-33.7-27.3-61.1-61.1-61.1l0,0
		C-355.6,2388.6-382.9,2415.9-382.9,2449.6z"/>
	<path class="st14" d="M-395.6,2400.3c-2.3,1.8-4.8,3.7-7.3,5.7c-12.6,9.9-14.4,12.4-28.9,24.3c-9.6,7.9-16.1,14.1-24,19.4"/>
	<path class="st1" d="M-258.3,2448.9c0,0,1.7-26.6-10.6-41.1c-5.6-6.9-12.2-12.9-19.6-18c-4.4-3-14.1-7.4-20.7-9.7
		c-7.1-2.5-15.7-3.2-17.8-3.4c-20.3-2.1-33.7,3.1-40.2,5.9c-8.1,3.5-17.3,9-28.6,17.6"/>
	<path class="st1" d="M-431.8,2448.9c7.4-5.1,14.5-10.7,21.2-16.6c12.6-10.9,14.1-13.2,25.1-22.3c12.8-11,22.7-17.5,31.1-21.4
		c5.6-2.6,17.2-7.4,34.9-5.5c5.1,0.8,10.1,2.1,15,3.9c5.7,2.1,11.8,5.5,16.7,8.1c4.7,2.5,12.1,8.2,18.7,16.5
		c10.6,13.4,10.9,38.6,10.9,38.6"/>
	<path class="st16" d="M-259.3,2399c1.9,5.1,3.1,10.4,3.5,15.8c0.8,11.9-1.5,25.3-2.4,34.1"/>
	<path class="st17" d="M-321.9,2314.1c4.8,6.8,8.9,13.2,16.2,21.4c11.7,13,10.1,12,19.2,22.9c11,12.8,19.4,23.2,23.3,31.7
		c0.6,1.4,2.3,4.6,3.8,8.9"/>
	<line class="st0" x1="-649.8" y1="2518.6" x2="-2.4" y2="2518.6"/>
	<line class="st0" x1="-517.3" y1="2383.1" x2="-517.3" y2="2457.7"/>
</g>
<g id="USA_DM">
	<line class="st0" x1="-836.4" y1="2552.6" x2="0.2" y2="2552.6"/>
	<line class="st0" x1="-729.3" y1="2418.1" x2="-729.3" y2="2492.7"/>
	<circle class="st9" cx="-727.8" cy="2552.6" r="61.1"/>
	<path class="st1" d="M-820.2,2538.4c1.2-1,2.3-2,3.6-3.1c12.6-10.9,14.1-13.2,25.1-22.3c12.8-11,22.7-17.5,31.1-21.4
		c5.6-2.6,17.2-7.4,34.9-5.5c5.1,0.8,10.1,2.1,15,3.9c5.7,2.1,11.8,5.5,16.7,8.1c4.7,2.5,12,8.2,18.7,16.5
		c10.6,13.4,10.9,38.6,10.9,38.6"/>
	<path class="st14" d="M-837.8,2551.9c5.8-4.1,11.1-8,17.7-13.5"/>
	<path class="st16" d="M-661.7,2519.2c0.5,11.5-1.6,24.2-2.5,32.7"/>
	<path class="st18" d="M-665.3,2502c1.9,5.1,3.1,10.4,3.5,15.8c0,0.5,0.1,0.9,0.1,1.4"/>
	<path class="st17" d="M-727.9,2417.1c4.8,6.8,8.9,13.2,16.2,21.4c11.7,13,10.1,12,19.2,22.9c11,12.8,19.4,23.2,23.3,31.7
		c0.6,1.4,2.3,4.6,3.8,8.9"/>
	<text transform="matrix(1 0 0 1 -751.0473 2571.3899)" class="st2 st6">11</text>
	<text transform="matrix(1 0 0 1 -722.0573 2571.3899)" class="st2 st6">1</text>
</g>
<g id="USA_IND_EX">
	<line class="st0" x1="-212.8" y1="2030.2" x2="-212.8" y2="2105.1"/>
	<path class="st5" d="M-578.4,2518.1c0,33.7,27.3,61.1,61.1,61.1c33.7,0,61.1-27.3,61.1-61.1c0-33.7-27.3-61.1-61.1-61.1l0,0
		C-551.1,2457-578.4,2484.4-578.4,2518.1z"/>
	<text transform="matrix(1 0 0 1 -550.5473 2539.3501)" class="st2 st6">13</text>
	<text transform="matrix(1 0 0 1 -511.8073 2539.3501)" class="st2 st6">8</text>
	<path class="st20" d="M-589.6,2468.3c-2.3,1.8-4.8,3.7-7.3,5.7c-12.6,9.9-14.4,12.4-28.9,24.3c-9.6,7.9-16.1,14.1-24,19.4"/>
	<path class="st14" d="M-487.6,2455.8c-5.3-3-10.9-5.6-16.6-7.6c-5.4-1.8-11-2.9-16.7-3.4c-20.3-2.1-33.7,3.1-40.2,5.9
		c-8.1,3.5-17.3,9-28.6,17.6"/>
	<path class="st1" d="M-452.3,2516.9c-0.1-1.7,1.8-26.5-10.6-41.1c-7.6-9.1-16.5-14.5-21.5-18c-0.9-0.7-2-1.4-3.2-2.1"/>
	<path class="st1" d="M-625.8,2516.9c7.4-5.1,14.5-10.7,21.2-16.6c12.6-10.9,14.1-13.2,25.1-22.3c12.8-11,22.7-17.5,31.1-21.4
		c5.6-2.6,17.2-7.4,34.9-5.5c5.1,0.8,10.1,2.1,15,3.9c5.7,2.1,11.8,5.5,16.7,8.1c4.7,2.5,12.1,8.2,18.7,16.5
		c10.7,13.4,10.9,36,10.9,38.6"/>
	<path class="st16" d="M-450.6,2503.9c-0.5,4.8-1.2,9.3-1.6,13"/>
	<path class="st18" d="M-453.3,2467c1.9,5.1,3.1,10.4,3.5,15.8c0.3,7.1,0,14.1-0.9,21.1"/>
	<path class="st17" d="M-515.9,2382.1c4.8,6.8,8.9,13.2,16.2,21.4c11.7,13,10.1,12,19.2,22.9c11,12.8,19.4,23.2,23.3,31.7
		c0.6,1.4,2.3,4.6,3.8,8.9"/>
</g>
<g id="Circle">
	<text transform="matrix(1 0 0 1 -357.2972 2471.53)" class="st2 st6">19</text>
	<text transform="matrix(1 0 0 1 -316.3972 2471.53)" class="st2 st6">6</text>
</g>
<g id="USA_AG_EX">
	<line class="st0" x1="-393.4" y1="2165.1" x2="-1.1" y2="2165.1"/>
	<path class="st10" d="M-275.1,2165.1c0,33.7,27.3,61.1,61.1,61.1c33.7,0,61.1-27.3,61.1-61.1c0-33.7-27.3-61.1-61.1-61.1l0,0
		C-247.7,2104-275.1,2131.4-275.1,2165.1z"/>
	<path class="st19" d="M-318.8,2218.6l-2.8-2.4c0,0-14.7-12.2-32.5-25.8c-12.3-9.4-25.1-20.3-39.2-25.5"/>
	<path class="st12" d="M-147.9,2165.3c-0.2,6.6-0.2,33.9-15,52.1c-9.4,11.6-20,20.4-26.8,23.8c-14.7,7.6-33.3,12.3-38.3,12.8
		c-17.7,1.9-35.5-1-51.7-8.3c-11.4-5.1-22.6-13.3-39.2-27.1"/>
	<path class="st12" d="M-147.9,2165.3c-0.2,5.6-0.3,29.6-13.7,45.4c-8.5,10.1-18.7,17.2-24.8,20.2c-6.3,3.1-14,7-21.3,9.6
		c-5.8,2-11.7,3.5-17.8,4.4c-22.8,2.3-37.8-5.1-45-8.2c-10.9-4.7-22.8-12.4-39.2-25.7c0,0-12-11.1-28.1-23
		c-11.1-8.2-22.3-18-32-23.4"/>
	<path class="st12" d="M-147.9,2165.3c-0.2,4.9,1.4,27.1-10.6,41.3c-7.6,9-16.1,15.2-21.5,17.9c-5.7,2.8-12.7,6.5-19.2,8.8
		c-5.6,1.9-11.4,3.4-17.2,4.2c-20.4,2.1-33.8-3.1-40.2-5.9c-9.8-4.2-21.1-11.2-35.8-23.2c-12.6-9.9-14.4-12.4-28.9-24.2
		c-9.6-7.8-16.1-14-24-19.2"/>
	<path class="st12" d="M-147.9,2165.3c-0.1,4.3-0.5,24.5-10.9,37.5c-6.6,8.3-13.9,13.9-18.7,16.4c-4.9,2.6-11,5.9-16.7,8
		c-4.9,1.8-9.9,3.1-15,3.9c-17.7,1.9-29.3-2.9-34.9-5.4c-8.5-3.9-18.3-10.3-31.1-21.3c-11-9.1-12.5-11.4-25.1-22.2
		c-8.3-7.2-14.3-13.1-21.2-17.9"/>
	<path class="st1" d="M-181.9,2106.1l3.5,1.9c4.8,2.5,12.3,8.9,19.6,18.9c11.7,16.1,11,38.5,11,38.5"/>
	<path class="st14" d="M-321.8,2165.2c7-4.5,19.9-17.2,28.7-24.3c13.2-10.7,15.2-12.5,26.7-21.3c13.4-10.8,22.6-16.3,31-19.3
		c2.4-0.9,14.6-4.6,27.7-2.3c10.8,1.8,22,4.8,25.8,8.2"/>
	<path class="st16" d="M-152.6,2105.5c3.3,7.9,5.3,16.2,5.9,24.7c0.8,11.9-0.2,26.2-1.1,35.1"/>
	<path class="st17" d="M-211.4,2029.5c4.8,6.8,8.9,13.2,16.2,21.4c11.7,13,10.1,12,19.2,22.9c11,12.8,19.4,23.2,23.3,31.7"/>
	<text transform="matrix(1 0 0 1 -254.5873 2185.6299)" class="st2 st6">43</text>
	<text transform="matrix(1 0 0 1 -201.4473 2185.6299)" class="st2 st6">7</text>
</g>
<g id="USA_AG_IN">
	<line class="st0" x1="-682.9" y1="366.6" x2="-2.6" y2="366.6"/>
	<line class="st0" x1="-191.3" y1="208.1" x2="-191.3" y2="306.7"/>
	<path class="st12" d="M-126.3,366.9c-0.3,9.7-2.3,40.3-18.7,62.6c-15.8,21.3-39.6,35.2-65.9,38.5c-27.6,3.2-48.8-7-57.5-11.4
		c-13.2-6.6-27.1-17.2-47-35.8c0,0-44-38.8-80.3-54.7"/>
	<path class="st12" d="M-126.3,366.9c-0.2,8,0,33.7-15,52.1c-9.4,11.5-20,20.3-26.8,23.8c-14.7,7.6-33.3,12.3-38.3,12.8
		c-17.7,1.9-35.5-1-51.7-8.3c-12-5.4-23.8-14.2-42-29.5c0,0-14.7-12.2-32.5-25.8c-12.3-9.4-25.1-20.3-39.1-25.5"/>
	<path class="st12" d="M-126.3,367.3c-0.2,7-0.2,29-13.7,45c-8.5,10-18.7,17.2-24.8,20.2c-6.3,3.2-14,7-21.3,9.6
		c-5.8,2-11.7,3.5-17.8,4.4c-22.8,2.3-37.8-5.1-45-8.2c-10.9-4.7-22.8-12.3-39.2-25.7c0,0-12-11.1-28.1-23
		c-11.1-8.2-22.3-18-32-23.4"/>
	<path class="st12" d="M-126.4,367.3c-0.2,6.2,1.6,26.5-10.5,40.8c-7.6,9-16.1,15.2-21.5,17.9c-5.7,2.8-12.7,6.5-19.2,8.8
		c-5.6,1.9-11.4,3.4-17.2,4.2c-20.4,2.1-33.8-3.1-40.2-5.9c-9.7-4.2-21.1-11.2-35.8-23.2c-12.6-9.9-14.4-12.4-28.9-24.2
		c-9.6-7.8-16.1-14-24-19.2"/>
	<path class="st12" d="M-126.4,367.3c-0.2,5.7-0.3,23.9-10.8,37c-6.6,8.3-14,13.9-18.7,16.4c-4.9,2.6-11,5.9-16.7,8
		c-4.9,1.8-9.9,3.1-15,3.9c-17.7,1.9-29.3-2.9-34.9-5.4c-8.5-3.9-18.3-10.3-31.1-21.3c-11-9.1-12.5-11.4-25.1-22.2
		c-8.3-7.2-14.3-13.1-21.2-17.9"/>
	<path class="st12" d="M-126.3,366.9c-0.3,10.6-3.7,44.1-21.7,68.4c-17.2,23.2-43.1,38.3-71.8,41.9c-30.1,3.5-53.2-7.7-62.7-12.4
		c-14.4-7.2-29.5-18.8-51.3-39c0,0-48-42.2-87.6-59.6"/>
	<path class="st12" d="M-126.3,366.9c-0.3,11.3,0.3,46.3-18.9,72.4c-12.1,16.4-28.3,27.6-36.9,32.5c-18.8,10.7-36.7,12.5-43.1,13.2
		c-32.2,3.8-57-8.2-67.2-13.3c-15.4-7.7-32.7-20.6-56.1-42.3c0,0-53.4-44.3-95.9-62.9"/>
	<path class="st12" d="M-126.3,366.9c-0.3,12.2,1.2,49.6-19.4,77.6c-13,17.6-30.8,31-40,36.3c-20.2,11.5-39.8,12-46.6,12.8
		c-34.6,4-61.2-8.8-72.1-14.2c-16.6-8.3-33.6-19.7-58.6-42.9c0,0-58.7-50.1-104.3-70"/>
	<path class="st12" d="M-126.4,367.3c-0.4,12.7,1.7,52.4-20.3,81.5c-13.8,18.3-32.6,32-42.5,37.5c-21.5,12-42.9,13.2-50.2,14
		c-37,4.2-65.8-10.4-77.4-16.1c-17.7-8.6-36.2-20.9-62.9-45.1c0,0-62.5-51.6-111.2-72.3"/>
	<path class="st12" d="M-126.4,367.3c-0.4,13.5,3.4,55.8-20,86.7c-14.7,19.4-35,34.4-45.5,40.2c-22.9,12.7-46.9,13.5-54.7,14.4
		c-39.3,4.5-69.9-11.1-82.3-17.1c-18.8-9.1-37.8-21.8-66.3-47.6c0,0-68-55.2-119.8-77.2"/>
	<path class="st12" d="M-126.3,367.3c-0.4,14.2,3,60.8-21.8,93.5c-15.6,20.6-36.5,35.5-47.7,41.7c-24.3,13.5-49.4,14.4-57.7,15.3
		c-41.6,4.7-74.2-12.5-87.3-18.9c-19.9-9.7-41.6-24.1-71.7-51.4c0,0-72.5-57.9-127.3-81.2"/>
	<path class="st12" d="M-126.3,367.3c-0.4,15,4.7,64.6-21.5,99.2c-16.4,21.7-40.7,37.8-52.4,44.3c-25.6,14.2-51.4,14.8-60.1,15.8
		c-43.9,5-78.4-13.8-92.3-20.5c-21-10.2-43.9-24.4-75.7-53.1c0,0-77.6-61.8-135.4-86.4"/>
	<path class="st12" d="M-126.3,367.3c-0.5,15.8,5.4,69.1-22.2,105.5c-17.3,22.9-42.4,39.1-54.8,46c-27,15-54.7,16.1-63.9,17.2
		c-46.3,5.3-83-15.3-97.6-22.3c-22.2-10.8-46-25.8-79.5-56.1c0,0-83.4-65.3-144.3-91.2"/>
	<path class="st12" d="M-126.3,367.3c-0.5,16.6,7,73.1-21.8,111.2c-18.1,23.9-45.4,41.5-58.3,48.7c-28.2,15.7-57.7,16.9-67.3,18
		c-48.4,5.5-86.7-17.3-102-24.8c-23.2-11.2-48.2-27.2-83.2-58.8c0,0-89-67.8-152.8-94.9"/>
	<path class="st12" d="M-126.3,367.3c-0.5,17.3,9,75.7-21.2,115.5c-18.9,25-49,44-62.6,51.5c-29.5,16.4-60.6,18.4-70.7,19.5
		c-50.6,5.8-90.2-18.8-106.2-26.6c-24.2-11.8-50.5-28.6-87.1-61.7c0,0-95.1-70.4-161.8-98.8"/>
	<path class="st12" d="M-126.3,367.3c-0.5,18.1,9.7,80.3-21.8,121.8c-19.8,26.1-51.5,45.5-65.7,53.3c-30.8,17.1-62.7,19.4-73.2,20.6
		c-52.8,6-95-20.5-111.7-28.6c-25.3-12.3-52.4-28.5-90.6-63.1c0,0-101.6-75.3-171.2-105"/>
	<path class="st12" d="M-126.3,367.3c-0.6,18.9,8.2,88-24.7,131.5c-20.7,27.3-51.2,44.3-66,52.5c-32.2,17.9-66,21.2-77,22.5
		c-55.2,6.3-99.6-23.3-117-31.8c-26.4-12.8-54.7-29.8-94.7-66c0,0-104.6-78.3-177.4-109.3"/>
	<path class="st15" d="M-250.9,366.7c0,33.7,27.3,61.1,61.1,61.1c33.7,0,61.1-27.3,61.1-61.1c0-33.7-27.3-61.1-61.1-61.1l0,0
		C-223.6,305.6-250.9,332.9-250.9,366.7z"/>
	<text transform="matrix(1 0 0 1 -236.0273 382.11)" class="st2 st6">196</text>
	<text transform="matrix(1 0 0 1 -168.7373 382.11)" class="st2 st6">0</text>
	<path class="st14" d="M-164.2,300.6l-0.5-0.3c-6.3-3.2-14-7.1-21.3-9.6c-5.8-2.1-11.7-3.5-17.8-4.4c-22.8-2.3-37.8,5.1-45,8.3
		c-10.9,4.8-22.8,12.4-39.2,25.8c0,0-12,11.2-28.1,23.1c-11.1,8.3-22.3,17.1-32,22.6"/>
	<path class="st1" d="M-126.3,365.9c0,0,1.7-26.6-10.6-41.1c-7.6-9-16-15.3-21.5-18c-5.7-2.8-12.7-6.5-19.2-8.8
		c-5.6-1.9-11.4-3.4-17.2-4.3c-20.3-2.1-33.7,3.2-40.2,6c-9.8,4.3-21.1,11.3-35.8,23.3c-12.6,9.9-14.4,12.5-28.9,24.3
		c-9.6,7.9-16.1,14.1-24,19.4"/>
	<path class="st1" d="M-299.8,365.9c7.4-5.1,14.5-10.7,21.2-16.5c12.6-10.9,14.1-13.2,25.1-22.3c12.8-11,22.7-17.5,31.1-21.4
		c5.6-2.6,17.2-7.4,34.9-5.5c5.1,0.8,10.1,2.1,15,3.9c5.7,2.1,11.8,5.5,16.7,8.1c4.7,2.5,12.1,8.2,18.7,16.5
		c10.6,13.4,10.8,38.3,10.8,38.3"/>
	<path class="st16" d="M-189.9,231.1c4.8,6.8,8.9,13.2,16.2,21.4c11.7,13,10.1,11.9,19.2,22.9c11,12.8,19.4,23.2,23.3,31.7
		c1.3,2.8,6.5,12.8,7.3,24.7c0.8,11.9-1.5,25.3-2.4,34.1"/>
	<path class="st16" d="M-129.6,295.6l0.2,0.6c1.3,3.2,6.6,14.9,7.5,28.7s-3.5,30.7-4.4,41"/>
	<path class="st17" d="M-189.6,207.7c4.9,8,8.6,15.8,16.1,25.3c11.9,15.1,11.1,13.6,20.4,26.4c11,14.6,19.4,26.5,23.5,36.3"/>
	<path class="st1" d="M-126.2,366c0,0-0.1-29.1-13.7-45.3c-8.3-9.8-18.2-16.9-24.3-20.1"/>
	<path class="st21" d="M-136.4,286"/>
</g>
<g id="NEW_Legend">
	<text transform="matrix(1 0 0 1 -1412.3573 1453.64)" style="font-family:'Montserrat-SemiBold'; font-size:42.69px;">How to read it:</text>
	<path class="st17" d="M-1032.8,1507.7c4.8,6.8,8.8,13.1,16.1,21.2c11.6,12.9,10,11.8,19.1,22.7c10.9,12.7,19.3,23,23.1,31.4"/>
	<path class="st22" d="M-1095.8,1642.1c0,33.4,27.1,60.6,60.6,60.6c33.4,0,60.6-27.1,60.6-60.6s-27.1-60.6-60.6-60.6l0,0
		C-1068.7,1581.6-1095.8,1608.7-1095.8,1642.1z"/>
	<path class="st12" d="M-969.8,1642.7c-0.2,5.7-0.3,23.7-10.7,36.7c-6.6,8.2-13.8,13.8-18.5,16.3c-4.9,2.6-11,5.9-16.6,8
		c-4.8,1.8-9.8,3.1-14.9,3.9c-17.5,1.9-29.1-2.9-34.6-5.4c-8.4-3.9-18.2-10.3-30.8-21.1c-10.9-9-12.4-11.3-24.9-22
		c-8.2-7.1-14.2-13-21-17.8"/>
	<path class="st1" d="M-1000.1,1578.2c4.7,3.1,15.5,14.9,20,24.8c7,15.4,9.4,38.6,9.4,37.1"/>
	<path class="st21" d="M-998.9,1581.2"/>
	<path class="st14" d="M-1135.2,1602.4c8.5-2.6,16.9-5.7,25.1-9.2c15.2-6.5,17.3-8.2,30.4-13.5c15.4-6.5,26.7-9.6,35.9-10.8
		c6-0.7,18.5-1.8,34.6,5.4c1.7,0.7,8.1,2.3,11.5,6.4"/>
	<path class="st16" d="M-974.4,1583c1.3,2.8,6.5,12.7,7.3,24.4s-1.5,25.1-2.4,33.9"/>
	
		<text transform="matrix(0.8601 0.5101 -0.5101 0.8601 -1112.9569 1715.6002)" class="st2" style="fill:#85B645; font-size:31.7652px;">G</text>
	<text transform="matrix(0.89 0.4559 -0.4559 0.89 -1090.6876 1728.7104)" class="st2" style="fill:#85B645; font-size:31.772px;">r</text>
	
		<text transform="matrix(0.9243 0.3818 -0.3818 0.9243 -1078.6476 1735.0317)" class="st2" style="fill:#85B645; font-size:31.6283px;">e</text>
	<text transform="matrix(0.9767 0.2147 -0.2147 0.9767 -1059.7374 1743.05)" class="st2" style="fill:#85B645; font-size:31.77px;">e</text>
	
		<text transform="matrix(0.9914 -0.1305 0.1305 0.9914 -1039.5573 1747.0703)" class="st2" style="fill:#85B645; font-size:31.7655px;">n</text>
	
		<text transform="matrix(0.8984 -0.4392 0.4392 0.8984 -1007.327 1742.139)" class="st2" style="fill:#85B645; font-size:31.8271px;">W</text>
	
		<text transform="matrix(0.7294 -0.684 0.684 0.7294 -976.3868 1726.0007)" class="st2" style="fill:#85B645; font-size:31.7643px;">a</text>
	
		<text transform="matrix(0.5717 -0.8205 0.8205 0.5717 -962.3907 1711.7194)" class="st2" style="fill:#85B645; font-size:31.773px;">t</text>
	
		<text transform="matrix(0.5072 -0.8618 0.8618 0.5072 -954.4276 1700.7098)" class="st2" style="fill:#85B645; font-size:31.77px;">e</text>
	
		<text transform="matrix(0.3234 -0.9463 0.9463 0.3234 -944.3086 1682.9001)" class="st2" style="fill:#85B645; font-size:31.7733px;">r</text>
	<text transform="matrix(0.5055 0.7203 -0.8186 0.5744 -1013.1263 1501.16)" class="st2" style="fill:#71BABF; font-size:31.77px;">B</text>
	
		<text transform="matrix(0.5078 0.7069 -0.8164 0.5775 -1001.0667 1518.3102)" class="st2" style="fill:#71BABF; font-size:31.9095px;">l</text>
	
		<text transform="matrix(0.5119 0.7127 -0.8131 0.5822 -996.7487 1524.4304)" class="st2" style="fill:#71BABF; font-size:31.6548px;">u</text>
	<text transform="matrix(0.52 0.7 -0.8 0.6 -985.8187 1539.6198)" class="st2" style="fill:#71BABF; font-size:31.77px;">e</text>
	
		<text transform="matrix(0.6218 0.6218 -0.7121 0.7021 -972.1384 1559.599)" class="st2" style="fill:#71BABF; font-size:31.6761px;">W</text>
	<text transform="matrix(0.2552 0.8422 -0.957 0.29 -953.4572 1582.1288)" class="st2" style="fill:#71BABF; font-size:31.77px;">a</text>
	
		<text transform="matrix(0.1368 0.8693 -0.9879 0.1554 -948.9067 1597.9194)" class="st2" style="fill:#71BABF; font-size:31.7745px;">t</text>
	
		<text transform="matrix(1.998803e-02 0.8796 -0.9996 2.998204e-02 -946.9883 1608.5402)" class="st2" style="fill:#71BABF; font-size:31.7891px;">e</text>
	
		<text transform="matrix(-6.977707e-02 0.8672 -0.9968 -7.974522e-02 -946.9188 1625.3402)" class="st2" style="fill:#71BABF; font-size:31.8715px;">r</text>
	<line class="st23" x1="-1201.7" y1="1700.7" x2="-1248.5" y2="1766.4"/>
	<text transform="matrix(1 0 0 1 -1312.8973 1802.22)" class="st2" style="font-size:29.78px;">Partial</text>
	<text transform="matrix(1 0 0 1 -1303.5272 1833.99)" class="st2" style="font-size:29.78px;">units</text>
	<text transform="matrix(1 0 0 1 -913.5973 1660.53)" style="font-family:'Montserrat-SemiBold'; font-size:30.78px;">C</text>
	<text transform="matrix(1 0 0 1 -891.8373 1660.53)" style="font-family:'Montserrat-SemiBold'; font-size:30.78px;">omposi</text>
	<text transform="matrix(1 0 0 1 -773.8773 1660.53)" style="font-family:'Montserrat-SemiBold'; font-size:30.78px;">t</text>
	<text transform="matrix(1 0 0 1 -761.3873 1660.53)" style="font-family:'Montserrat-SemiBold'; font-size:30.78px;">e </text>
	<text transform="matrix(1 0 0 1 -733.7473 1660.53)" style="font-family:'Montserrat-SemiBold'; font-size:30.78px;">f</text>
	<text transform="matrix(1 0 0 1 -722.6373 1660.53)" style="font-family:'Montserrat-SemiBold'; font-size:30.78px;">ootp</text>
	<text transform="matrix(1 0 0 1 -648.7773 1660.53)" style="font-family:'Montserrat-SemiBold'; font-size:30.78px;">r</text>
	<text transform="matrix(1 0 0 1 -636.0073 1660.53)" style="font-family:'Montserrat-SemiBold'; font-size:30.78px;">int</text>
	<text transform="matrix(1 0 0 1 -879.4073 1697.46)" style="font-family:'Montserrat-SemiBold'; font-size:30.78px;">of 3 </text>
	<text transform="matrix(1 0 0 1 -813.3073 1697.46)" style="font-family:'Montserrat-SemiBold'; font-size:30.78px;">w</text>
	<text transform="matrix(1 0 0 1 -785.5473 1697.46)" style="font-family:'Montserrat-SemiBold'; font-size:30.78px;">a</text>
	<text transform="matrix(1 0 0 1 -766.8673 1697.46)" style="font-family:'Montserrat-SemiBold'; font-size:30.78px;">t</text>
	<text transform="matrix(1 0 0 1 -754.3673 1697.46)" style="font-family:'Montserrat-SemiBold'; font-size:30.78px;">er </text>
	<text transform="matrix(1 0 0 1 -713.8073 1697.46)" style="font-family:'Montserrat-SemiBold'; font-size:30.78px;">t</text>
	<text transform="matrix(1 0 0 1 -701.0673 1697.46)" style="font-family:'Montserrat-SemiBold'; font-size:30.78px;">ypes</text>
	<text transform="matrix(1 0 0 1 -1186.4374 1816)" class="st2" style="font-size:29.78px;">100 cubic meters</text>
	<text transform="matrix(1 0 0 1 -1186.4374 1847.77)" class="st2" style="font-size:29.78px;">of water consumed yearly per capita</text>
	<line class="st24" x1="-1104.7" y1="1671.8" x2="-1177.9" y2="1782.5"/>
	<line class="st24" x1="-917.1" y1="1650.6" x2="-995" y2="1650.6"/>
	<line class="st24" x1="-1135.2" y1="1604.6" x2="-1203" y2="1702.9"/>
	
		<text transform="matrix(0.7511 -0.4206 0.4907 0.8713 -1170.9075 1607.6305)" class="st2" style="fill:#545454; font-size:31.7223px;">G</text>
	
		<text transform="matrix(0.7548 -0.4126 0.4831 0.8756 -1151.8374 1596.9789)" class="st2" style="fill:#545454; font-size:31.5676px;">r</text>
	
		<text transform="matrix(0.7456 -0.4081 0.4801 0.8772 -1141.8976 1591.4702)" class="st2" style="fill:#545454; font-size:31.77px;">e</text>
	
		<text transform="matrix(0.7486 -0.4026 0.4736 0.8807 -1127.0176 1583.3303)" class="st2" style="fill:#545454; font-size:31.7667px;">y</text>
	
		<text transform="matrix(0.7614 -0.3778 0.4445 0.8958 -1106.3372 1572.1002)" class="st2" style="fill:#545454; font-size:31.77px;">W</text>
	
		<text transform="matrix(0.812 -0.2514 0.2957 0.9553 -1079.7971 1559.1097)" class="st2" style="fill:#545454; font-size:31.77px;">a</text>
	
		<text transform="matrix(0.8282 -0.1914 0.2251 0.9743 -1063.6674 1554.2401)" class="st2" style="fill:#545454; font-size:31.7667px;">t</text>
	
		<text transform="matrix(0.8489 -0.1298 0.1498 0.9887 -1052.6074 1551.5804)" class="st2" style="fill:#545454; font-size:31.8113px;">e</text>
	
		<text transform="matrix(0.8489 -4.256532e-02 5.007683e-02 0.9987 -1035.5371 1549.191)" class="st2" style="fill:#545454; font-size:31.7658px;">r</text>
	<text transform="matrix(1 0 0 1 -1070.9773 1660.53)" class="st2" style="font-size:47.65px;">19</text>
	<text transform="matrix(1 0 0 1 -1030.3773 1660.53)" class="st2" style="font-size:47.65px;">8</text>
	<text transform="matrix(1 0 0 1 -1397.3973 1950.85)" style="font-family:'Montserrat-SemiBold'; font-size:30.78px;">Se</text>
	<text transform="matrix(1 0 0 1 -1358.8973 1950.85)" style="font-family:'Montserrat-SemiBold'; font-size:30.78px;">c</text>
	<text transform="matrix(1 0 0 1 -1340.7972 1950.85)" style="font-family:'Montserrat-SemiBold'; font-size:30.78px;">t</text>
	<text transform="matrix(1 0 0 1 -1328.3073 1950.85)" style="font-family:'Montserrat-SemiBold'; font-size:30.78px;">or </text>
	<text transform="matrix(1 0 0 1 -1287.0372 1950.85)" style="font-family:'Montserrat-SemiBold'; font-size:30.78px;">r</text>
	<text transform="matrix(1 0 0 1 -1274.4174 1950.85)" style="font-family:'Montserrat-SemiBold'; font-size:30.78px;">esponsible </text>
	<text transform="matrix(1 0 0 1 -1095.0073 1950.85)" style="font-family:'Montserrat-SemiBold'; font-size:30.78px;">f</text>
	<text transform="matrix(1 0 0 1 -1083.8973 1950.85)" style="font-family:'Montserrat-SemiBold'; font-size:30.78px;">or </text>
	<text transform="matrix(1 0 0 1 -1042.6273 1950.85)" style="font-family:'Montserrat-SemiBold'; font-size:30.78px;">w</text>
	<text transform="matrix(1 0 0 1 -1014.8673 1950.85)" style="font-family:'Montserrat-SemiBold'; font-size:30.78px;">a</text>
	<text transform="matrix(1 0 0 1 -996.1874 1950.85)" style="font-family:'Montserrat-SemiBold'; font-size:30.78px;">t</text>
	<text transform="matrix(1 0 0 1 -983.6874 1950.85)" style="font-family:'Montserrat-SemiBold'; font-size:30.78px;">er </text>
	<text transform="matrix(1 0 0 1 -943.1273 1950.85)" style="font-family:'Montserrat-SemiBold'; font-size:30.78px;">f</text>
	<text transform="matrix(1 0 0 1 -932.0173 1950.85)" style="font-family:'Montserrat-SemiBold'; font-size:30.78px;">ootp</text>
	<text transform="matrix(1 0 0 1 -858.1573 1950.85)" style="font-family:'Montserrat-SemiBold'; font-size:30.78px;">r</text>
	<text transform="matrix(1 0 0 1 -845.3873 1950.85)" style="font-family:'Montserrat-SemiBold'; font-size:30.78px;">int:</text>
	<text transform="matrix(1 0 0 1 -861.0173 2026.4399)" class="st2" style="font-size:30.23px;">Industrial - internal</text>
	<text transform="matrix(1 0 0 1 -861.0173 2098.99)" class="st2" style="font-size:30.23px;">Industrial - external</text>
	<path class="st9" d="M-1384.5,2018.2c0.2,11.8,9.9,21.2,21.7,21c11.8-0.2,21.2-9.9,21-21.7c-0.2-11.7-9.7-21-21.3-21
		C-1375,1996.6-1384.6,2006.3-1384.5,2018.2z"/>
	<path class="st8" d="M-977,2014.1c0.2,11.8,9.9,21.2,21.7,21s21.2-9.9,21-21.7c-0.2-11.7-9.7-21-21.3-21
		C-967.5,1992.5-977.1,2002.2-977,2014.1z"/>
	<path class="st5" d="M-977,2086.5c0.2,11.8,9.9,21.2,21.7,21s21.2-9.9,21-21.7c-0.2-11.7-9.7-21-21.3-21
		C-967.5,2064.9-977.1,2074.6-977,2086.5z"/>
	<path class="st15" d="M-1384.5,2077.4c0.2,11.8,9.9,21.2,21.7,21c11.8-0.2,21.2-9.9,21-21.7c-0.2-11.7-9.7-21-21.3-21
		C-1375,2055.8-1384.6,2065.5-1384.5,2077.4z"/>
	<path class="st10" d="M-1384.5,2143.6c0.2,11.8,9.9,21.2,21.7,21c11.8-0.2,21.2-9.9,21-21.7c-0.2-11.7-9.7-21-21.3-21
		C-1375,2122-1384.6,2131.7-1384.5,2143.6L-1384.5,2143.6z"/>
	<text transform="matrix(1 0 0 1 -1308.7872 2087.72)" class="st2" style="font-size:30.23px;">Agriculture - internal</text>
	<text transform="matrix(1 0 0 1 -1310.7373 2151.51)" class="st2" style="font-size:30.23px;">Agriculture - external</text>
	<text transform="matrix(1 0 0 1 -1305.9174 2027.98)" class="st2" style="font-size:30.23px;">Domestic</text>
	<text transform="matrix(6.123234e-17 -1 1 6.123234e-17 -163.3573 1865.6406)" class="st2" style="font-size:42.69px;">Yearly water consumption per capita (cubic meters)</text>
</g>
<g id="ReferenceMarkLine">
	<line class="st25" x1="-48.2" y1="315.2" x2="48.2" y2="315.2"/>
	<text transform="matrix(1 0 0 1 -98.0673 1482.97)" class="st2" style="font-size:35px;">1000</text>
	<line class="st26" x1="0" y1="2689.6" x2="0" y2="55.9"/>
	<line class="st25" x1="0" y1="2689.6" x2="0" y2="55.9"/>
	<path d="M-4.1,46.4c-2,6.6-3.8,10.9-6,16.2h20.2c-2.3-5.3-4.3-10.7-6-16.2C2.3,40.7,0.9,34.8,0,28.8C-0.9,34.8-2.3,40.7-4.1,46.4z"
		/>
	<line class="st25" x1="-48.2" y1="1496.2" x2="48.2" y2="1496.2"/>
	<line class="st25" x1="-13.6" y1="2445.2" x2="13.8" y2="2445.2"/>
	<line class="st25" x1="-13.6" y1="2328.2" x2="13.8" y2="2328.2"/>
	<line class="st25" x1="-13.6" y1="2210.2" x2="13.8" y2="2210.2"/>
	<line class="st25" x1="-13.6" y1="2564.2" x2="13.8" y2="2564.2"/>
	<line class="st25" x1="-13.6" y1="2088.2" x2="13.8" y2="2088.2"/>
	<line class="st25" x1="-13.6" y1="1971.2" x2="13.8" y2="1971.2"/>
	<line class="st25" x1="-13.6" y1="1852.2" x2="13.8" y2="1852.2"/>
	<line class="st25" x1="-13.6" y1="1731.2" x2="13.8" y2="1731.2"/>
	<line class="st25" x1="-13.6" y1="1613.2" x2="13.8" y2="1613.2"/>
	<line class="st25" x1="-13.6" y1="1382.2" x2="13.8" y2="1382.2"/>
	<line class="st25" x1="-13.6" y1="1268.2" x2="13.8" y2="1268.2"/>
	<line class="st25" x1="-13.6" y1="1151.2" x2="13.8" y2="1151.2"/>
	<line class="st25" x1="-13.6" y1="1030.2" x2="13.8" y2="1030.2"/>
	<line class="st25" x1="-13.6" y1="919.2" x2="13.8" y2="919.2"/>
	<line class="st25" x1="-13.6" y1="798.2" x2="13.8" y2="798.2"/>
	<line class="st25" x1="-13.6" y1="677.2" x2="13.8" y2="677.2"/>
	<line class="st25" x1="-13.6" y1="557.2" x2="13.8" y2="557.2"/>
	<line class="st25" x1="-13.6" y1="438.2" x2="13.8" y2="438.2"/>
	<text transform="matrix(1 0 0 1 -100.0673 302.46)" class="st2" style="font-size:35px;">2000</text>
	<text transform="matrix(1 0 0 1 -40.6674 2676.02)" class="st2" style="font-size:36px;">0</text>
	<line class="st25" x1="-48.2" y1="2690.2" x2="48.2" y2="2690.2"/>
	<text transform="matrix(1 0 0 1 -790.9573 85)" class="st2 st3">USA</text>
</g>
</svg>
