<?xml version="1.0" encoding="utf-8"?>
<!-- Generator: Adobe Illustrator 23.0.3, SVG Export Plug-In . SVG Version: 6.00 Build 0)  -->
<svg version="1.1" id="Layer_1" xmlns="http://www.w3.org/2000/svg" xmlns:xlink="http://www.w3.org/1999/xlink" x="0px" y="0px"
	 viewBox="0 0 1460.6 2759.3" style="enable-background:new 0 0 1460.6 2759.3;" xml:space="preserve">
<style type="text/css">
	.st0{fill:none;stroke:#877D77;stroke-width:4;stroke-miterlimit:10;}
	.st1{fill:none;stroke:#877D77;stroke-width:4;stroke-miterlimit:10;stroke-dasharray:7,3;}
	.st2{fill:none;stroke:#BFBFBF;stroke-width:2;stroke-miterlimit:10;stroke-dasharray:3,2;}
	.st3{fill:#EA877D;}
	.st4{fill:none;stroke:#71BABF;stroke-width:4;stroke-miterlimit:10;}
	.st5{fill:none;stroke:#71BABF;stroke-width:4;stroke-miterlimit:10;stroke-dasharray:7,3;}
	.st6{font-family:'Montserrat-Regular';}
	.st7{font-size:48px;}
	.st8{letter-spacing:-2.1;}
	.st9{fill:#FFB000;}
	.st10{fill:none;stroke:#85B645;stroke-width:4;stroke-miterlimit:10;}
	.st11{fill:none;stroke:#85B645;stroke-width:4;stroke-miterlimit:10;stroke-dasharray:7,3;}
	.st12{fill:#DD6553;}
	.st13{fill:none;stroke:#71BABF;stroke-width:4;stroke-dasharray:7,3;}
	.st14{fill:#BF6DA0;}
	.st15{fill:#FFCD71;}
	.st16{font-size:100px;}
	.st17{fill:none;stroke:#71BABF;stroke-width:3;stroke-miterlimit:10;stroke-dasharray:7,3;}
	.st18{fill:none;stroke:#877D77;stroke-width:3;stroke-miterlimit:10;stroke-dasharray:7,3;}
	.st19{fill:none;stroke:#969696;stroke-width:4;stroke-miterlimit:10;}
	.st20{fill:#FFFFFF;stroke:#686868;stroke-width:4;stroke-miterlimit:10;}
	.st21{fill:none;stroke:#000000;stroke-miterlimit:10;stroke-dasharray:7,3;}
	.st22{fill:none;stroke:#000000;stroke-miterlimit:10;}
	.st23{fill:none;stroke:#000000;stroke-width:4;stroke-miterlimit:10;}
	.st24{fill:none;}
</style>
<g id="ReferenceMarkLine_1_">
	<path class="st0" d="M679.2,2653.1c-1.7,6.9-2.7,14-3,21.1"/>
	<path class="st1" d="M850.2,2672.8c-7.4-5.1-14.5-10.7-21.3-16.6c-12.6-10.9-14.2-13.2-25.1-22.3c-12.8-11-22.7-17.5-31.2-21.4
		c-5.6-2.6-17.2-7.4-35-5.5c-5.1,0.8-10.1,2.2-15,3.9c-5.7,2.1-11.8,5.5-16.8,8.1c-4.7,2.5-12.1,8.2-18.7,16.5
		c-3.8,4.8-6.3,11.2-7.9,17.5"/>
	<path class="st0" d="M274.9,2527.4c-2,7.8-3.1,15.9-3.4,23.9"/>
	<path class="st1" d="M470.3,2550.9c-8.9-6.2-17.5-12.9-25.8-20c-14.3-12.4-16-15-28.5-25.3c-14.5-12.5-25.7-19.8-35.3-24.3
		c-6.3-2.9-19.5-8.4-39.6-6.2c-5.8,0.9-11.5,2.4-17,4.4c-6.5,2.4-13.4,6.2-19,9.2c-5.4,2.8-13.7,9.3-21.2,18.7
		c-4.3,5.4-7.1,12.7-9,19.9"/>
	<line class="st2" x1="469.6" y1="2551.6" x2="1.2" y2="2551.6"/>
	<line class="st2" x1="336.8" y1="2416" x2="336.8" y2="2490.7"/>
	<path class="st3" d="M398,2551.1c0.1,33.8-27.3,61.3-61.1,61.3c-33.8,0.1-61.3-27.3-61.3-61.1c-0.1-33.8,27.3-61.3,61.1-61.3
		c0.1,0,0.1,0,0.2,0C370.6,2490,398,2517.3,398,2551.1z"/>
	<path class="st0" d="M449.9,2551.8c-6.8-4.9-15.7-11.1-24-18.3c-12.6-10.9-14.2-13.2-25.1-22.4c-12.8-11-22.7-17.5-31.2-21.4
		c-5.6-2.6-17.2-7.4-35-5.5c-5.1,0.8-10.1,2.1-15,3.9c-5.7,2.1-11.8,5.5-16.8,8.1c-4.7,2.5-12.1,8.2-18.7,16.5
		c-10.7,13.4-12.6,38.5-12.6,38.5"/>
	<path class="st4" d="M270,2536.9c0.5,4.9,1.1,10.7,1.5,14.4"/>
	<path class="st5" d="M272.7,2500c-1.9,5.1-3.1,10.4-3.5,15.8c-0.3,7.1,0,14.1,0.9,21.1"/>
	<path class="st5" d="M335.5,2415.1c-4.9,6.8-8.9,13.2-16.3,21.4c-11.7,13-10.1,12-19.3,22.9c-11,12.8-19.5,23.2-23.4,31.7
		c-1.4,2.9-2.7,5.9-3.8,8.9"/>
	<text transform="matrix(0.97 0 0 1 308.3066 2572.4004)" class="st6 st7 st8">113</text>
	<line class="st2" x1="2.6" y1="356" x2="699.9" y2="356"/>
	<line class="st2" x1="184.9" y1="196.6" x2="184.9" y2="295.5"/>
	<path class="st9" d="M246.1,356.9c0,33.7-27.2,61-60.8,61.1c-33.6,0-60.8-25.3-60.8-59.1s27.2-63.1,60.8-63.1
		C218.9,295.9,246.2,323.2,246.1,356.9z"/>
	<text transform="matrix(0.97 0 0 1 139.2861 376.3794)" class="st6 st7 st8">1970</text>
	<path class="st0" d="M257.2,324.6c-2.3-2.1-4.9-4.3-8.5-7.3c-12.7-11-22.6-17.5-31-21.4c-5.5-2.6-17.1-7.4-34.7-5.5
		c-5.1,0.8-10.1,2.1-14.9,3.9c-5.6,2.1-11.7,5.5-16.6,8.1c-4.7,2.5-12,10.2-18.6,18.5c-10.6,13.4-10.9,40.1-10.8,38.7"/>
	<path class="st1" d="M294.9,355.2c-7.3-5.1-14.4-10.7-21.1-16.5c-8.4-7.3-11.8-10.8-16.5-15"/>
	<path class="st4" d="M185.4,221.4c-4.8,6.8-8.9,13.2-16.2,21.4c-11.6,13-10.1,12-19.2,22.9c-11,12.8-19.3,25.2-23.2,33.7
		c-1.3,2.8-6.5,12.8-7.3,24.7s1.5,25.3,2.4,34.1"/>
	<path class="st4" d="M125.3,287.9l-0.2,0.6c-1.3,3.2-6.6,14.9-7.4,28.7c-0.7,11.8,3.2,29.7,4.4,42"/>
	<path class="st4" d="M159.4,235.4c-3.2,4.1-5.1,6.6-10.7,14.2c-10.9,14.6-19.4,28.6-23.4,38.3"/>
	<path class="st5" d="M185.1,197c-4.9,8-8.6,15.8-16,25.3c-4.7,6-7.4,9.4-9.6,12.1"/>
	<path class="st10" d="M122.1,359.2c0.3,9.7,2.3,40.3,18.6,62.6c10.3,14,22.3,20.2,29.6,24.4c11.1,6.4,23.3,10.4,36,12
		c27.5,3.2,48.6-7,57.3-11.4c13.1-6.6,27-17.2,46.8-35.8c0,0,43.8-38.8,80-54.7"/>
	<path class="st10" d="M122.1,359.2c0.2,8,0,33.7,15,52.1c7.3,9,16.4,16.4,26.6,21.8c14.6,7.6,33.2,12.3,38.2,12.8
		c17.6,1.9,35.4-1,51.5-8.3c12-5.4,23.7-14.2,41.8-29.5c0,0,14.7-12.2,32.4-25.8c12.2-9.4,25-20.3,39-25.5"/>
	<path class="st10" d="M122,359.5c0.2,7,0.2,29,13.7,45c8.5,10,18.6,15.2,24.7,18.2c6.3,3.2,13.9,7,21.2,9.6
		c5.7,2,11.7,3.5,17.7,4.4c22.6,2.3,37.7-5.1,44.8-8.2c10.8-4.7,22.7-12.4,39.1-25.7c0,0,11.9-11.1,28-23
		c11.1-8.2,22.2-18,31.8-23.4"/>
	<path class="st10" d="M122.1,359.6c0.2,6.2-1.6,26.5,10.5,40.8c7.6,9,16,13.2,21.4,15.9c5.7,2.8,12.6,6.5,19.2,8.8
		c5.6,1.9,11.3,3.4,17.2,4.2c20.3,2.1,33.6-3.1,40-5.9c9.7-4.2,21-11.3,35.7-23.2c12.6-9.9,14.3-12.4,28.8-24.2
		c9.5-7.8,16-14,23.9-19.2"/>
	<path class="st10" d="M122.1,359.6c0.2,5.7,0.3,23.9,10.8,37c6.6,8.3,13.9,11.9,18.6,14.4c4.9,2.6,11,5.9,16.6,8
		c4.8,1.8,9.8,3.1,14.9,3.9c17.6,1.9,29.2-2.9,34.7-5.4c8.4-3.9,18.2-10.3,31-21.3c10.9-9.1,12.5-11.4,25-22.2
		c8.3-7.2,14.3-13.1,21.1-17.9"/>
	<path class="st10" d="M122.1,359.2c0.3,10.6,3.7,42.1,21.5,66.4c8.7,11.7,19.7,21.5,32.3,28.8c12.1,7,25.4,11.4,39.2,13.1
		c29.9,3.5,53-7.7,62.4-12.4c14.3-7.2,29.4-18.8,51-39c0,0,47.8-42.2,87.2-59.6"/>
	<path class="st10" d="M122.1,359.2c0.3,11.4-0.3,46.3,18.8,72.4c12,16.4,28.2,25.6,36.8,30.5c18.7,10.7,36.5,12.5,42.9,13.2
		c32.1,3.8,56.8-8.2,66.9-13.3c15.4-7.7,32.6-20.6,55.8-42.3c0,0,53.2-44.3,95.5-62.9"/>
	<path class="st10" d="M122.1,359.2c0.3,12.2-1.2,49.6,19.4,77.5c12.9,17.6,30.6,29,39.8,34.3c20.1,11.5,39.6,12,46.4,12.8
		c34.4,4,61-8.8,71.8-14.3c16.5-8.3,33.4-19.7,58.3-42.9c0,0,58.5-50.1,103.9-70"/>
	<path class="st10" d="M122.1,359.6c0.4,12.6-1.7,50.4,20.2,79.5c13.8,18.3,32.5,32,42.3,37.5c21.5,12,42.7,13.2,50,14
		c36.8,4.2,65.5-10.4,77.1-16.1c17.6-8.6,36-20.9,62.7-45.1c0,0,62.2-51.6,110.7-72.3"/>
	<path class="st10" d="M122.1,359.6c0.4,13.5-3.4,53.8,20,84.7c14.6,19.4,34.8,34.4,45.3,40.2c22.8,12.7,46.7,13.5,54.4,14.4
		c39.1,4.5,69.6-11.1,82-17.1c18.7-9.1,37.7-21.8,66-47.6c0,0,67.7-55.2,119.2-77.2"/>
	<path class="st10" d="M122,359.5c0.4,14.2-3,58.8,21.7,91.5c15.5,20.6,36.4,35.5,47.5,41.7c24.2,13.5,49.2,14.4,57.4,15.3
		c41.4,4.7,73.9-12.5,87-18.9c19.8-9.7,41.4-24.1,71.4-51.4c0,0,72.2-57.9,126.8-81.2"/>
	<path class="st10" d="M122,359.5c0.4,15-4.6,62.6,21.4,97.2c16.4,21.7,40.5,37.8,52.2,44.3c25.5,14.2,51.1,14.8,59.8,15.8
		c43.7,5,78.1-13.8,91.9-20.5c20.9-10.2,43.7-24.4,75.3-53.1c0,0,77.2-61.8,134.8-86.4"/>
	<path class="st10" d="M122,359.5c0.5,15.8-5.4,67.1,22.1,103.5c17.2,22.9,42.2,39.1,54.5,46c26.9,15,54.5,16.1,63.6,17.2
		c46.1,5.3,82.7-15.2,97.2-22.3c22.1-10.8,45.8-25.8,79.1-56.1c0,0,83-65.3,143.7-91.2"/>
	<path class="st10" d="M122,359.5c0.5,16.6-7,71.1,21.7,109.2c18,23.9,45.2,41.5,58.1,48.7c28.1,15.7,57.5,16.9,67,18
		c48.2,5.5,86.3-17.3,101.5-24.7c23.1-11.2,48-27.2,82.9-58.8c0,0,88.6-67.8,152.1-94.9"/>
	<path class="st10" d="M122,359.5c0.5,17.3-8.9,73.7,21.1,113.5c18.9,25,48.9,44,62.3,51.5c29.4,16.4,60.4,18.4,70.4,19.5
		c50.3,5.8,89.8-18.9,105.7-26.6c24.1-11.7,50.3-28.6,86.7-61.7c0,0,94.7-70.4,161.1-98.8"/>
	<path class="st10" d="M122,359.5c0.5,18.1-9.6,78.3,21.7,119.8c19.7,26.1,51.3,45.5,65.4,53.3c30.7,17.1,62.4,19.4,72.8,20.6
		c52.6,6,94.6-20.5,111.2-28.6c25.2-12.3,52.1-28.5,90.2-63.1c0,0,101.2-75.3,170.5-105"/>
	<path class="st10" d="M122,359.5c0.5,18.9-8.2,86,24.6,129.5c20.6,27.3,51,44.3,65.7,52.5c32.1,17.9,65.8,21.2,76.7,22.5
		c55,6.3,99.2-23.3,116.5-31.8c26.3-12.8,54.5-29.8,94.3-66c0,0,104.1-78.3,176.6-109.3"/>
	<path class="st11" d="M148,495.4c21.5,28.5,52,46.1,67.4,54.7c33.5,18.7,67.9,21,79.3,22.3c57.4,6.6,104.9-24.8,123-33.6
		c27.5-13.4,56.9-31.1,98.4-68.8c0,0,109.3-81.7,184.9-114"/>
	<path class="st10" d="M122,359.5c0.6,19.7-8.1,91.5,26,136.8"/>
	<line class="st2" x1="-0.1" y1="2674" x2="848.9" y2="2674"/>
	<line class="st2" x1="737.9" y1="2540.1" x2="737.9" y2="2613.5"/>
	<path class="st12" d="M799.1,2674.9c0,33.7-27.2,61-60.8,61.1c-33.6,0-60.8-25.4-60.8-59.1s27.2-63.1,60.8-63.1
		C772,2613.9,799.2,2641.2,799.1,2674.9z"/>
	<text transform="matrix(0.97 0 0 1 720.3164 2696.4004)" class="st6 st7 st8">15</text>
	<path class="st4" d="M673.7,2666.2c0.5,3.7,0.9,7.1,1.2,10.1"/>
	<path class="st13" d="M738.4,2539.4c-4.8,6.8-8.9,13.2-16.2,21.4c-11.6,13-10.1,12-19.2,22.9c-11,12.8-19.3,25.2-23.2,33.7
		c-1.3,2.8-6.5,12.8-7.3,24.7c-0.5,8,0.3,16.6,1.2,24.1"/>
	<line class="st2" x1="648" y1="2621.7" x2="-0.1" y2="2621.7"/>
	<path class="st14" d="M598.7,2621.7c-0.2,33.6-27.5,60.6-61.1,60.4c-33.6-0.2-60.6-27.5-60.4-61.1c0.2-33.4,27.3-60.4,60.8-60.4
		C571.6,2560.7,598.8,2588,598.7,2621.7L598.7,2621.7z"/>
	<line class="st2" x1="539.4" y1="2487.1" x2="539.4" y2="2561.8"/>
	<path class="st0" d="M538.9,2554.9c-1.1,0.1-2.1,0.2-3.2,0.3c-5.1,0.8-10.1,2.1-14.9,3.9c-5.7,2.1-11.7,5.5-16.6,8.1
		c-4.7,2.5-12,8.2-18.6,16.5c-10.6,13.4-10.8,38.6-10.8,38.6"/>
	<path class="st1" d="M648,2621.7c-1.2-1-2.3-2-3.6-3.1c-12.5-10.9-32.2-27.5-43.2-36.6c-12.7-11-22.5-17.5-31-21.4
		c-9.8-4.6-20.6-6.6-31.5-5.8"/>
	<path class="st4" d="M472.3,2588.3c-0.5,11.5,1.5,24.2,2.4,32.7"/>
	<path class="st5" d="M475.7,2572.1c-1.8,5.1-2.9,10.4-3.3,15.8c0,0.5,0,0.9-0.1,1.4"/>
	<path class="st5" d="M538,2486.2c-4.8,6.8-8.8,13.2-16.2,21.4c-11.6,13-10.1,11.9-19.1,22.9c-11,12.8-19.3,23.2-23.2,31.7
		c-1.4,2.9-2.7,5.9-3.8,8.9"/>
	<text transform="matrix(0.97 0 0 1 512.2861 2641.4395)" class="st6 st7 st8">58</text>
	<line class="st2" x1="0.9" y1="2496" x2="251.7" y2="2496"/>
	<line class="st2" x1="119.9" y1="2360.7" x2="119.9" y2="2435.5"/>
	<path class="st4" d="M105,2481.5c0.6,6.2,1.5,12.1,2,16.7"/>
	<path class="st5" d="M120.4,2359.4c-4.8,6.8-8.9,13.2-16.2,21.4c-11.6,13-10.1,11.9-19.2,22.9c-11,12.8-19.3,25.2-23.2,33.7
		c-1.3,2.8-6.5,12.8-7.3,24.7c-0.3,5.8-0.2,11.6,0.5,17.4"/>
	<path class="st11" d="M108.6,2564.4c5,1.8,10.2,3,15.5,3.5c22.3,1.2,34.8-3.8,41.2-6.5c9.7-4.2,21-11.3,35.7-23.2
		c12.6-9.9,14.4-12.4,28.8-24.2c9.5-7.8,16-14,23.9-19.2"/>
	<path class="st10" d="M56.9,2496.2c0.2,6.2-1.4,27.9,10.7,42.2c7.6,9,17.6,16.3,23,19c5.7,2.8,11.5,4.7,18,7"/>
	<path class="st10" d="M56.9,2496.2c0.2,5.7,0.5,25.3,11,38.4c5.5,6.7,12.1,12.4,19.7,16.6c4.9,2.6,8.1,4.9,13.8,7
		c5.4,1.8,11.1,3.1,16.8,3.8c17.6,1.9,29.1-3.8,34.7-6.4c8.4-3.9,18.2-10.3,31-21.3c10.9-9.1,12.5-11.4,25-22.2
		c8.3-7.2,14.3-13.1,21.1-17.9"/>
	<path class="st15" d="M61.3,2496.1c0,33.7,27.3,61.1,61.1,61.1c33.7,0,61.1-27.3,61.1-61.1c0-33.7-27.3-61.1-61.1-61.1l0,0
		C88.6,2435,61.3,2462.3,61.3,2496.1z"/>
	<text transform="matrix(0.97 0 0 1 88.7861 2515.8799)" class="st6 st7 st8">158</text>
	<path class="st0" d="M60.2,2476.4c-1.7,6.5-2.8,13.1-3.3,19.8"/>
	<path class="st1" d="M230.9,2494.8c-7.4-5.1-14.5-10.7-21.3-16.6c-12.6-10.9-14.1-13.2-25.1-22.3c-12.8-11-22.7-17.5-31.2-21.4
		c-5.6-2.6-17.2-7.4-35-5.5c-5.1,0.8-10.1,2.1-15,3.9c-5.5,2.1-11,4.7-16.2,7.5c-4.7,2.5-12.5,8.9-18.8,17.5
		c-3.9,5.3-6.5,12.1-8.2,18.5"/>
	<text transform="matrix(1 0 0 1 475.1667 94.9998)" class="st6 st16">AUSTRALIA</text>
</g>
<title>VIZ2-USA</title>
<title>VIZ2-USA</title>
<g>
	<g id="USA_IND_IN">
		<line class="st2" x1="-455.4" y1="2449.6" x2="-1.4" y2="2449.6"/>
		<line class="st2" x1="-323.3" y1="2315.1" x2="-323.3" y2="2389.7"/>
		<path class="st12" d="M-382.9,2449.6c0,33.7,27.3,61.1,61.1,61.1c33.7,0,61.1-27.3,61.1-61.1c0-33.7-27.3-61.1-61.1-61.1l0,0
			C-355.6,2388.6-382.9,2415.9-382.9,2449.6z"/>
		<path class="st1" d="M-395.6,2400.3c-2.3,1.8-4.8,3.7-7.3,5.7c-12.6,9.9-14.4,12.4-28.9,24.3c-9.6,7.9-16.1,14.1-24,19.4"/>
		<path class="st0" d="M-258.3,2448.9c0,0,1.7-26.6-10.6-41.1c-5.6-6.9-12.2-12.9-19.6-18c-4.4-3-14.1-7.4-20.7-9.7
			c-7.1-2.5-15.7-3.2-17.8-3.4c-20.3-2.1-33.7,3.1-40.2,5.9c-8.1,3.5-17.3,9-28.6,17.6"/>
		<path class="st0" d="M-431.8,2448.9c7.4-5.1,14.5-10.7,21.2-16.6c12.6-10.9,14.1-13.2,25.1-22.3c12.8-11,22.7-17.5,31.1-21.4
			c5.6-2.6,17.2-7.4,34.9-5.5c5.1,0.8,10.1,2.1,15,3.9c5.7,2.1,11.8,5.5,16.7,8.1c4.7,2.5,12.1,8.2,18.7,16.5
			c10.6,13.4,10.9,38.6,10.9,38.6"/>
		<path class="st4" d="M-259.3,2399c1.9,5.1,3.1,10.4,3.5,15.8c0.8,11.9-1.5,25.3-2.4,34.1"/>
		<path class="st5" d="M-321.9,2314.1c4.8,6.8,8.9,13.2,16.2,21.4c11.7,13,10.1,12,19.2,22.9c11,12.8,19.4,23.2,23.3,31.7
			c0.6,1.4,2.3,4.6,3.8,8.9"/>
		<line class="st2" x1="-649.8" y1="2518.6" x2="-2.4" y2="2518.6"/>
		<line class="st2" x1="-517.3" y1="2383.1" x2="-517.3" y2="2457.7"/>
	</g>
	<g id="USA_DM">
		<line class="st2" x1="-836.4" y1="2552.6" x2="0.2" y2="2552.6"/>
		<line class="st2" x1="-729.3" y1="2418.1" x2="-729.3" y2="2492.7"/>
		<circle class="st14" cx="-727.8" cy="2552.6" r="61.1"/>
		<path class="st0" d="M-820.2,2538.4c1.2-1,2.3-2,3.6-3.1c12.6-10.9,14.1-13.2,25.1-22.3c12.8-11,22.7-17.5,31.1-21.4
			c5.6-2.6,17.2-7.4,34.9-5.5c5.1,0.8,10.1,2.1,15,3.9c5.7,2.1,11.8,5.5,16.7,8.1c4.7,2.5,12,8.2,18.7,16.5
			c10.6,13.4,10.9,38.6,10.9,38.6"/>
		<path class="st1" d="M-837.8,2551.9c5.8-4.1,11.1-8,17.7-13.5"/>
		<path class="st4" d="M-661.7,2519.2c0.5,11.5-1.6,24.2-2.5,32.7"/>
		<path class="st17" d="M-665.3,2502c1.9,5.1,3.1,10.4,3.5,15.8c0,0.5,0.1,0.9,0.1,1.4"/>
		<path class="st5" d="M-727.9,2417.1c4.8,6.8,8.9,13.2,16.2,21.4c11.7,13,10.1,12,19.2,22.9c11,12.8,19.4,23.2,23.3,31.7
			c0.6,1.4,2.3,4.6,3.8,8.9"/>
		<text transform="matrix(1 0 0 1 -751.0473 2571.3899)" class="st6 st7">11</text>
		<text transform="matrix(1 0 0 1 -722.0573 2571.3899)" class="st6 st7">1</text>
	</g>
	<g id="USA_IND_EX">
		<line class="st2" x1="-212.8" y1="2030.2" x2="-212.8" y2="2105.1"/>
		<path class="st3" d="M-578.4,2518.1c0,33.7,27.3,61.1,61.1,61.1c33.7,0,61.1-27.3,61.1-61.1c0-33.7-27.3-61.1-61.1-61.1l0,0
			C-551.1,2457-578.4,2484.4-578.4,2518.1z"/>
		<text transform="matrix(1 0 0 1 -550.5473 2539.3501)" class="st6 st7">13</text>
		<text transform="matrix(1 0 0 1 -511.8073 2539.3501)" class="st6 st7">8</text>
		<path class="st18" d="M-589.6,2468.3c-2.3,1.8-4.8,3.7-7.3,5.7c-12.6,9.9-14.4,12.4-28.9,24.3c-9.6,7.9-16.1,14.1-24,19.4"/>
		<path class="st1" d="M-487.6,2455.8c-5.3-3-10.9-5.6-16.6-7.6c-5.4-1.8-11-2.9-16.7-3.4c-20.3-2.1-33.7,3.1-40.2,5.9
			c-8.1,3.5-17.3,9-28.6,17.6"/>
		<path class="st0" d="M-452.3,2516.9c-0.1-1.7,1.8-26.5-10.6-41.1c-7.6-9.1-16.5-14.5-21.5-18c-0.9-0.7-2-1.4-3.2-2.1"/>
		<path class="st0" d="M-625.8,2516.9c7.4-5.1,14.5-10.7,21.2-16.6c12.6-10.9,14.1-13.2,25.1-22.3c12.8-11,22.7-17.5,31.1-21.4
			c5.6-2.6,17.2-7.4,34.9-5.5c5.1,0.8,10.1,2.1,15,3.9c5.7,2.1,11.8,5.5,16.7,8.1c4.7,2.5,12.1,8.2,18.7,16.5
			c10.7,13.4,10.9,36,10.9,38.6"/>
		<path class="st4" d="M-450.6,2503.9c-0.5,4.8-1.2,9.3-1.6,13"/>
		<path class="st17" d="M-453.3,2467c1.9,5.1,3.1,10.4,3.5,15.8c0.3,7.1,0,14.1-0.9,21.1"/>
		<path class="st5" d="M-515.9,2382.1c4.8,6.8,8.9,13.2,16.2,21.4c11.7,13,10.1,12,19.2,22.9c11,12.8,19.4,23.2,23.3,31.7
			c0.6,1.4,2.3,4.6,3.8,8.9"/>
	</g>
	<g id="Circle">
		<text transform="matrix(1 0 0 1 -357.2972 2471.53)" class="st6 st7">19</text>
		<text transform="matrix(1 0 0 1 -316.3972 2471.53)" class="st6 st7">6</text>
	</g>
	<g id="USA_AG_EX">
		<line class="st2" x1="-393.4" y1="2165.1" x2="-1.1" y2="2165.1"/>
		<path class="st15" d="M-275.1,2165.1c0,33.7,27.3,61.1,61.1,61.1c33.7,0,61.1-27.3,61.1-61.1c0-33.7-27.3-61.1-61.1-61.1l0,0
			C-247.7,2104-275.1,2131.4-275.1,2165.1z"/>
		<path class="st11" d="M-318.8,2218.6l-2.8-2.4c0,0-14.7-12.2-32.5-25.8c-12.3-9.4-25.1-20.3-39.2-25.5"/>
		<path class="st10" d="M-147.9,2165.3c-0.2,6.6-0.2,33.9-15,52.1c-9.4,11.6-20,20.4-26.8,23.8c-14.7,7.6-33.3,12.3-38.3,12.8
			c-17.7,1.9-35.5-1-51.7-8.3c-11.4-5.1-22.6-13.3-39.2-27.1"/>
		<path class="st10" d="M-147.9,2165.3c-0.2,5.6-0.3,29.6-13.7,45.4c-8.5,10.1-18.7,17.2-24.8,20.2c-6.3,3.1-14,7-21.3,9.6
			c-5.8,2-11.7,3.5-17.8,4.4c-22.8,2.3-37.8-5.1-45-8.2c-10.9-4.7-22.8-12.4-39.2-25.7c0,0-12-11.1-28.1-23
			c-11.1-8.2-22.3-18-32-23.4"/>
		<path class="st10" d="M-147.9,2165.3c-0.2,4.9,1.4,27.1-10.6,41.3c-7.6,9-16.1,15.2-21.5,17.9c-5.7,2.8-12.7,6.5-19.2,8.8
			c-5.6,1.9-11.4,3.4-17.2,4.2c-20.4,2.1-33.8-3.1-40.2-5.9c-9.8-4.2-21.1-11.2-35.8-23.2c-12.6-9.9-14.4-12.4-28.9-24.2
			c-9.6-7.8-16.1-14-24-19.2"/>
		<path class="st10" d="M-147.9,2165.3c-0.1,4.3-0.5,24.5-10.9,37.5c-6.6,8.3-13.9,13.9-18.7,16.4c-4.9,2.6-11,5.9-16.7,8
			c-4.9,1.8-9.9,3.1-15,3.9c-17.7,1.9-29.3-2.9-34.9-5.4c-8.5-3.9-18.3-10.3-31.1-21.3c-11-9.1-12.5-11.4-25.1-22.2
			c-8.3-7.2-14.3-13.1-21.2-17.9"/>
		<path class="st0" d="M-181.9,2106.1l3.5,1.9c4.8,2.5,12.3,8.9,19.6,18.9c11.7,16.1,11,38.5,11,38.5"/>
		<path class="st1" d="M-321.8,2165.2c7-4.5,19.9-17.2,28.7-24.3c13.2-10.7,15.2-12.5,26.7-21.3c13.4-10.8,22.6-16.3,31-19.3
			c2.4-0.9,14.6-4.6,27.7-2.3c10.8,1.8,22,4.8,25.8,8.2"/>
		<path class="st4" d="M-152.6,2105.5c3.3,7.9,5.3,16.2,5.9,24.7c0.8,11.9-0.2,26.2-1.1,35.1"/>
		<path class="st5" d="M-211.4,2029.5c4.8,6.8,8.9,13.2,16.2,21.4c11.7,13,10.1,12,19.2,22.9c11,12.8,19.4,23.2,23.3,31.7"/>
		<text transform="matrix(1 0 0 1 -254.5873 2185.6299)" class="st6 st7">43</text>
		<text transform="matrix(1 0 0 1 -201.4473 2185.6299)" class="st6 st7">7</text>
	</g>
	<g id="USA_AG_IN">
		<line class="st2" x1="-682.9" y1="366.6" x2="-2.6" y2="366.6"/>
		<line class="st2" x1="-191.3" y1="208.1" x2="-191.3" y2="306.7"/>
		<path class="st10" d="M-126.3,366.9c-0.3,9.7-2.3,40.3-18.7,62.6c-15.8,21.3-39.6,35.2-65.9,38.5c-27.6,3.2-48.8-7-57.5-11.4
			c-13.2-6.6-27.1-17.2-47-35.8c0,0-44-38.8-80.3-54.7"/>
		<path class="st10" d="M-126.3,366.9c-0.2,8,0,33.7-15,52.1c-9.4,11.5-20,20.3-26.8,23.8c-14.7,7.6-33.3,12.3-38.3,12.8
			c-17.7,1.9-35.5-1-51.7-8.3c-12-5.4-23.8-14.2-42-29.5c0,0-14.7-12.2-32.5-25.8c-12.3-9.4-25.1-20.3-39.1-25.5"/>
		<path class="st10" d="M-126.3,367.3c-0.2,7-0.2,29-13.7,45c-8.5,10-18.7,17.2-24.8,20.2c-6.3,3.2-14,7-21.3,9.6
			c-5.8,2-11.7,3.5-17.8,4.4c-22.8,2.3-37.8-5.1-45-8.2c-10.9-4.7-22.8-12.3-39.2-25.7c0,0-12-11.1-28.1-23
			c-11.1-8.2-22.3-18-32-23.4"/>
		<path class="st10" d="M-126.4,367.3c-0.2,6.2,1.6,26.5-10.5,40.8c-7.6,9-16.1,15.2-21.5,17.9c-5.7,2.8-12.7,6.5-19.2,8.8
			c-5.6,1.9-11.4,3.4-17.2,4.2c-20.4,2.1-33.8-3.1-40.2-5.9c-9.7-4.2-21.1-11.2-35.8-23.2c-12.6-9.9-14.4-12.4-28.9-24.2
			c-9.6-7.8-16.1-14-24-19.2"/>
		<path class="st10" d="M-126.4,367.3c-0.2,5.7-0.3,23.9-10.8,37c-6.6,8.3-14,13.9-18.7,16.4c-4.9,2.6-11,5.9-16.7,8
			c-4.9,1.8-9.9,3.1-15,3.9c-17.7,1.9-29.3-2.9-34.9-5.4c-8.5-3.9-18.3-10.3-31.1-21.3c-11-9.1-12.5-11.4-25.1-22.2
			c-8.3-7.2-14.3-13.1-21.2-17.9"/>
		<path class="st10" d="M-126.3,366.9c-0.3,10.6-3.7,44.1-21.7,68.4c-17.2,23.2-43.1,38.3-71.8,41.9c-30.1,3.5-53.2-7.7-62.7-12.4
			c-14.4-7.2-29.5-18.8-51.3-39c0,0-48-42.2-87.6-59.6"/>
		<path class="st10" d="M-126.3,366.9c-0.3,11.3,0.3,46.3-18.9,72.4c-12.1,16.4-28.3,27.6-36.9,32.5c-18.8,10.7-36.7,12.5-43.1,13.2
			c-32.2,3.8-57-8.2-67.2-13.3c-15.4-7.7-32.7-20.6-56.1-42.3c0,0-53.4-44.3-95.9-62.9"/>
		<path class="st10" d="M-126.3,366.9c-0.3,12.2,1.2,49.6-19.4,77.6c-13,17.6-30.8,31-40,36.3c-20.2,11.5-39.8,12-46.6,12.8
			c-34.6,4-61.2-8.8-72.1-14.2c-16.6-8.3-33.6-19.7-58.6-42.9c0,0-58.7-50.1-104.3-70"/>
		<path class="st10" d="M-126.4,367.3c-0.4,12.7,1.7,52.4-20.3,81.5c-13.8,18.3-32.6,32-42.5,37.5c-21.5,12-42.9,13.2-50.2,14
			c-37,4.2-65.8-10.4-77.4-16.1c-17.7-8.6-36.2-20.9-62.9-45.1c0,0-62.5-51.6-111.2-72.3"/>
		<path class="st10" d="M-126.4,367.3c-0.4,13.5,3.4,55.8-20,86.7c-14.7,19.4-35,34.4-45.5,40.2c-22.9,12.7-46.9,13.5-54.7,14.4
			c-39.3,4.5-69.9-11.1-82.3-17.1c-18.8-9.1-37.8-21.8-66.3-47.6c0,0-68-55.2-119.8-77.2"/>
		<path class="st10" d="M-126.3,367.3c-0.4,14.2,3,60.8-21.8,93.5c-15.6,20.6-36.5,35.5-47.7,41.7c-24.3,13.5-49.4,14.4-57.7,15.3
			c-41.6,4.7-74.2-12.5-87.3-18.9c-19.9-9.7-41.6-24.1-71.7-51.4c0,0-72.5-57.9-127.3-81.2"/>
		<path class="st10" d="M-126.3,367.3c-0.4,15,4.7,64.6-21.5,99.2c-16.4,21.7-40.7,37.8-52.4,44.3c-25.6,14.2-51.4,14.8-60.1,15.8
			c-43.9,5-78.4-13.8-92.3-20.5c-21-10.2-43.9-24.4-75.7-53.1c0,0-77.6-61.8-135.4-86.4"/>
		<path class="st10" d="M-126.3,367.3c-0.5,15.8,5.4,69.1-22.2,105.5c-17.3,22.9-42.4,39.1-54.8,46c-27,15-54.7,16.1-63.9,17.2
			c-46.3,5.3-83-15.3-97.6-22.3c-22.2-10.8-46-25.8-79.5-56.1c0,0-83.4-65.3-144.3-91.2"/>
		<path class="st10" d="M-126.3,367.3c-0.5,16.6,7,73.1-21.8,111.2c-18.1,23.9-45.4,41.5-58.3,48.7c-28.2,15.7-57.7,16.9-67.3,18
			c-48.4,5.5-86.7-17.3-102-24.8c-23.2-11.2-48.2-27.2-83.2-58.8c0,0-89-67.8-152.8-94.9"/>
		<path class="st10" d="M-126.3,367.3c-0.5,17.3,9,75.7-21.2,115.5c-18.9,25-49,44-62.6,51.5c-29.5,16.4-60.6,18.4-70.7,19.5
			c-50.6,5.8-90.2-18.8-106.2-26.6c-24.2-11.8-50.5-28.6-87.1-61.7c0,0-95.1-70.4-161.8-98.8"/>
		<path class="st10" d="M-126.3,367.3c-0.5,18.1,9.7,80.3-21.8,121.8c-19.8,26.1-51.5,45.5-65.7,53.3
			c-30.8,17.1-62.7,19.4-73.2,20.6c-52.8,6-95-20.5-111.7-28.6c-25.3-12.3-52.4-28.5-90.6-63.1c0,0-101.6-75.3-171.2-105"/>
		<path class="st10" d="M-126.3,367.3c-0.6,18.9,8.2,88-24.7,131.5c-20.7,27.3-51.2,44.3-66,52.5c-32.2,17.9-66,21.2-77,22.5
			c-55.2,6.3-99.6-23.3-117-31.8c-26.4-12.8-54.7-29.8-94.7-66c0,0-104.6-78.3-177.4-109.3"/>
		<path class="st9" d="M-250.9,366.7c0,33.7,27.3,61.1,61.1,61.1c33.7,0,61.1-27.3,61.1-61.1c0-33.7-27.3-61.1-61.1-61.1l0,0
			C-223.6,305.6-250.9,332.9-250.9,366.7z"/>
		<text transform="matrix(1 0 0 1 -236.0273 382.11)" class="st6 st7">196</text>
		<text transform="matrix(1 0 0 1 -168.7373 382.11)" class="st6 st7">0</text>
		<path class="st1" d="M-164.2,300.6l-0.5-0.3c-6.3-3.2-14-7.1-21.3-9.6c-5.8-2.1-11.7-3.5-17.8-4.4c-22.8-2.3-37.8,5.1-45,8.3
			c-10.9,4.8-22.8,12.4-39.2,25.8c0,0-12,11.2-28.1,23.1c-11.1,8.3-22.3,17.1-32,22.6"/>
		<path class="st0" d="M-126.3,365.9c0,0,1.7-26.6-10.6-41.1c-7.6-9-16-15.3-21.5-18c-5.7-2.8-12.7-6.5-19.2-8.8
			c-5.6-1.9-11.4-3.4-17.2-4.3c-20.3-2.1-33.7,3.2-40.2,6c-9.8,4.3-21.1,11.3-35.8,23.3c-12.6,9.9-14.4,12.5-28.9,24.3
			c-9.6,7.9-16.1,14.1-24,19.4"/>
		<path class="st0" d="M-299.8,365.9c7.4-5.1,14.5-10.7,21.2-16.5c12.6-10.9,14.1-13.2,25.1-22.3c12.8-11,22.7-17.5,31.1-21.4
			c5.6-2.6,17.2-7.4,34.9-5.5c5.1,0.8,10.1,2.1,15,3.9c5.7,2.1,11.8,5.5,16.7,8.1c4.7,2.5,12.1,8.2,18.7,16.5
			c10.6,13.4,10.8,38.3,10.8,38.3"/>
		<path class="st4" d="M-189.9,231.1c4.8,6.8,8.9,13.2,16.2,21.4c11.7,13,10.1,11.9,19.2,22.9c11,12.8,19.4,23.2,23.3,31.7
			c1.3,2.8,6.5,12.8,7.3,24.7c0.8,11.9-1.5,25.3-2.4,34.1"/>
		<path class="st4" d="M-129.6,295.6l0.2,0.6c1.3,3.2,6.6,14.9,7.5,28.7s-3.5,30.7-4.4,41"/>
		<path class="st5" d="M-189.6,207.7c4.9,8,8.6,15.8,16.1,25.3c11.9,15.1,11.1,13.6,20.4,26.4c11,14.6,19.4,26.5,23.5,36.3"/>
		<path class="st0" d="M-126.2,366c0,0-0.1-29.1-13.7-45.3c-8.3-9.8-18.2-16.9-24.3-20.1"/>
		<path class="st19" d="M-136.4,286"/>
	</g>
	<g id="NEW_Legend">
		<text transform="matrix(1 0 0 1 -1412.3573 1453.64)" style="font-family:'Montserrat-SemiBold'; font-size:42.69px;">How to read it:</text>
		<path class="st5" d="M-1032.8,1507.7c4.8,6.8,8.8,13.1,16.1,21.2c11.6,12.9,10,11.8,19.1,22.7c10.9,12.7,19.3,23,23.1,31.4"/>
		<path class="st20" d="M-1095.8,1642.1c0,33.4,27.1,60.6,60.6,60.6c33.4,0,60.6-27.1,60.6-60.6s-27.1-60.6-60.6-60.6l0,0
			C-1068.7,1581.6-1095.8,1608.7-1095.8,1642.1z"/>
		<path class="st10" d="M-969.8,1642.7c-0.2,5.7-0.3,23.7-10.7,36.7c-6.6,8.2-13.8,13.8-18.5,16.3c-4.9,2.6-11,5.9-16.6,8
			c-4.8,1.8-9.8,3.1-14.9,3.9c-17.5,1.9-29.1-2.9-34.6-5.4c-8.4-3.9-18.2-10.3-30.8-21.1c-10.9-9-12.4-11.3-24.9-22
			c-8.2-7.1-14.2-13-21-17.8"/>
		<path class="st0" d="M-1000.1,1578.2c4.7,3.1,15.5,14.9,20,24.8c7,15.4,9.4,38.6,9.4,37.1"/>
		<path class="st19" d="M-998.9,1581.2"/>
		<path class="st1" d="M-1135.2,1602.4c8.5-2.6,16.9-5.7,25.1-9.2c15.2-6.5,17.3-8.2,30.4-13.5c15.4-6.5,26.7-9.6,35.9-10.8
			c6-0.7,18.5-1.8,34.6,5.4c1.7,0.7,8.1,2.3,11.5,6.4"/>
		<path class="st4" d="M-974.4,1583c1.3,2.8,6.5,12.7,7.3,24.4s-1.5,25.1-2.4,33.9"/>
		
			<text transform="matrix(0.8601 0.5101 -0.5101 0.8601 -1112.9569 1715.6002)" class="st6" style="fill:#85B645; font-size:31.7652px;">G</text>
		<text transform="matrix(0.89 0.4559 -0.4559 0.89 -1090.6876 1728.7104)" class="st6" style="fill:#85B645; font-size:31.772px;">r</text>
		
			<text transform="matrix(0.9243 0.3818 -0.3818 0.9243 -1078.6479 1735.0326)" class="st6" style="fill:#85B645; font-size:31.6315px;">e</text>
		
			<text transform="matrix(0.9767 0.2147 -0.2147 0.9767 -1059.7374 1743.05)" class="st6" style="fill:#85B645; font-size:31.77px;">e</text>
		
			<text transform="matrix(0.9914 -0.1305 0.1305 0.9914 -1039.5562 1747.0712)" class="st6" style="fill:#85B645; font-size:31.7625px;">n</text>
		
			<text transform="matrix(0.8984 -0.4392 0.4392 0.8984 -1007.327 1742.139)" class="st6" style="fill:#85B645; font-size:31.8271px;">W</text>
		
			<text transform="matrix(0.7294 -0.684 0.684 0.7294 -976.3854 1726.0007)" class="st6" style="fill:#85B645; font-size:31.7605px;">a</text>
		
			<text transform="matrix(0.5717 -0.8205 0.8205 0.5717 -962.3928 1711.7191)" class="st6" style="fill:#85B645; font-size:31.775px;">t</text>
		
			<text transform="matrix(0.5072 -0.8618 0.8618 0.5072 -954.4276 1700.7098)" class="st6" style="fill:#85B645; font-size:31.77px;">e</text>
		
			<text transform="matrix(0.3234 -0.9463 0.9463 0.3234 -944.3117 1682.9)" class="st6" style="fill:#85B645; font-size:31.7755px;">r</text>
		
			<text transform="matrix(0.5055 0.7203 -0.8186 0.5744 -1013.1269 1501.1592)" class="st6" style="fill:#71BABF; font-size:31.77px;">B</text>
		
			<text transform="matrix(0.5078 0.7069 -0.8164 0.5775 -1001.0667 1518.3102)" class="st6" style="fill:#71BABF; font-size:31.9095px;">l</text>
		
			<text transform="matrix(0.5119 0.7127 -0.8131 0.5822 -996.7487 1524.4304)" class="st6" style="fill:#71BABF; font-size:31.6576px;">u</text>
		<text transform="matrix(0.52 0.7 -0.8 0.6 -985.8195 1539.6204)" class="st6" style="fill:#71BABF; font-size:31.77px;">e</text>
		
			<text transform="matrix(0.6218 0.6218 -0.7121 0.7021 -972.1387 1559.598)" class="st6" style="fill:#71BABF; font-size:31.6761px;">W</text>
		<text transform="matrix(0.2552 0.8422 -0.957 0.29 -953.4572 1582.1288)" class="st6" style="fill:#71BABF; font-size:31.77px;">a</text>
		
			<text transform="matrix(0.1368 0.8693 -0.9879 0.1554 -948.906 1597.9174)" class="st6" style="fill:#71BABF; font-size:31.7775px;">t</text>
		
			<text transform="matrix(1.998605e-02 0.8796 -0.9996 2.997908e-02 -946.9874 1608.5399)" class="st6" style="fill:#71BABF; font-size:31.7923px;">e</text>
		
			<text transform="matrix(-6.977707e-02 0.8672 -0.9968 -7.974522e-02 -946.9188 1625.3402)" class="st6" style="fill:#71BABF; font-size:31.8715px;">r</text>
		<line class="st21" x1="-1201.7" y1="1700.7" x2="-1248.5" y2="1766.4"/>
		<text transform="matrix(1 0 0 1 -1312.8973 1802.22)" class="st6" style="font-size:29.78px;">Partial</text>
		<text transform="matrix(1 0 0 1 -1303.5272 1833.99)" class="st6" style="font-size:29.78px;">units</text>
		<text transform="matrix(1 0 0 1 -913.5973 1660.53)" style="font-family:'Montserrat-SemiBold'; font-size:30.78px;">C</text>
		<text transform="matrix(1 0 0 1 -891.8373 1660.53)" style="font-family:'Montserrat-SemiBold'; font-size:30.78px;">omposi</text>
		<text transform="matrix(1 0 0 1 -773.8773 1660.53)" style="font-family:'Montserrat-SemiBold'; font-size:30.78px;">t</text>
		<text transform="matrix(1 0 0 1 -761.3873 1660.53)" style="font-family:'Montserrat-SemiBold'; font-size:30.78px;">e </text>
		<text transform="matrix(1 0 0 1 -733.7473 1660.53)" style="font-family:'Montserrat-SemiBold'; font-size:30.78px;">f</text>
		<text transform="matrix(1 0 0 1 -722.6373 1660.53)" style="font-family:'Montserrat-SemiBold'; font-size:30.78px;">ootp</text>
		<text transform="matrix(1 0 0 1 -648.7773 1660.53)" style="font-family:'Montserrat-SemiBold'; font-size:30.78px;">r</text>
		<text transform="matrix(1 0 0 1 -636.0073 1660.53)" style="font-family:'Montserrat-SemiBold'; font-size:30.78px;">int</text>
		<text transform="matrix(1 0 0 1 -879.4073 1697.46)" style="font-family:'Montserrat-SemiBold'; font-size:30.78px;">of 3 </text>
		<text transform="matrix(1 0 0 1 -813.3073 1697.46)" style="font-family:'Montserrat-SemiBold'; font-size:30.78px;">w</text>
		<text transform="matrix(1 0 0 1 -785.5473 1697.46)" style="font-family:'Montserrat-SemiBold'; font-size:30.78px;">a</text>
		<text transform="matrix(1 0 0 1 -766.8673 1697.46)" style="font-family:'Montserrat-SemiBold'; font-size:30.78px;">t</text>
		<text transform="matrix(1 0 0 1 -754.3673 1697.46)" style="font-family:'Montserrat-SemiBold'; font-size:30.78px;">er </text>
		<text transform="matrix(1 0 0 1 -713.8073 1697.46)" style="font-family:'Montserrat-SemiBold'; font-size:30.78px;">t</text>
		<text transform="matrix(1 0 0 1 -701.0673 1697.46)" style="font-family:'Montserrat-SemiBold'; font-size:30.78px;">ypes</text>
		<text transform="matrix(1 0 0 1 -1186.4374 1816)" class="st6" style="font-size:29.78px;">100 cubic meters</text>
		<text transform="matrix(1 0 0 1 -1186.4374 1847.77)" class="st6" style="font-size:29.78px;">of water consumed yearly per capita</text>
		<line class="st22" x1="-1104.7" y1="1671.8" x2="-1177.9" y2="1782.5"/>
		<line class="st22" x1="-917.1" y1="1650.6" x2="-995" y2="1650.6"/>
		<line class="st22" x1="-1135.2" y1="1604.6" x2="-1203" y2="1702.9"/>
		
			<text transform="matrix(0.7511 -0.4206 0.4907 0.8713 -1170.908 1607.6296)" class="st6" style="fill:#545454; font-size:31.7223px;">G</text>
		
			<text transform="matrix(0.7548 -0.4126 0.4831 0.8756 -1151.8374 1596.9789)" class="st6" style="fill:#545454; font-size:31.5676px;">r</text>
		
			<text transform="matrix(0.7456 -0.4081 0.4801 0.8772 -1141.8971 1591.4711)" class="st6" style="fill:#545454; font-size:31.77px;">e</text>
		
			<text transform="matrix(0.7486 -0.4026 0.4736 0.8807 -1127.0172 1583.3312)" class="st6" style="fill:#545454; font-size:31.7645px;">y</text>
		
			<text transform="matrix(0.7614 -0.3778 0.4445 0.8958 -1106.3368 1572.1012)" class="st6" style="fill:#545454; font-size:31.77px;">W</text>
		
			<text transform="matrix(0.812 -0.2514 0.2957 0.9553 -1079.7966 1559.1106)" class="st6" style="fill:#545454; font-size:31.77px;">a</text>
		
			<text transform="matrix(0.8282 -0.1914 0.2251 0.9743 -1063.6678 1554.2383)" class="st6" style="fill:#545454; font-size:31.7645px;">t</text>
		
			<text transform="matrix(0.8489 -0.1298 0.1498 0.9887 -1052.6079 1551.5806)" class="st6" style="fill:#545454; font-size:31.8113px;">e</text>
		
			<text transform="matrix(0.8489 -4.256917e-02 5.008136e-02 0.9987 -1035.5369 1549.1918)" class="st6" style="fill:#545454; font-size:31.763px;">r</text>
		<text transform="matrix(1 0 0 1 -1070.9773 1660.53)" class="st6" style="font-size:47.65px;">19</text>
		<text transform="matrix(1 0 0 1 -1030.3773 1660.53)" class="st6" style="font-size:47.65px;">8</text>
		<text transform="matrix(1 0 0 1 -1397.3973 1950.85)" style="font-family:'Montserrat-SemiBold'; font-size:30.78px;">Se</text>
		<text transform="matrix(1 0 0 1 -1358.8973 1950.85)" style="font-family:'Montserrat-SemiBold'; font-size:30.78px;">c</text>
		<text transform="matrix(1 0 0 1 -1340.7972 1950.85)" style="font-family:'Montserrat-SemiBold'; font-size:30.78px;">t</text>
		<text transform="matrix(1 0 0 1 -1328.3073 1950.85)" style="font-family:'Montserrat-SemiBold'; font-size:30.78px;">or </text>
		<text transform="matrix(1 0 0 1 -1287.0372 1950.85)" style="font-family:'Montserrat-SemiBold'; font-size:30.78px;">r</text>
		<text transform="matrix(1 0 0 1 -1274.4174 1950.85)" style="font-family:'Montserrat-SemiBold'; font-size:30.78px;">esponsible </text>
		<text transform="matrix(1 0 0 1 -1095.0073 1950.85)" style="font-family:'Montserrat-SemiBold'; font-size:30.78px;">f</text>
		<text transform="matrix(1 0 0 1 -1083.8973 1950.85)" style="font-family:'Montserrat-SemiBold'; font-size:30.78px;">or </text>
		<text transform="matrix(1 0 0 1 -1042.6273 1950.85)" style="font-family:'Montserrat-SemiBold'; font-size:30.78px;">w</text>
		<text transform="matrix(1 0 0 1 -1014.8673 1950.85)" style="font-family:'Montserrat-SemiBold'; font-size:30.78px;">a</text>
		<text transform="matrix(1 0 0 1 -996.1874 1950.85)" style="font-family:'Montserrat-SemiBold'; font-size:30.78px;">t</text>
		<text transform="matrix(1 0 0 1 -983.6874 1950.85)" style="font-family:'Montserrat-SemiBold'; font-size:30.78px;">er </text>
		<text transform="matrix(1 0 0 1 -943.1273 1950.85)" style="font-family:'Montserrat-SemiBold'; font-size:30.78px;">f</text>
		<text transform="matrix(1 0 0 1 -932.0173 1950.85)" style="font-family:'Montserrat-SemiBold'; font-size:30.78px;">ootp</text>
		<text transform="matrix(1 0 0 1 -858.1573 1950.85)" style="font-family:'Montserrat-SemiBold'; font-size:30.78px;">r</text>
		<text transform="matrix(1 0 0 1 -845.3873 1950.85)" style="font-family:'Montserrat-SemiBold'; font-size:30.78px;">int:</text>
		<text transform="matrix(1 0 0 1 -861.0173 2026.4399)" class="st6" style="font-size:30.23px;">Industrial - internal</text>
		<text transform="matrix(1 0 0 1 -861.0173 2098.99)" class="st6" style="font-size:30.23px;">Industrial - external</text>
		<path class="st14" d="M-1384.5,2018.2c0.2,11.8,9.9,21.2,21.7,21c11.8-0.2,21.2-9.9,21-21.7c-0.2-11.7-9.7-21-21.3-21
			C-1375,1996.6-1384.6,2006.3-1384.5,2018.2z"/>
		<path class="st12" d="M-977,2014.1c0.2,11.8,9.9,21.2,21.7,21s21.2-9.9,21-21.7c-0.2-11.7-9.7-21-21.3-21
			C-967.5,1992.5-977.1,2002.2-977,2014.1z"/>
		<path class="st3" d="M-977,2086.5c0.2,11.8,9.9,21.2,21.7,21s21.2-9.9,21-21.7c-0.2-11.7-9.7-21-21.3-21
			C-967.5,2064.9-977.1,2074.6-977,2086.5z"/>
		<path class="st9" d="M-1384.5,2077.4c0.2,11.8,9.9,21.2,21.7,21c11.8-0.2,21.2-9.9,21-21.7c-0.2-11.7-9.7-21-21.3-21
			C-1375,2055.8-1384.6,2065.5-1384.5,2077.4z"/>
		<path class="st15" d="M-1384.5,2143.6c0.2,11.8,9.9,21.2,21.7,21c11.8-0.2,21.2-9.9,21-21.7c-0.2-11.7-9.7-21-21.3-21
			C-1375,2122-1384.6,2131.7-1384.5,2143.6L-1384.5,2143.6z"/>
		<text transform="matrix(1 0 0 1 -1308.7872 2087.72)" class="st6" style="font-size:30.23px;">Agriculture - internal</text>
		<text transform="matrix(1 0 0 1 -1310.7373 2151.51)" class="st6" style="font-size:30.23px;">Agriculture - external</text>
		<text transform="matrix(1 0 0 1 -1305.9174 2027.98)" class="st6" style="font-size:30.23px;">Domestic</text>
		<text transform="matrix(6.123234e-17 -1 1 6.123234e-17 -163.3573 1865.6406)" class="st6" style="font-size:42.69px;">Yearly water consumption per capita (cubic meters)</text>
	</g>
	<g id="ReferenceMarkLine">
		<line class="st23" x1="-48.2" y1="315.2" x2="48.2" y2="315.2"/>
		<text transform="matrix(1 0 0 1 -98.0673 1482.97)" class="st6" style="font-size:35px;">1000</text>
		<line class="st24" x1="0" y1="2689.6" x2="0" y2="55.9"/>
		<line class="st23" x1="0" y1="2689.6" x2="0" y2="55.9"/>
		<path d="M-4.1,46.4c-2,6.6-3.8,10.9-6,16.2h20.2c-2.3-5.3-4.3-10.7-6-16.2C2.3,40.7,0.9,34.8,0,28.8C-0.9,34.8-2.3,40.7-4.1,46.4z
			"/>
		<line class="st23" x1="-48.2" y1="1496.2" x2="48.2" y2="1496.2"/>
		<line class="st23" x1="-13.6" y1="2445.2" x2="13.8" y2="2445.2"/>
		<line class="st23" x1="-13.6" y1="2328.2" x2="13.8" y2="2328.2"/>
		<line class="st23" x1="-13.6" y1="2210.2" x2="13.8" y2="2210.2"/>
		<line class="st23" x1="-13.6" y1="2564.2" x2="13.8" y2="2564.2"/>
		<line class="st23" x1="-13.6" y1="2088.2" x2="13.8" y2="2088.2"/>
		<line class="st23" x1="-13.6" y1="1971.2" x2="13.8" y2="1971.2"/>
		<line class="st23" x1="-13.6" y1="1852.2" x2="13.8" y2="1852.2"/>
		<line class="st23" x1="-13.6" y1="1731.2" x2="13.8" y2="1731.2"/>
		<line class="st23" x1="-13.6" y1="1613.2" x2="13.8" y2="1613.2"/>
		<line class="st23" x1="-13.6" y1="1382.2" x2="13.8" y2="1382.2"/>
		<line class="st23" x1="-13.6" y1="1268.2" x2="13.8" y2="1268.2"/>
		<line class="st23" x1="-13.6" y1="1151.2" x2="13.8" y2="1151.2"/>
		<line class="st23" x1="-13.6" y1="1030.2" x2="13.8" y2="1030.2"/>
		<line class="st23" x1="-13.6" y1="919.2" x2="13.8" y2="919.2"/>
		<line class="st23" x1="-13.6" y1="798.2" x2="13.8" y2="798.2"/>
		<line class="st23" x1="-13.6" y1="677.2" x2="13.8" y2="677.2"/>
		<line class="st23" x1="-13.6" y1="557.2" x2="13.8" y2="557.2"/>
		<line class="st23" x1="-13.6" y1="438.2" x2="13.8" y2="438.2"/>
		<text transform="matrix(1 0 0 1 -100.0673 302.46)" class="st6" style="font-size:35px;">2000</text>
		<text transform="matrix(1 0 0 1 -40.6674 2676.02)" class="st6" style="font-size:36px;">0</text>
		<line class="st23" x1="-48.2" y1="2690.2" x2="48.2" y2="2690.2"/>
		<text transform="matrix(1 0 0 1 -790.9573 85)" class="st6 st16">USA</text>
	</g>
</g>
</svg>
