<svg id="Germany" xmlns="http://www.w3.org/2000/svg" width="890.18" height="2767.1" viewBox="0 0 890.18 2767.1">
  <defs>
    <style>
      .cls-1, .cls-11, .cls-12, .cls-13, .cls-15, .cls-2, .cls-3, .cls-5, .cls-6, .cls-8 {
        fill: none;
      }

      .cls-1 {
        stroke: #bfbfbf;
        stroke-width: 2px;
        stroke-dasharray: 3 2;
      }

      .cls-1, .cls-11, .cls-12, .cls-13, .cls-2, .cls-3, .cls-5, .cls-8 {
        stroke-miterlimit: 10;
      }

      .cls-2, .cls-3 {
        stroke: #877d77;
      }

      .cls-12, .cls-13, .cls-2, .cls-5 {
        stroke-width: 4px;
      }

      .cls-11, .cls-15, .cls-3, .cls-6, .cls-8 {
        stroke-width: 3px;
        stroke-dasharray: 7 3;
      }

      .cls-4 {
        fill: #dd6553;
      }

      .cls-5, .cls-6, .cls-8 {
        stroke: #71babf;
      }

      .cls-7 {
        fill: #bf6da0;
      }

      .cls-9 {
        fill: #ea877d;
      }

      .cls-10 {
        fill: #ffb000;
      }

      .cls-11, .cls-13, .cls-15 {
        stroke: #85b645;
      }

      .cls-12 {
        stroke: #8fba19;
      }

      .cls-14 {
        fill: #ffcd71;
      }
    </style>
  </defs>
  <title>VIZ2-GERMANY</title>
  <g>
    <path d="M344.75,26.81v8.93a21.89,21.89,0,0,1-2.21,10,16,16,0,0,1-6.28,6.71,18.31,18.31,0,0,1-9.4,2.37,19.54,19.54,0,0,1-9.51-2.23A15.68,15.68,0,0,1,311,46.32a19.26,19.26,0,0,1-2.25-9.46V21.78a21.69,21.69,0,0,1,2.22-10,16,16,0,0,1,6.27-6.69,18.23,18.23,0,0,1,9.41-2.38,17.68,17.68,0,0,1,8.1,1.88A17.17,17.17,0,0,1,341,9.9a19.86,19.86,0,0,1,3.38,8h-7.77a11.08,11.08,0,0,0-2.14-4.41,10.21,10.21,0,0,0-3.56-2.81,9.61,9.61,0,0,0-4.21-1,10.18,10.18,0,0,0-5.56,1.51,10,10,0,0,0-3.69,4.24,14.5,14.5,0,0,0-1.3,6.34V36.86a11.9,11.9,0,0,0,1.34,5.79,9.51,9.51,0,0,0,3.77,3.85,11.39,11.39,0,0,0,5.65,1.37,10.62,10.62,0,0,0,5.55-1.43,9.24,9.24,0,0,0,3.69-4.13,14.67,14.67,0,0,0,1.3-6.43V33.67H327V26.81Z"/>
    <path d="M356.35,3.22h7.17V54.34h-7.17Zm3.48,0h29.36V10H359.83Zm0,22.32h25.49v6.82H359.83Zm0,22h29.36v6.82H359.83Z"/>
    <path d="M399.38,3.19h7.18V54.34h-7.18Zm3.13,22.71H420a6.67,6.67,0,0,0,3.62-1A6.48,6.48,0,0,0,426,22.12a9.68,9.68,0,0,0,.86-4.17,9.68,9.68,0,0,0-.86-4.17A6.41,6.41,0,0,0,420,10H402.51V3.19h17.16A16.15,16.15,0,0,1,427.46,5a12.86,12.86,0,0,1,5.2,5.19A15.83,15.83,0,0,1,434.51,18a15.71,15.71,0,0,1-1.87,7.75,12.91,12.91,0,0,1-5.22,5.19,15.94,15.94,0,0,1-7.75,1.83H402.51Zm13.93,5.23,7.13-1.61,13.08,24.82h-8.51Z"/>
    <path d="M483.06,3.22h6.71V54.34h-7V16.05l.36,2.25L470.54,47.24h-5L453,19l.35-3V54.34h-7V3.22H453L468,37Z"/>
    <path d="M516.35,3.22h6.12l18.84,51.12h-7.73L519.41,13.1,505.24,54.34h-7.73ZM506.19,36.3h26.89v6.82H506.19Z"/>
    <path d="M549,3.22h6.51l25,39.52-.84.91V3.22h7.1V54.3h-6.57L555.3,15.38l.85-.91V54.3H549Z"/>
    <path d="M614.82,33.56V54.34h-7.17V33.56L592.08,3.22h8l11.18,23.06L622.42,3.22h8Z"/>
  </g>
  <line class="cls-1" x1="-0.58" y1="2686.93" x2="848.45" y2="2686.93"/>
  <path class="cls-2" d="M678.71,2666a102.77,102.77,0,0,0-3,21.11"/>
  <path class="cls-3" d="M849.71,2685.71a253.16,253.16,0,0,1-21.28-16.55c-12.59-10.9-14.15-13.21-25.14-22.34-12.83-11-22.72-17.51-31.2-21.42-5.59-2.58-17.25-7.39-35-5.47a81.17,81.17,0,0,0-15,3.93c-5.69,2.12-11.81,5.48-16.76,8.09-4.74,2.5-12.09,8.21-18.72,16.52-3.81,4.77-6.29,11.25-7.91,17.54"/>
  <line class="cls-1" x1="737.44" y1="2553.06" x2="737.44" y2="2626.41"/>
  <path class="cls-4" d="M798.65,2687.81a61,61,0,0,1-60.82,61.08c-33.59,0-60.82-25.35-60.82-59.08s27.23-63.09,60.82-63.09A61,61,0,0,1,798.65,2687.81Z"/>
  <g>
    <path d="M718.75,2703.12l11.56-15.85a11.73,11.73,0,0,0,1.56-2.82,7.78,7.78,0,0,0,.56-2.73v0a4.17,4.17,0,0,0-1.17-3.16,4.54,4.54,0,0,0-3.3-1.13,4.48,4.48,0,0,0-3.28,1.23,5.63,5.63,0,0,0-1.53,3.48v0h-4.81v0a13.12,13.12,0,0,1,1.68-5,8.64,8.64,0,0,1,3.27-3.17,9.61,9.61,0,0,1,4.62-1.09,11.16,11.16,0,0,1,5.06,1.05,7.09,7.09,0,0,1,3.19,3,9.85,9.85,0,0,1,1.1,4.81v0a11,11,0,0,1-.73,3.77,16.25,16.25,0,0,1-2,3.8l-9.59,13.41h12.53v4.54H718.75Z"/>
    <path d="M743,2705.06a10,10,0,0,1-2.41-7.12v-15.5a9.93,9.93,0,0,1,2.42-7.13c1.61-1.7,4-2.55,7-2.55s5.45.85,7,2.54,2.41,4.07,2.41,7.14v15.5a9.93,9.93,0,0,1-2.42,7.13q-2.42,2.55-7,2.55C747,2707.62,744.62,2706.76,743,2705.06Zm10.68-3.32a5.51,5.51,0,0,0,1.18-3.8v-15.5a5.56,5.56,0,0,0-1.17-3.8,5.66,5.66,0,0,0-7.29,0,5.61,5.61,0,0,0-1.16,3.8v15.5a5.56,5.56,0,0,0,1.17,3.8,5.63,5.63,0,0,0,7.27,0Z"/>
  </g>
  <path class="cls-5" d="M672.67,2674.12c.44,4.81,1.49,11.18,1.81,15"/>
  <path class="cls-6" d="M737.93,2552.28c-4.83,6.84-8.85,13.23-16.18,21.42-11.61,13-10.08,12-19.16,22.92-11,12.8-19.35,25.2-23.24,33.66-1.28,2.79-6.5,12.81-7.3,24.67-.54,8-.62,10.51.28,18"/>
  <line class="cls-1" x1="607.54" y1="2679.61" x2="-0.58" y2="2679.61"/>
  <path class="cls-7" d="M558.22,2679.61a60.76,60.76,0,1,1-60.75-61.08A60.92,60.92,0,0,1,558.22,2679.61Z"/>
  <line class="cls-1" x1="498.9" y1="2545.03" x2="498.9" y2="2619.7"/>
  <path class="cls-2" d="M451.41,2634.53a77.35,77.35,0,0,0-6.34,7.08c-10.58,13.36-10.82,38.65-10.82,38.65"/>
  <path class="cls-3" d="M498.43,2612.78c-1.06.07-2.15.16-3.25.28a80.93,80.93,0,0,0-14.9,3.93c-5.65,2.12-11.72,5.48-16.63,8.09a56.68,56.68,0,0,0-12.24,9.45"/>
  <path class="cls-3" d="M607.54,2679.61c-1.15-1-2.33-2-3.57-3.05-12.49-10.9-32.23-27.48-43.14-36.61-12.73-11-22.53-17.51-31-21.42a62.07,62.07,0,0,0-31.45-5.75"/>
  <path class="cls-5" d="M431.78,2667.79c-.52,3.91,1.53,8.24,2.41,11.12"/>
  <path class="cls-8" d="M435.2,2630a88.5,88.5,0,0,0-4.2,19.47c-.55,7.42,1,15.52.78,18.34,0,.47,0-.48,0,0"/>
  <path class="cls-8" d="M497.57,2544.09c-4.83,6.84-8.85,13.22-16.16,21.42-11.61,13-10.07,11.95-19.15,22.92-10.95,12.79-19.32,23.2-23.21,31.66-.63,1.39-2.25,4.58-3.81,8.89"/>
  <g>
    <path d="M477.73,2693.16l11.55-15.84a11.92,11.92,0,0,0,1.56-2.82,7.56,7.56,0,0,0,.56-2.73v-.05a4.17,4.17,0,0,0-1.16-3.16,4.55,4.55,0,0,0-3.3-1.13,4.5,4.5,0,0,0-3.29,1.23,5.67,5.67,0,0,0-1.52,3.48v0h-4.81v0a13,13,0,0,1,1.67-5,8.71,8.71,0,0,1,3.27-3.17,9.63,9.63,0,0,1,4.63-1.09,11.19,11.19,0,0,1,5.06,1,7.15,7.15,0,0,1,3.19,3,9.85,9.85,0,0,1,1.09,4.81v0a10.75,10.75,0,0,1-.73,3.77,16.21,16.21,0,0,1-2,3.8l-9.6,13.41h12.54v4.54H477.73Z"/>
    <path d="M516.7,2667.5l-8.57,29.81h-4.94l8.57-29.53h-8.44v4.9h-4.64v-9.44h18Z"/>
  </g>
  <line class="cls-1" x1="409.09" y1="2562.52" y2="2562.52"/>
  <path class="cls-2" d="M214.45,2538.27a110.66,110.66,0,0,0-3.4,23.92"/>
  <path class="cls-3" d="M409.84,2561.82a324.82,324.82,0,0,1-25.77-20c-14.26-12.35-16-15-28.48-25.32-14.54-12.47-25.74-19.83-35.35-24.26-6.33-2.92-19.54-8.37-39.62-6.2a93,93,0,0,0-17,4.45c-6.44,2.4-13.38,6.21-19,9.17-5.37,2.83-13.69,9.3-21.21,18.72-4.31,5.4-7.13,12.74-9,19.87"/>
  <line class="cls-1" x1="276.32" y1="2426.94" x2="276.32" y2="2501.6"/>
  <path class="cls-9" d="M337.57,2562a61.21,61.21,0,1,1-61.21-61.08A61.15,61.15,0,0,1,337.57,2562Z"/>
  <path class="cls-2" d="M389.42,2562.73c-6.85-4.85-15.7-11.12-24-18.34-12.58-10.9-14.14-13.21-25.13-22.34-12.82-11-22.71-17.51-31.19-21.42-5.59-2.57-17.24-7.38-35-5.47a81.33,81.33,0,0,0-15,3.93c-5.69,2.12-11.81,5.48-16.76,8.09-4.74,2.5-12.08,8.21-18.71,16.52-10.66,13.37-12.57,38.49-12.57,38.49"/>
  <path class="cls-5" d="M209.54,2547.78c.54,4.85,1.11,10.71,1.51,14.41"/>
  <path class="cls-8" d="M275,2426c-4.86,6.84-8.91,13.22-16.28,21.41-11.7,13-10.15,12-19.29,22.92-11,12.8-18.49,22.83-22.41,31.29-.31.67-5.45,10.34-6.75,20.75-1.37,11,.1,23.2-.71,25.41"/>
  <g>
    <path d="M256.25,2580.26H251.6v-28.87l-4.71,3v-4.95l4.71-3.23h4.65Z"/>
    <path d="M260.52,2576.12l11.55-15.85a11.73,11.73,0,0,0,1.56-2.82,7.56,7.56,0,0,0,.56-2.73v0a4.21,4.21,0,0,0-1.16-3.16,4.57,4.57,0,0,0-3.3-1.13,4.5,4.5,0,0,0-3.29,1.23,5.67,5.67,0,0,0-1.52,3.48v0h-4.81v0a13,13,0,0,1,1.67-5,8.78,8.78,0,0,1,3.27-3.17,9.63,9.63,0,0,1,4.63-1.09,11.22,11.22,0,0,1,5.06,1.05,7.15,7.15,0,0,1,3.19,3,9.85,9.85,0,0,1,1.09,4.81v0a10.75,10.75,0,0,1-.73,3.77,16.21,16.21,0,0,1-2,3.8l-9.6,13.41h12.54v4.54H260.52Z"/>
    <path d="M284.78,2578.06a10,10,0,0,1-2.4-7.12v-15.5q0-4.59,2.41-7.13t7-2.55q4.65,0,7.06,2.54c1.6,1.68,2.4,4.07,2.4,7.14v15.5q0,4.59-2.41,7.13t-7.05,2.55C288.73,2580.62,286.38,2579.76,284.78,2578.06Zm10.69-3.32a5.56,5.56,0,0,0,1.17-3.8v-15.5a5.61,5.61,0,0,0-1.16-3.8,5.66,5.66,0,0,0-7.29,0,5.56,5.56,0,0,0-1.16,3.8v15.5a5.56,5.56,0,0,0,1.17,3.8,5.63,5.63,0,0,0,7.27,0Z"/>
  </g>
  <line class="cls-1" x1="2.13" y1="2235.92" x2="366" y2="2235.92"/>
  <path class="cls-10" d="M245.63,2233.8a61,61,0,0,1-60.82,61.08c-33.6,0-60.83-25.35-60.83-59.08s27.23-63.09,60.83-63.09A61,61,0,0,1,245.63,2233.8Z"/>
  <g>
    <path d="M157.9,2252.56a8.43,8.43,0,0,1-3.41-3,11.1,11.1,0,0,1-1.62-4.77h4.74a5.23,5.23,0,0,0,.88,2.39,4.17,4.17,0,0,0,1.77,1.39,6.4,6.4,0,0,0,2.54.46,4.83,4.83,0,0,0,3.58-1.27,4.78,4.78,0,0,0,1.27-3.56v-1a5.88,5.88,0,0,0-1.2-4,4.29,4.29,0,0,0-3.42-1.39h-2.35v-4.55H163a3.86,3.86,0,0,0,3-1.19,4.93,4.93,0,0,0,1.07-3.38v-1.05a4.16,4.16,0,0,0-1.13-3.12,4.36,4.36,0,0,0-3.2-1.1,4.82,4.82,0,0,0-2.12.45,4.16,4.16,0,0,0-1.58,1.41,6.45,6.45,0,0,0-1,2.38h-4.72a12.78,12.78,0,0,1,1.72-4.78,8.58,8.58,0,0,1,3.2-3,9.45,9.45,0,0,1,4.45-1,9.07,9.07,0,0,1,6.63,2.32,8.81,8.81,0,0,1,2.35,6.54v.56a7.34,7.34,0,0,1-5.15,7.22,6.72,6.72,0,0,1,4.2,2.75,9.21,9.21,0,0,1,1.49,5.43v.57a10.77,10.77,0,0,1-1.11,5.08,7.47,7.47,0,0,1-3.25,3.21,12.31,12.31,0,0,1-10,.06Z"/>
    <path d="M187.9,2236.33l0,.84a3.46,3.46,0,0,1-1.72,1.59,6.84,6.84,0,0,1-2.72.5,7.15,7.15,0,0,1-4.17-1.24,8.07,8.07,0,0,1-2.79-3.51,12.91,12.91,0,0,1-1-5.23v0a13.46,13.46,0,0,1,1.08-5.65,7.77,7.77,0,0,1,3.17-3.56,9.75,9.75,0,0,1,5-1.22,9.53,9.53,0,0,1,5,1.25,7.88,7.88,0,0,1,3.15,3.6,13.51,13.51,0,0,1,1.09,5.7v0a18.6,18.6,0,0,1-.46,3.91,24.44,24.44,0,0,1-1.3,4.11l-.27.62c-.09.21-.19.42-.3.62l-7.06,14.6h-5Zm.21-2.95a6.8,6.8,0,0,0,1.2-4.29v0a6.48,6.48,0,0,0-1.2-4.18,4.66,4.66,0,0,0-6.79,0,6.52,6.52,0,0,0-1.2,4.2v0a6.73,6.73,0,0,0,1.2,4.28,4.56,4.56,0,0,0,6.79,0Z"/>
    <path d="M201.78,2252.43a8.34,8.34,0,0,1-3.52-3.31,9.74,9.74,0,0,1-1.25-5v-.57a9.77,9.77,0,0,1,1.25-4.8,8.41,8.41,0,0,1,3.31-3.4,7.33,7.33,0,0,1-2.81-2.85,7.78,7.78,0,0,1-1.06-3.92v-.82a9.2,9.2,0,0,1,1.16-4.7,8,8,0,0,1,3.28-3.14,11.39,11.39,0,0,1,9.85,0,8,8,0,0,1,3.28,3.14,9.31,9.31,0,0,1,1.16,4.7v.82a7.76,7.76,0,0,1-1.08,4,7.35,7.35,0,0,1-2.86,2.81,8.75,8.75,0,0,1,3.36,3.41,9.61,9.61,0,0,1,1.26,4.79v.57a9.74,9.74,0,0,1-1.24,5,8.4,8.4,0,0,1-3.52,3.31,12.52,12.52,0,0,1-10.57,0Zm8.13-4.08a4.56,4.56,0,0,0,1.9-1.84,5.37,5.37,0,0,0,.68-2.73v-.32a5.48,5.48,0,0,0-.68-2.76,4.62,4.62,0,0,0-1.9-1.84,6.57,6.57,0,0,0-5.7,0,4.7,4.7,0,0,0-1.9,1.85,5.54,5.54,0,0,0-.67,2.77v.35a5.35,5.35,0,0,0,.67,2.72,4.63,4.63,0,0,0,1.9,1.82,6.08,6.08,0,0,0,2.85.64A5.94,5.94,0,0,0,209.91,2248.35Zm-.39-15.36a4.2,4.2,0,0,0,1.67-1.77,5.75,5.75,0,0,0,.59-2.65v-.33a5.34,5.34,0,0,0-.59-2.53,4.21,4.21,0,0,0-1.67-1.7,5,5,0,0,0-2.46-.59,5.08,5.08,0,0,0-2.46.59,4.18,4.18,0,0,0-1.66,1.7,5.29,5.29,0,0,0-.59,2.56v.35a5.49,5.49,0,0,0,.59,2.61,4.21,4.21,0,0,0,1.66,1.76,4.89,4.89,0,0,0,2.46.62A4.83,4.83,0,0,0,209.52,2233Z"/>
  </g>
  <path class="cls-2" d="M265,2207.87c-2.29-2.07-13.17-10.74-16.75-13.74-12.74-11-22.56-17.51-31-21.42-5.56-2.57-17.14-7.38-34.74-5.47a81.21,81.21,0,0,0-14.92,3.93c-5.66,2.12-11.73,5.48-16.65,8.09-4.71,2.5-12,10.21-18.6,18.53-10.59,13.36-10.77,38.26-10.77,38.26"/>
  <path class="cls-3" d="M295.25,2235.37c-6.81-4.85-13.75-12.68-22-19.9s-3.55-3.36-8.22-7.6"/>
  <path class="cls-5" d="M121.07,2231.11c.12,1.41.25,2.74.38,4"/>
  <path class="cls-8" d="M184.91,2098.27c-4.83,6.84-8.86,13.22-16.18,21.42-11.62,13-10.08,11.95-19.17,22.92-11,12.79-17.33,22.38-21.23,30.84-1.28,2.79-6.86,15.8-7.66,27.67a207.89,207.89,0,0,0,.4,30"/>
  <path class="cls-11" d="M125,2264.62a62.93,62.93,0,0,0,11.51,23.49,85.63,85.63,0,0,0,26.63,21.83c14.59,7.57,33.21,12.31,38.17,12.83a98.31,98.31,0,0,0,51.45-8.33c12-5.43,23.71-14.2,41.82-29.5,0,0,14.65-12.16,32.36-25.83,12.21-9.43,24.07-18.22,38-23.49"/>
  <path class="cls-12" d="M121.58,2236.05c.15,4.86.13,16.25,3.45,28.57"/>
  <path class="cls-13" d="M121.52,2236.44c.22,7,.17,29,13.67,45a83.11,83.11,0,0,0,24.64,19.81c6.33,3.15,11.89,6.1,19.17,8.66a98,98,0,0,0,20,4.34c23.33,1.83,37.45-5.72,44.6-8.83,10.84-4.72,22.68-12.35,39.08-25.66,0,0,11.93-11.11,28-23,11.06-8.21,20.92-15.41,30.53-20.85"/>
  <path class="cls-13" d="M121.64,2236.48c.2,6.23-1.58,26.52,10.5,40.84,7.59,9,16,13.17,21.4,15.87,5.67,2.82,12.66,6.46,19.17,8.75a97.71,97.71,0,0,0,17.18,4.25c20.27,2.07,33.6-3.13,40-5.92,9.71-4.22,21-11.25,35.68-23.16,12.58-9.88,14.36-12.38,28.76-24.17A262.12,262.12,0,0,1,318,2235.79"/>
  <path class="cls-13" d="M121.64,2236.48c.18,5.73.29,23.89,10.78,37,6.59,8.27,13.88,11.94,18.59,14.43,4.92,2.59,11,5.93,16.65,8a81.49,81.49,0,0,0,14.92,3.91c17.61,1.9,29.19-2.88,34.74-5.44,8.43-3.89,18.25-10.34,31-21.29,10.92-9.07,12.47-11.37,25-22.21,8.29-7.17,15.16-10.77,22-15.59"/>
  <line class="cls-1" x1="184.41" y1="2098.79" x2="184.41" y2="2172.4"/>
  <line class="cls-1" x1="2.71" y1="1685.87" x2="461.77" y2="1685.87"/>
  <path class="cls-14" d="M246.21,1686.75a61,61,0,0,1-60.83,61.08c-33.59,0-60.82-25.34-60.82-59.08s27.23-63.09,60.82-63.09A61,61,0,0,1,246.21,1686.75Z"/>
  <g>
    <path d="M161.23,1703.39a8.43,8.43,0,0,1-3.52-3.32,9.74,9.74,0,0,1-1.24-5v-.56a9.77,9.77,0,0,1,1.24-4.81,8.41,8.41,0,0,1,3.31-3.4,7.31,7.31,0,0,1-2.81-2.84,7.84,7.84,0,0,1-1.06-3.93v-.82a9.33,9.33,0,0,1,1.16-4.7,8,8,0,0,1,3.28-3.14,11.48,11.48,0,0,1,9.85,0,8,8,0,0,1,3.28,3.14,9.33,9.33,0,0,1,1.16,4.7v.82a7.71,7.71,0,0,1-1.08,4,7.35,7.35,0,0,1-2.86,2.81,8.68,8.68,0,0,1,3.36,3.41,9.64,9.64,0,0,1,1.26,4.8v.56a9.74,9.74,0,0,1-1.24,5,8.49,8.49,0,0,1-3.52,3.32,12.52,12.52,0,0,1-10.57,0Zm8.13-4.08a4.7,4.7,0,0,0,1.91-1.84,5.52,5.52,0,0,0,.67-2.73v-.33a5.58,5.58,0,0,0-.67-2.76,4.68,4.68,0,0,0-1.91-1.83,6.46,6.46,0,0,0-5.69,0,4.6,4.6,0,0,0-1.91,1.85,5.5,5.5,0,0,0-.67,2.76v.35a5.33,5.33,0,0,0,.67,2.72,4.66,4.66,0,0,0,1.91,1.82,6.6,6.6,0,0,0,5.69,0Zm-.38-15.37a4.24,4.24,0,0,0,1.66-1.77,5.71,5.71,0,0,0,.59-2.64v-.33a5.28,5.28,0,0,0-.59-2.53A4.18,4.18,0,0,0,169,1675a5.36,5.36,0,0,0-4.93,0,4.18,4.18,0,0,0-1.66,1.7,5.22,5.22,0,0,0-.59,2.55v.35a5.53,5.53,0,0,0,.59,2.62,4.31,4.31,0,0,0,1.66,1.75,5.14,5.14,0,0,0,4.93,0Z"/>
    <path d="M183.86,1703.35a7.81,7.81,0,0,1-3.16-3.52,13,13,0,0,1-1.08-5.56v0a20.23,20.23,0,0,1,.43-4,23.35,23.35,0,0,1,1.26-4.1c.09-.24.19-.47.29-.69s.22-.45.32-.67l7.2-14.67h5l-8.46,17,0-.84a4,4,0,0,1,1.66-1.71,5.12,5.12,0,0,1,2.55-.61,7.92,7.92,0,0,1,4.42,1.19,7.48,7.48,0,0,1,2.81,3.48,14.37,14.37,0,0,1,.95,5.5v0a13.4,13.4,0,0,1-1.08,5.63,7.77,7.77,0,0,1-3.17,3.56,10.88,10.88,0,0,1-10,0Zm8.4-4.79a6,6,0,0,0,1.19-4v0a6.86,6.86,0,0,0-1.25-4.42,4.32,4.32,0,0,0-3.58-1.56,3.73,3.73,0,0,0-3.21,1.57,7.44,7.44,0,0,0-1.14,4.43v0a6,6,0,0,0,1.2,4,4.19,4.19,0,0,0,3.38,1.39A4.26,4.26,0,0,0,192.26,1698.56Z"/>
    <path d="M209.5,1704.21h-4.65v-28.88l-4.72,3v-5l4.72-3.23h4.65Z"/>
  </g>
  <path class="cls-2" d="M227.67,1631.06a88.62,88.62,0,0,0-9.84-5.39c-5.55-2.58-17.13-7.39-34.74-5.47a80.57,80.57,0,0,0-14.92,3.93c-5.65,2.11-11.73,5.48-16.65,8.09-4.71,2.5-12,10.21-18.59,18.52-10.6,13.36-10.89,40.15-10.84,38.65"/>
  <path class="cls-3" d="M257.27,1654.42c-2.29-2.08-4.86-4.34-8.45-7.34a176.11,176.11,0,0,0-21.15-16"/>
  <path class="cls-3" d="M294.93,1685a252.82,252.82,0,0,1-21.14-16.55c-8.39-7.33-11.85-10.77-16.52-15"/>
  <path class="cls-5" d="M143.27,1604c-7.58,9.7-13.33,18.68-16.37,25.28-1.28,2.78-6.49,12.8-7.3,24.66s1.47,25.31,2.43,34.16"/>
  <path class="cls-8" d="M185.48,1551.23c-4.83,6.84-8.85,13.22-16.18,21.41-11.61,13-10.07,11.95-19.16,22.92-2.43,2.83-4.72,5.64-6.87,8.39"/>
  <path class="cls-13" d="M122.15,1689c.27,9.71,3,38.32,19.35,60.62,10.28,14,22.16,20.29,29.5,24.5a95.19,95.19,0,0,0,36,12,101,101,0,0,0,56.63-9.43c13.14-6.58,26.95-17.23,46.82-35.8,0,0,43.81-38.75,80-54.66"/>
  <path class="cls-13" d="M122.15,1689c.25,8,0,33.67,15,52.06a85.54,85.54,0,0,0,26.64,21.83c14.58,7.58,33.2,12.31,38.16,12.84a98.23,98.23,0,0,0,51.45-8.34c12-5.43,23.71-14.19,41.82-29.5,0,0,14.65-12.16,32.36-25.83,12.22-9.43,25-20.27,39-25.54"/>
  <path class="cls-13" d="M122.09,1689.39c.23,7,.17,29,13.67,45,8.48,10,18.65,15.19,24.71,18.22,6.32,3.15,13.92,7,21.2,9.57a92.13,92.13,0,0,0,17.69,4.39c22.66,2.32,37.66-5.09,44.81-8.2,10.84-4.73,22.69-12.36,39.08-25.67,0,0,11.93-11.1,28-23,11.06-8.21,22.24-18,31.85-23.44"/>
  <path class="cls-13" d="M122.21,1689.43c.21,6.24-1.58,26.53,10.5,40.84,7.59,9,16,13.17,21.41,15.87,5.66,2.83,12.66,6.46,19.17,8.75a96.74,96.74,0,0,0,17.17,4.25c20.27,2.07,33.61-3.13,40-5.91,9.7-4.23,21-11.26,35.68-23.17,12.57-9.87,14.35-12.38,28.75-24.17,9.53-7.81,16.06-14,23.9-19.25"/>
  <path class="cls-13" d="M122.21,1689.43c.18,5.73.29,23.89,10.78,37,6.59,8.26,13.89,11.94,18.6,14.42,4.91,2.6,11,5.94,16.65,8a80.61,80.61,0,0,0,14.91,3.91c17.61,1.9,29.19-2.88,34.74-5.44,8.43-3.88,18.25-10.34,31-21.29,10.92-9.07,12.47-11.37,25-22.2,8.28-7.18,14.26-13.12,21.07-17.94"/>
  <path class="cls-13" d="M122.15,1689c.3,10.59,3.72,42,21.55,66.37a105.1,105.1,0,0,0,32.3,28.8,104,104,0,0,0,39.2,13.12c29.93,3.52,53-7.66,62.43-12.39,14.33-7.19,29.39-18.8,51.05-39,0,0,47.77-42.25,87.21-59.6"/>
  <path class="cls-13" d="M122.15,1689c.32,11.35-.34,46.33,18.78,72.39,12,16.38,28.18,25.58,36.76,30.5,18.7,10.74,36.52,12.47,42.88,13.21,32.08,3.78,56.8-8.21,66.91-13.28,15.36-7.7,32.61-20.57,55.83-42.26,0,0,53.18-44.32,95.46-62.92"/>
  <path class="cls-15" d="M253.94,1813.78c21.51-2.43,37.72-10.33,45.63-14.29,16.48-8.26,33.43-19.65,58.34-42.93,0,0,58.49-50.08,103.86-70"/>
  <path class="cls-13" d="M122.15,1689c.34,12.18-1.16,49.58,19.36,77.55,12.89,17.58,30.62,29,39.83,34.33,20.07,11.53,39.59,12,46.43,12.85a113.91,113.91,0,0,0,26.17,0"/>
  <line class="cls-1" x1="184.99" y1="1551.62" x2="184.99" y2="1625.35"/>
</svg>
