<svg id="Congo" xmlns="http://www.w3.org/2000/svg" width="890.18" height="2767.1" viewBox="0 0 890.18 2767.1">
  <defs>
    <style>
      .cls-1, .cls-10, .cls-11, .cls-13, .cls-2, .cls-7, .cls-8, .cls-9 {
        fill: none;
      }

      .cls-1, .cls-11 {
        stroke: #877d77;
      }

      .cls-1, .cls-10, .cls-11, .cls-13, .cls-2, .cls-7, .cls-9 {
        stroke-miterlimit: 10;
      }

      .cls-1, .cls-13, .cls-9 {
        stroke-width: 4px;
      }

      .cls-2 {
        stroke: #bfbfbf;
        stroke-width: 2px;
        stroke-dasharray: 3 2;
      }

      .cls-3 {
        fill: #ea877d;
      }

      .cls-4 {
        fill: #dd6553;
      }

      .cls-5 {
        fill: #bf6da0;
      }

      .cls-6 {
        fill: #ffcd71;
      }

      .cls-13, .cls-7 {
        stroke: #71babf;
      }

      .cls-10, .cls-11, .cls-7, .cls-8 {
        stroke-width: 3px;
        stroke-dasharray: 7 3;
      }

      .cls-10, .cls-8, .cls-9 {
        stroke: #85b645;
      }

      .cls-12 {
        fill: #ffb000;
      }
    </style>
  </defs>
  <title>VIZ2-CONGO</title>
  <path class="cls-1" d="M86.8,2686.64c-.51,3.42-.67,5.6-.67,5.6"/>
  <line class="cls-2" x1="777.5" y1="2710.52" x2="-1.38" y2="2710.52"/>
  <g>
    <path d="M369.27,52.51A16.06,16.06,0,0,1,363,45.83a21.75,21.75,0,0,1-2.21-10v-14a21.81,21.81,0,0,1,2.21-10,16.14,16.14,0,0,1,6.24-6.69,18,18,0,0,1,9.34-2.38,17.57,17.57,0,0,1,8.08,1.88,17.08,17.08,0,0,1,6.17,5.33,20.12,20.12,0,0,1,3.36,8h-7.35a11.35,11.35,0,0,0-2.23-4.27,11,11,0,0,0-3.67-2.9,9.87,9.87,0,0,0-13.5,4.73,14.5,14.5,0,0,0-1.31,6.34v14a14.58,14.58,0,0,0,1.31,6.33,9.78,9.78,0,0,0,3.65,4.23,10,10,0,0,0,5.49,1.5,10.48,10.48,0,0,0,4.37-.95,10.22,10.22,0,0,0,3.66-2.81,11.17,11.17,0,0,0,2.23-4.43h7.35a19.86,19.86,0,0,1-3.38,8A17.16,17.16,0,0,1,386.66,53a17.41,17.41,0,0,1-8.05,1.88A18.18,18.18,0,0,1,369.27,52.51Z"/>
    <path d="M413.9,52.53a16,16,0,0,1-6.31-6.61,21.06,21.06,0,0,1-2.23-9.9V21.54a21.06,21.06,0,0,1,2.23-9.9A16,16,0,0,1,413.9,5a20.15,20.15,0,0,1,18.85,0,16,16,0,0,1,6.31,6.61,21.06,21.06,0,0,1,2.23,9.9V36a21.06,21.06,0,0,1-2.23,9.9,16,16,0,0,1-6.31,6.61,20.23,20.23,0,0,1-18.85,0Zm15-6.16a9.58,9.58,0,0,0,3.72-4,13.29,13.29,0,0,0,1.32-6.06v-15a13.26,13.26,0,0,0-1.32-6.06,9.61,9.61,0,0,0-3.72-4.05,11.65,11.65,0,0,0-11.15,0A9.54,9.54,0,0,0,414,15.23a13.26,13.26,0,0,0-1.32,6.06v15A13.29,13.29,0,0,0,414,42.33a9.52,9.52,0,0,0,3.72,4,11.58,11.58,0,0,0,11.15,0Z"/>
    <path d="M452.89,3.22h6.51l25,39.52-.84.91V3.22h7.1V54.3h-6.58L459.15,15.38l.84-.91V54.3h-7.1Z"/>
    <path d="M538.25,26.81v8.93a21.89,21.89,0,0,1-2.21,10,16,16,0,0,1-6.28,6.71,18.31,18.31,0,0,1-9.4,2.37,19.54,19.54,0,0,1-9.51-2.23,15.68,15.68,0,0,1-6.35-6.31,19.26,19.26,0,0,1-2.25-9.46V21.78a21.69,21.69,0,0,1,2.22-10,16,16,0,0,1,6.27-6.69,18.23,18.23,0,0,1,9.41-2.38,17.74,17.74,0,0,1,8.1,1.88,17.17,17.17,0,0,1,6.2,5.33,19.86,19.86,0,0,1,3.38,8h-7.77a11,11,0,0,0-2.15-4.41,10.09,10.09,0,0,0-3.55-2.81,9.64,9.64,0,0,0-4.21-1,10.16,10.16,0,0,0-5.56,1.51,10,10,0,0,0-3.69,4.24,14.5,14.5,0,0,0-1.3,6.34V36.86a12,12,0,0,0,1.33,5.79,9.53,9.53,0,0,0,3.78,3.85,11.39,11.39,0,0,0,5.65,1.37,10.62,10.62,0,0,0,5.55-1.43,9.36,9.36,0,0,0,3.69-4.13,14.67,14.67,0,0,0,1.3-6.43V33.67H520.53V26.81Z"/>
    <path d="M557.34,52.53A16,16,0,0,1,551,45.92,21.06,21.06,0,0,1,548.8,36V21.54a21.06,21.06,0,0,1,2.23-9.9A16,16,0,0,1,557.34,5a20.13,20.13,0,0,1,18.84,0,15.91,15.91,0,0,1,6.31,6.61,21.07,21.07,0,0,1,2.24,9.9V36a21.07,21.07,0,0,1-2.24,9.9,16,16,0,0,1-6.31,6.61,20.21,20.21,0,0,1-18.84,0Zm15-6.16a9.54,9.54,0,0,0,3.73-4,13.29,13.29,0,0,0,1.32-6.06v-15a13.26,13.26,0,0,0-1.32-6.06,9.57,9.57,0,0,0-3.73-4.05,11.63,11.63,0,0,0-11.14,0,9.57,9.57,0,0,0-3.73,4.05,13.25,13.25,0,0,0-1.31,6.06v15a13.28,13.28,0,0,0,1.31,6.06,9.54,9.54,0,0,0,3.73,4,11.56,11.56,0,0,0,11.14,0Z"/>
    <path d="M413.4,111.54a37.94,37.94,0,0,1,0-24.78,30.12,30.12,0,0,1,6.25-10.13l3.28,3a26.6,26.6,0,0,0-5.3,8.82,33.59,33.59,0,0,0,0,21.46,26.79,26.79,0,0,0,5.3,8.84l-3.28,3A30.12,30.12,0,0,1,413.4,111.54Z"/>
    <path d="M427.61,80.26h4.79v34.08h-4.79Zm3.24,29.53h7.71a8.19,8.19,0,0,0,5.85-2,7.22,7.22,0,0,0,2.07-5.52v-10a7.25,7.25,0,0,0-2.07-5.52,8.24,8.24,0,0,0-5.85-2h-7.71V80.26h7.57a15.82,15.82,0,0,1,7,1.43,10,10,0,0,1,4.43,4.17,13.48,13.48,0,0,1,1.52,6.61v9.66a13.51,13.51,0,0,1-1.52,6.61,10,10,0,0,1-4.45,4.17,15.82,15.82,0,0,1-7,1.43h-7.55Z"/>
    <path d="M459.11,80.24h4.79v34.1h-4.79Zm2.09,15.14h11.62a4.32,4.32,0,0,0,4.05-2.52,7.06,7.06,0,0,0,0-5.56,4.29,4.29,0,0,0-4.05-2.52H461.2V80.24h11.44a10.7,10.7,0,0,1,5.19,1.21,8.63,8.63,0,0,1,3.47,3.46,11.44,11.44,0,0,1,0,10.34,8.62,8.62,0,0,1-3.48,3.45,10.59,10.59,0,0,1-5.17,1.22H461.2Zm9.28,3.49,4.76-1.08L484,114.34h-5.67Z"/>
    <path d="M495.34,113.12a10.65,10.65,0,0,1-4.16-4.45A14.42,14.42,0,0,1,489.7,102V92.63A14.42,14.42,0,0,1,491.18,86a10.68,10.68,0,0,1,4.16-4.46,12,12,0,0,1,6.22-1.58A11.78,11.78,0,0,1,507,81.16a11.4,11.4,0,0,1,4.11,3.55A13.36,13.36,0,0,1,513.3,90h-4.9a7.5,7.5,0,0,0-1.49-2.85,7.3,7.3,0,0,0-2.44-1.93,6.59,6.59,0,0,0-9,3.15,9.68,9.68,0,0,0-.87,4.23V102a9.65,9.65,0,0,0,.87,4.21A6.62,6.62,0,0,0,497.9,109a6.73,6.73,0,0,0,3.66,1,7,7,0,0,0,2.92-.63,6.85,6.85,0,0,0,2.43-1.87,7.33,7.33,0,0,0,1.49-3h4.9a13.18,13.18,0,0,1-2.25,5.32,11.32,11.32,0,0,1-4.12,3.55,11.61,11.61,0,0,1-5.37,1.26A12.05,12.05,0,0,1,495.34,113.12Z"/>
    <path d="M516.35,118.72a27,27,0,0,0,5.3-8.84,33.77,33.77,0,0,0,0-21.46,26.77,26.77,0,0,0-5.3-8.82l3.28-3a30.44,30.44,0,0,1,6.25,10.13,38.12,38.12,0,0,1,0,24.78,30.44,30.44,0,0,1-6.25,10.13Z"/>
  </g>
  <path class="cls-3" d="M797.28,2706a61.21,61.21,0,1,1-61.21-61.09A61.14,61.14,0,0,1,797.28,2706Z"/>
  <g>
    <path d="M715.7,2721.09a10,10,0,0,1-2.4-7.13v-15.49c0-3.06.8-5.44,2.42-7.14s3.95-2.54,7-2.54,5.45.85,7,2.53,2.4,4.07,2.4,7.15V2714c0,3.07-.8,5.44-2.41,7.14s-4,2.54-7,2.54S717.31,2722.79,715.7,2721.09Zm10.69-3.32a5.57,5.57,0,0,0,1.18-3.81v-15.49a5.6,5.6,0,0,0-1.17-3.81,5.69,5.69,0,0,0-7.29,0,5.65,5.65,0,0,0-1.16,3.81V2714a5.57,5.57,0,0,0,1.17,3.81,5.63,5.63,0,0,0,7.27,0Z"/>
    <path d="M735.73,2718.28h4.87v5h-4.87Z"/>
    <path d="M752.12,2723.29h-4.65v-28.87l-4.72,3v-4.94l4.72-3.24h4.65Z"/>
  </g>
  <line class="cls-2" x1="568.5" y1="2709.52" x2="-0.38" y2="2709.52"/>
  <path class="cls-4" d="M607.38,2702.83a61,61,0,0,1-60.82,61.09c-33.59,0-60.83-25.35-60.83-59.09s27.24-63.08,60.83-63.08A61,61,0,0,1,607.38,2702.83Z"/>
  <g>
    <path d="M523.05,2717.42a10,10,0,0,1-2.4-7.13V2694.8a10,10,0,0,1,2.42-7.14c1.61-1.69,3.95-2.54,7-2.54s5.45.85,7,2.53,2.4,4.07,2.4,7.15v15.49q0,4.61-2.41,7.14c-1.61,1.7-4,2.54-7,2.54S524.66,2719.12,523.05,2717.42Zm10.69-3.32a5.57,5.57,0,0,0,1.18-3.81V2694.8a5.6,5.6,0,0,0-1.17-3.81,5.69,5.69,0,0,0-7.29,0,5.65,5.65,0,0,0-1.16,3.81v15.49a5.57,5.57,0,0,0,1.17,3.81,5.63,5.63,0,0,0,7.27,0Z"/>
    <path d="M543.08,2714.61H548v5h-4.87Z"/>
    <path d="M551,2710.25l11.12-24.68h4.79L556.07,2710h16.25v4.43H551Zm14.29-10.67h4.54v20.07H565.3Z"/>
  </g>
  <path class="cls-5" d="M416,2705.64a60.76,60.76,0,1,1-60.76-61.09A60.92,60.92,0,0,1,416,2705.64Z"/>
  <path d="M341.5,2713l11.12-24.68h4.79l-10.85,24.4h16.25v4.43H341.5Zm14.29-10.66h4.54v20.06h-4.54Z"/>
  <line class="cls-2" x1="0.05" y1="2692.47" x2="259.42" y2="2692.47"/>
  <line class="cls-2" x1="149.14" y1="2555.81" x2="149.14" y2="2691.95"/>
  <path class="cls-6" d="M210.36,2690.82a61,61,0,0,1-60.82,61.08c-33.6,0-60.83-25.34-60.83-59.08s27.23-63.09,60.83-63.09A61,61,0,0,1,210.36,2690.82Z"/>
  <g>
    <path d="M142,2709.28h-4.65V2680.4l-4.72,3v-5l4.72-3.23H142Z"/>
    <path d="M150.28,2708.42a7.81,7.81,0,0,1-3.16-3.52,13,13,0,0,1-1.08-5.56v0a19.56,19.56,0,0,1,.44-4,22.5,22.5,0,0,1,1.25-4.1,7.17,7.17,0,0,1,.3-.69c.1-.23.21-.45.31-.67l7.21-14.67h5l-8.46,17,0-.84a4,4,0,0,1,1.66-1.71,5.12,5.12,0,0,1,2.55-.61,7.92,7.92,0,0,1,4.42,1.19,7.48,7.48,0,0,1,2.81,3.48,14.22,14.22,0,0,1,1,5.5v0a13.4,13.4,0,0,1-1.08,5.63,7.77,7.77,0,0,1-3.17,3.56,10.88,10.88,0,0,1-10,0Zm8.4-4.79a6,6,0,0,0,1.19-4v0a6.86,6.86,0,0,0-1.25-4.42,4.32,4.32,0,0,0-3.58-1.56,3.73,3.73,0,0,0-3.21,1.57,7.44,7.44,0,0,0-1.14,4.43v0a6,6,0,0,0,1.2,4,4.83,4.83,0,0,0,6.79,0Z"/>
  </g>
  <path class="cls-7" d="M149.64,2555.3c-4.83,6.84-8.86,13.22-16.18,21.41-11.62,13-10.08,11.95-19.17,22.92-11,12.8-17.34,22.38-21.23,30.85-1.28,2.78-6.86,15.8-7.66,27.66a207.86,207.86,0,0,0,.4,30"/>
  <path class="cls-8" d="M90.21,2717.72a44,44,0,0,0,6.94,12.83c6.59,8.26,12.88,14.35,17.6,16.82,5.25,2.75,10.68,5.91,16.5,7.5,8.25,2.25,13.92,2.8,15.75,2.75,21.69-.55,29.49-3.58,35.05-6.14,8.43-3.88,18.25-10.34,31-21.29,8.69-7.22,11.45-10.15,18.51-16.51"/>
  <path class="cls-9" d="M86.31,2693.07c.12,4,.24,14.32,3.9,24.65"/>
  <path class="cls-10" d="M231.55,2713.68c1.82-1.63,3.91-3.48,6.46-5.69,8.28-7.18,15.16-10.77,22-15.6"/>
  <path class="cls-11" d="M260,2692.39c-6.85-4.85-11.19-10.73-19.52-17.95-12.58-10.9-14.14-13.21-25.13-22.34-12.82-11-22.71-17.51-31.19-21.41-5.59-2.58-17.24-7.39-35-5.47a80.5,80.5,0,0,0-15,3.93c-.57.21-5.56,1.59-15.8,7-4.74,2.5-13,9.29-19.67,17.61-7.52,9.42-10.69,24.69-11.9,32.88"/>
  <path class="cls-1" d="M292.13,2702c-.51,3.43-.75,7.27-.75,7.27"/>
  <path class="cls-11" d="M465.31,2707.73c-6.85-4.86-11.18-10.73-19.52-17.95-12.58-10.9-14.14-13.21-25.13-22.34-12.82-11-22.7-17.51-31.19-21.42-5.59-2.58-17.24-7.38-35-5.47a73.55,73.55,0,0,0-15.26,3.32c-.57.21-6,1.84-16.25,7.25-4.74,2.5-12.34,9.66-19,18-7.52,9.43-10.69,24.7-11.9,32.88"/>
  <line class="cls-2" x1="1.43" y1="2047.9" x2="411.33" y2="2047.9"/>
  <path class="cls-12" d="M244.93,2048.77a61,61,0,0,1-60.82,61.09c-33.59,0-60.82-25.35-60.82-59.09s27.23-63.08,60.82-63.08A61,61,0,0,1,244.93,2048.77Z"/>
  <g>
    <path d="M157.33,2065.57a8.17,8.17,0,0,1-3.17-2.93,11.83,11.83,0,0,1-1.62-4.61v0h4.64v0a4.48,4.48,0,0,0,1.46,2.91,4.65,4.65,0,0,0,3.15,1,4.13,4.13,0,0,0,3.45-1.54,6.79,6.79,0,0,0,1.22-4.32v-2.86a6.75,6.75,0,0,0-1.22-4.3,4.13,4.13,0,0,0-3.45-1.54,4.32,4.32,0,0,0-2.33.71,6.53,6.53,0,0,0-2,2h-4.24v-17.95h16.89v4.55H157.91v7.66a6.59,6.59,0,0,1,1.94-1.12,6.11,6.11,0,0,1,2.19-.4,9.34,9.34,0,0,1,4.91,1.22,7.74,7.74,0,0,1,3.1,3.56,13.76,13.76,0,0,1,1.06,5.65v2.86a13.3,13.3,0,0,1-1.1,5.65,7.88,7.88,0,0,1-3.19,3.57,9.74,9.74,0,0,1-5,1.23A9.61,9.61,0,0,1,157.33,2065.57Z"/>
    <path d="M178.86,2065.54a8.52,8.52,0,0,1-3.41-3,11.11,11.11,0,0,1-1.63-4.77h4.74a5.4,5.4,0,0,0,.89,2.4,4.17,4.17,0,0,0,1.77,1.39,6.58,6.58,0,0,0,2.54.46,4.85,4.85,0,0,0,3.58-1.27,4.78,4.78,0,0,0,1.27-3.56v-1a5.86,5.86,0,0,0-1.2-4,4.3,4.3,0,0,0-3.42-1.4h-2.35v-4.54H184a3.84,3.84,0,0,0,3-1.2,4.9,4.9,0,0,0,1.07-3.37v-1.06a4.19,4.19,0,0,0-1.13-3.12,4.41,4.41,0,0,0-3.2-1.1,4.82,4.82,0,0,0-2.12.46,4,4,0,0,0-1.59,1.41,6.38,6.38,0,0,0-.94,2.38h-4.72a12.66,12.66,0,0,1,1.72-4.79,8.55,8.55,0,0,1,3.2-3,9.28,9.28,0,0,1,4.45-1,9,9,0,0,1,6.63,2.32,8.81,8.81,0,0,1,2.34,6.54v.56a7.46,7.46,0,0,1-1.34,4.45,7.58,7.58,0,0,1-3.81,2.77,6.77,6.77,0,0,1,4.21,2.74,9.32,9.32,0,0,1,1.49,5.44v.56a10.81,10.81,0,0,1-1.11,5.09,7.57,7.57,0,0,1-3.25,3.21,12.31,12.31,0,0,1-10,.06Z"/>
    <path d="M196.62,2062.08l11.55-15.84a11.79,11.79,0,0,0,1.56-2.83,7.69,7.69,0,0,0,.56-2.73v0a4.23,4.23,0,0,0-1.16-3.17,4.58,4.58,0,0,0-3.31-1.12,4.49,4.49,0,0,0-3.28,1.23,5.74,5.74,0,0,0-1.53,3.48v0h-4.8v0a13,13,0,0,1,1.67-5,8.61,8.61,0,0,1,3.27-3.16,9.51,9.51,0,0,1,4.63-1.09,11.36,11.36,0,0,1,5.06,1,7.27,7.27,0,0,1,3.19,3,10,10,0,0,1,1.09,4.8v0a10.75,10.75,0,0,1-.73,3.77,16.45,16.45,0,0,1-2,3.8l-9.59,13.4H215.3v4.55H196.62Z"/>
  </g>
  <path class="cls-13" d="M120.29,2046.09c.17,1.4.33,2.74.47,4"/>
  <path class="cls-7" d="M142,1966c-7.58,9.7-13.34,18.69-16.37,25.28-1.28,2.79-6.5,12.8-7.3,24.67-.69,10.22.89,21.56,2,30.17"/>
  <path class="cls-7" d="M180.4,1918.73A155.81,155.81,0,0,1,168,1934.67c-11.61,13-10.07,11.95-19.16,22.91-2.43,2.83-4.72,5.64-6.87,8.39"/>
  <path class="cls-7" d="M184.21,1913.25l-2.71,4.2"/>
  <path class="cls-9" d="M120.56,2049.1c.2,7.15,2.53,38.18,19.67,61.54,10.28,14,22.16,20.29,29.5,24.5a95.19,95.19,0,0,0,36,12,101,101,0,0,0,56.63-9.42c13.14-6.59,26.95-16.24,46.82-34.8,0,0,43.81-39.75,80-55.67"/>
  <path class="cls-9" d="M120.63,2049.1c.16,5.33-.47,33.65,15.21,53a85.69,85.69,0,0,0,26.63,21.84c14.59,7.57,33.21,12.3,38.17,12.83a98.36,98.36,0,0,0,51.45-8.33c12-5.43,23.71-13.2,41.82-28.5,0,0,14.65-12.16,32.36-25.84,12.22-9.43,25-21.27,39-26.54"/>
  <path class="cls-9" d="M120.56,2049.1c.14,4.24-.33,29.46,13.93,46.36,8.48,10.05,18.65,15.2,24.71,18.22,6.32,3.16,13.92,7,21.2,9.57a92.23,92.23,0,0,0,17.69,4.4c22.65,2.31,37.66-5.1,44.81-8.21,10.84-4.73,22.69-11.35,39.08-24.67,0,0,11.93-11.1,28-23,11.06-8.2,22.24-19,31.85-24.44"/>
  <path class="cls-9" d="M120.63,2049.1c.2,6.23-1.27,27.88,10.81,42.19,7.59,9,16,13.17,21.41,15.88,5.66,2.82,12.65,6.46,19.17,8.75a98.61,98.61,0,0,0,17.17,4.25c20.27,2.07,33.6-3.13,40-5.92,9.7-4.23,21-10.25,35.68-22.17,12.57-9.87,14.35-12.37,28.75-24.16,9.53-7.81,16.05-15,23.9-20.25"/>
  <path class="cls-9" d="M120.63,2049.1c.09,3.07-.17,24.29,11.09,38.4,6.59,8.27,12.57,13.64,17.28,16.12a145.64,145.64,0,0,0,16.5,7.5c6.15,2.29,14.56,2.56,16.38,2.75,17.61,1.91,29.19-2.88,34.74-5.43,8.43-3.89,18.25-10.35,31-21.29,10.92-9.08,12.47-10.37,25-21.21,8.28-7.18,14.26-14.12,21.07-18.94"/>
  <path class="cls-10" d="M180.64,2148.34a103.05,103.05,0,0,0,33.29,10c29.93,3.52,53-7.66,62.43-12.39,14.32-7.18,29.39-17.79,51.05-38,0,0,47.77-43.25,87.21-60.61"/>
  <path class="cls-9" d="M120.63,2049.1c.22,8,3.19,41.92,21.8,67.3a105,105,0,0,0,32.3,28.79q3,1.72,5.91,3.15"/>
  <line class="cls-2" x1="183.72" y1="1913.64" x2="183.72" y2="1987.38"/>
</svg>
