<svg id="China" xmlns="http://www.w3.org/2000/svg" width="890.18" height="2767.1" viewBox="0 0 890.18 2767.1">
  <defs>
    <style>
      .cls-1, .cls-10, .cls-12, .cls-13, .cls-14, .cls-16, .cls-3, .cls-4, .cls-6, .cls-7, .cls-9 {
        fill: none;
      }

      .cls-1 {
        stroke: #bfbfbf;
        stroke-width: 2px;
        stroke-dasharray: 3 2;
      }

      .cls-1, .cls-10, .cls-12, .cls-13, .cls-14, .cls-3, .cls-4, .cls-6 {
        stroke-miterlimit: 10;
      }

      .cls-2 {
        fill: #ea877d;
      }

      .cls-3, .cls-4, .cls-9 {
        stroke: #877d77;
      }

      .cls-12, .cls-14, .cls-16, .cls-3, .cls-6, .cls-9 {
        stroke-width: 4px;
      }

      .cls-10, .cls-13, .cls-4, .cls-7 {
        stroke-width: 3px;
        stroke-dasharray: 7 3;
      }

      .cls-5 {
        fill: #dd6553;
      }

      .cls-10, .cls-16, .cls-6, .cls-7 {
        stroke: #71babf;
      }

      .cls-8 {
        fill: #bf6da0;
      }

      .cls-11 {
        fill: #ffcd71;
      }

      .cls-12 {
        stroke: #969696;
      }

      .cls-13, .cls-14 {
        stroke: #85b645;
      }

      .cls-15 {
        fill: #ffb000;
      }
    </style>
  </defs>
  <title>VIZ2-CHINA</title>
  <g>
    <path d="M379,52.51a15.93,15.93,0,0,1-6.24-6.68,21.63,21.63,0,0,1-2.22-10v-14a21.69,21.69,0,0,1,2.22-10A16,16,0,0,1,379,5.07a17.94,17.94,0,0,1,9.33-2.38,17.61,17.61,0,0,1,8.09,1.88,17.08,17.08,0,0,1,6.17,5.33,20.12,20.12,0,0,1,3.36,8h-7.35a11.5,11.5,0,0,0-2.23-4.27,11,11,0,0,0-3.68-2.9,10.3,10.3,0,0,0-9.84.49,10.07,10.07,0,0,0-3.66,4.24,14.5,14.5,0,0,0-1.3,6.34v14a14.58,14.58,0,0,0,1.3,6.33,9.86,9.86,0,0,0,3.66,4.23,10,10,0,0,0,5.48,1.5,10.53,10.53,0,0,0,4.38-.95,10.4,10.4,0,0,0,3.66-2.81,11.31,11.31,0,0,0,2.23-4.43h7.35a20,20,0,0,1-3.38,8A17.19,17.19,0,0,1,396.36,53a17.38,17.38,0,0,1-8.05,1.88A18.11,18.11,0,0,1,379,52.51Z"/>
    <path d="M416.12,3.22h7.17V54.34h-7.17Zm4.47,22.54H449v6.82H420.59ZM445.16,3.22h7.17V54.34h-7.17Z"/>
    <path d="M472.16,54.34H465V3.22h7.17Z"/>
    <path d="M484.82,3.22h6.5l25,39.52-.85.91V3.22h7.1V54.3H516L491.07,15.38l.85-.91V54.3h-7.1Z"/>
    <path d="M549.15,3.22h6.12l18.84,51.12h-7.73L552.21,13.1,538,54.34h-7.73ZM539,36.3h26.9v6.82H539Z"/>
  </g>
  <line class="cls-1" x1="888" y1="2706.55" x2="0.25" y2="2706.55"/>
  <path class="cls-2" d="M837.28,2706a61.21,61.21,0,1,1-61.21-61.09A61.14,61.14,0,0,1,837.28,2706Z"/>
  <path class="cls-3" d="M711.43,2700.61c-.51,3.42-.67,5.61-.67,5.61"/>
  <path class="cls-4" d="M889.13,2706.76c-6.85-4.85-15.7-11.12-24-18.34-12.58-10.9-14.14-13.22-25.13-22.35-12.82-11-22.7-17.5-31.19-21.41-5.59-2.58-17.24-7.39-35-5.47a81.33,81.33,0,0,0-15,3.93c-.57.21-5.55,1.59-15.8,7-4.74,2.5-13,9.3-19.67,17.61-7.52,9.43-10.68,24.7-11.9,32.88"/>
  <path d="M771.43,2721.3a8.17,8.17,0,0,1-3.17-2.93,12,12,0,0,1-1.63-4.62v0h4.65v0a4.51,4.51,0,0,0,1.46,2.92,4.63,4.63,0,0,0,3.15,1,4.18,4.18,0,0,0,3.45-1.54,6.79,6.79,0,0,0,1.22-4.32V2709a6.75,6.75,0,0,0-1.22-4.3,4.16,4.16,0,0,0-3.45-1.54,4.37,4.37,0,0,0-2.33.7,6.69,6.69,0,0,0-2,2h-4.24v-17.95h16.89v4.55H772v7.66A6.47,6.47,0,0,1,774,2699a6.11,6.11,0,0,1,2.19-.4,9.34,9.34,0,0,1,4.91,1.22,7.74,7.74,0,0,1,3.1,3.56,13.73,13.73,0,0,1,1.06,5.65v2.86a13.22,13.22,0,0,1-1.1,5.64,7.86,7.86,0,0,1-3.19,3.58,9.79,9.79,0,0,1-5,1.23A9.58,9.58,0,0,1,771.43,2721.3Z"/>
  <path class="cls-3" d="M506.44,2649a102.74,102.74,0,0,0-3,21.12"/>
  <path class="cls-3" d="M533.07,2615c-4.74,2.5-12.09,8.21-18.72,16.53-3.81,4.76-6.29,11.24-7.91,17.53"/>
  <path class="cls-4" d="M677.43,2668.73a250.61,250.61,0,0,1-21.27-16.55C643.57,2641.28,642,2639,631,2629.84c-12.82-11-22.71-17.51-31.19-21.42-5.59-2.57-17.25-7.38-35-5.47a82.18,82.18,0,0,0-15,3.93c-5.7,2.12-11.81,5.48-16.76,8.09"/>
  <line class="cls-1" x1="-0.5" y1="2669.96" x2="676.18" y2="2669.96"/>
  <line class="cls-1" x1="565.16" y1="2536.08" x2="565.16" y2="2609.44"/>
  <path class="cls-5" d="M626.38,2670.83a61,61,0,0,1-60.82,61.09c-33.59,0-60.83-25.35-60.83-59.09s27.24-63.08,60.83-63.08A61,61,0,0,1,626.38,2670.83Z"/>
  <g>
    <path d="M547.65,2687.6a8.43,8.43,0,0,1-3.4-3,11,11,0,0,1-1.63-4.77h4.74a5.09,5.09,0,0,0,.89,2.39,4.11,4.11,0,0,0,1.76,1.4,6.58,6.58,0,0,0,2.54.46,4.87,4.87,0,0,0,3.58-1.27,4.79,4.79,0,0,0,1.28-3.56v-1a5.87,5.87,0,0,0-1.21-4,4.3,4.3,0,0,0-3.42-1.4h-2.35v-4.54h2.35a3.84,3.84,0,0,0,3-1.2,4.9,4.9,0,0,0,1.07-3.37v-1.06a4.19,4.19,0,0,0-1.13-3.12,4.41,4.41,0,0,0-3.2-1.1,4.69,4.69,0,0,0-2.12.46,4,4,0,0,0-1.58,1.41,6.4,6.4,0,0,0-1,2.37h-4.72a12.78,12.78,0,0,1,1.72-4.78,8.5,8.5,0,0,1,3.21-3,9.27,9.27,0,0,1,4.44-1,9,9,0,0,1,6.63,2.32,8.76,8.76,0,0,1,2.35,6.54v.56a7.47,7.47,0,0,1-1.35,4.45,7.56,7.56,0,0,1-3.8,2.77,6.68,6.68,0,0,1,4.2,2.74,9.24,9.24,0,0,1,1.49,5.44v.56a10.81,10.81,0,0,1-1.11,5.09,7.57,7.57,0,0,1-3.25,3.21,12.31,12.31,0,0,1-10,.06Z"/>
    <path d="M565.45,2678.91l11.12-24.68h4.79l-10.85,24.4h16.25v4.43H565.45Zm14.29-10.66h4.54v20.06h-4.54Z"/>
  </g>
  <path class="cls-6" d="M500.4,2664c.44,2.6,1.49,6.05,1.8,8.11"/>
  <path class="cls-7" d="M565.66,2535.31c-4.83,6.84-8.86,13.22-16.18,21.42-11.62,13-10.08,11.95-19.17,22.91-11,12.8-19.34,25.2-23.23,33.67-1.28,2.79-6.5,12.8-7.3,24.67a155.12,155.12,0,0,0,.62,26"/>
  <line class="cls-1" x1="461.26" y1="2659.64" x2="0.25" y2="2659.64"/>
  <path class="cls-8" d="M412,2659.64a60.76,60.76,0,1,1-60.76-61.09A60.92,60.92,0,0,1,412,2659.64Z"/>
  <line class="cls-1" x1="352.63" y1="2525.06" x2="352.63" y2="2599.72"/>
  <path class="cls-3" d="M305.14,2614.55a78.69,78.69,0,0,0-6.34,7.08C288.22,2635,288,2660.28,288,2660.28"/>
  <path class="cls-9" d="M352.16,2592.8c-1.06.07-2.15.16-3.25.29A79.51,79.51,0,0,0,334,2597c-5.64,2.11-11.71,5.47-16.62,8.09a56.57,56.57,0,0,0-12.24,9.44"/>
  <path class="cls-4" d="M461.26,2659.64c-1.14-1-2.32-2-3.56-3.06-12.49-10.9-32.23-27.48-43.14-36.61-12.73-11-22.54-17.51-31-21.41a62,62,0,0,0-31.44-5.76"/>
  <path class="cls-6" d="M285.58,2650.62c.63,4.21,1.46,5.43,2.33,8.32"/>
  <path class="cls-10" d="M288.93,2610a88.36,88.36,0,0,0-4.2,19.47,122.83,122.83,0,0,0,.15,19.14,21.11,21.11,0,0,1,.2,2.13"/>
  <path class="cls-10" d="M351.3,2524.11c-4.83,6.84-8.85,13.23-16.17,21.42-11.6,13-10.06,11.95-19.14,22.92-10.95,12.79-19.32,23.2-23.21,31.66-.63,1.39-2.25,4.58-3.81,8.9"/>
  <g>
    <path d="M328.5,2667l11.12-24.68h4.79l-10.85,24.4h16.25v4.43H328.5Zm14.29-10.66h4.54v20.06h-4.54Z"/>
    <path d="M369.87,2646.52l-8.57,29.82h-4.95l8.57-29.53h-8.43v4.89h-4.65v-9.44h18Z"/>
  </g>
  <line class="cls-1" x1="-1.67" y1="2583.95" x2="257.71" y2="2583.95"/>
  <path class="cls-11" d="M210.36,2581.82a61,61,0,0,1-60.82,61.08c-33.6,0-60.83-25.34-60.83-59.08s27.23-63.09,60.83-63.09A61,61,0,0,1,210.36,2581.82Z"/>
  <g>
    <path d="M130,2600.28h-4.65V2571.4l-4.72,3v-5l4.72-3.23H130Z"/>
    <path d="M137.13,2598.07a10,10,0,0,1-2.4-7.12v-15.49q0-4.61,2.41-7.14c1.61-1.7,4-2.54,7-2.54s5.45.84,7.06,2.53,2.4,4.07,2.4,7.15V2591a10,10,0,0,1-2.41,7.13c-1.62,1.7-4,2.55-7,2.55S138.73,2599.78,137.13,2598.07Zm10.69-3.31A5.6,5.6,0,0,0,149,2591v-15.49a5.62,5.62,0,0,0-1.16-3.81,5.66,5.66,0,0,0-7.29,0,5.57,5.57,0,0,0-1.17,3.81V2591a5.6,5.6,0,0,0,1.18,3.81,5.67,5.67,0,0,0,7.27,0Z"/>
    <path d="M157.22,2596.13l11.56-15.85a12.25,12.25,0,0,0,1.56-2.82,7.78,7.78,0,0,0,.56-2.73v-.05a4.17,4.17,0,0,0-1.17-3.16,4.54,4.54,0,0,0-3.3-1.13,4.48,4.48,0,0,0-3.28,1.23,5.63,5.63,0,0,0-1.53,3.48v0h-4.81v0a13,13,0,0,1,1.68-5,8.54,8.54,0,0,1,3.27-3.16,9.47,9.47,0,0,1,4.62-1.09,11.19,11.19,0,0,1,5.06,1,7.2,7.2,0,0,1,3.19,3,9.85,9.85,0,0,1,1.1,4.81v0a11,11,0,0,1-.73,3.78,16.39,16.39,0,0,1-2,3.79l-9.59,13.41h12.53v4.55H157.22Z"/>
  </g>
  <path class="cls-12" d="M86.68,2577.79c-.36,3.8-.37,6.28-.37,6.28"/>
  <path class="cls-4" d="M229.73,2555.89c-2.29-2.07-13.17-10.74-16.75-13.73-12.75-11-22.57-17.51-31-21.42-5.55-2.58-17.13-7.39-34.73-5.47a80.17,80.17,0,0,0-14.92,3.93c-5.66,2.12-11.74,5.48-16.65,8.09-4.71,2.5-12,10.21-18.6,18.52-7.25,9.15-9.62,23.71-10.4,32"/>
  <path class="cls-4" d="M260,2583.39c-6.81-4.85-13.75-12.67-22-19.89s-3.55-3.37-8.22-7.61"/>
  <path class="cls-6" d="M85.8,2571c.12,3.86.37,9.66.51,13.09"/>
  <path class="cls-10" d="M149.64,2446.3c-4.83,6.84-8.86,13.22-16.18,21.41-11.62,13-10.08,11.95-19.17,22.92-11,12.8-17.34,22.38-21.23,30.85-1.28,2.78-6.86,15.8-7.66,27.66a111.39,111.39,0,0,0,.1,21.85"/>
  <path class="cls-13" d="M231.55,2604.68c1.82-1.63,3.91-3.48,6.46-5.69,8.28-7.18,15.16-10.77,22-15.6"/>
  <path class="cls-14" d="M86.31,2584.07c.17,5.73.34,24.33,10.84,37.48,6.59,8.26,12.88,14.35,17.6,16.82,5.25,2.75,10.68,5.91,16.5,7.5,8.25,2.25,13.92,2.8,15.75,2.75,21.69-.55,29.49-3.58,35.05-6.14,8.43-3.88,18.25-10.34,31-21.29,8.69-7.22,11.45-10.15,18.51-16.51"/>
  <line class="cls-1" x1="149.14" y1="2446.81" x2="149.14" y2="2520.42"/>
  <line class="cls-1" x1="1.43" y1="1654.9" x2="437.33" y2="1654.9"/>
  <path class="cls-15" d="M244.93,1655.77a61,61,0,0,1-60.82,61.09c-33.59,0-60.82-25.35-60.82-59.09s27.23-63.08,60.82-63.08A61,61,0,0,1,244.93,1655.77Z"/>
  <g>
    <path d="M155,1672.41a8.37,8.37,0,0,1-3.52-3.32,9.74,9.74,0,0,1-1.25-5v-.56a9.8,9.8,0,0,1,1.25-4.81,8.32,8.32,0,0,1,3.31-3.39,7.33,7.33,0,0,1-2.81-2.85,7.78,7.78,0,0,1-1.06-3.93v-.82a9.23,9.23,0,0,1,1.16-4.7,8,8,0,0,1,3.28-3.14,11.48,11.48,0,0,1,9.85,0,8,8,0,0,1,3.28,3.14,9.33,9.33,0,0,1,1.16,4.7v.82a7.71,7.71,0,0,1-1.08,4,7.31,7.31,0,0,1-2.86,2.82,8.68,8.68,0,0,1,3.36,3.41,9.61,9.61,0,0,1,1.26,4.79v.56a9.74,9.74,0,0,1-1.24,5,8.42,8.42,0,0,1-3.52,3.32,12.52,12.52,0,0,1-10.57,0Zm8.13-4.08a4.62,4.62,0,0,0,1.9-1.84,5.42,5.42,0,0,0,.68-2.73v-.33a5.47,5.47,0,0,0-.68-2.75,4.62,4.62,0,0,0-1.9-1.84,6.48,6.48,0,0,0-5.7,0,4.64,4.64,0,0,0-1.9,1.85,5.54,5.54,0,0,0-.67,2.77v.35a5.38,5.38,0,0,0,.67,2.72,4.61,4.61,0,0,0,1.9,1.81,6.05,6.05,0,0,0,2.85.65A5.94,5.94,0,0,0,163.09,1668.33ZM162.7,1653a4.32,4.32,0,0,0,1.67-1.77,5.78,5.78,0,0,0,.59-2.65v-.33a5.31,5.31,0,0,0-.59-2.53,4.21,4.21,0,0,0-1.67-1.7,4.93,4.93,0,0,0-2.46-.6,5,5,0,0,0-2.46.6,4.18,4.18,0,0,0-1.66,1.7,5.25,5.25,0,0,0-.59,2.55v.36a5.52,5.52,0,0,0,.59,2.61,4.27,4.27,0,0,0,1.66,1.76,4.89,4.89,0,0,0,2.46.62A4.83,4.83,0,0,0,162.7,1653Z"/>
    <path d="M178.46,1672.41a8.45,8.45,0,0,1-3.53-3.32,9.84,9.84,0,0,1-1.24-5v-.56a9.9,9.9,0,0,1,1.24-4.81,8.41,8.41,0,0,1,3.32-3.39,7.33,7.33,0,0,1-2.81-2.85,7.78,7.78,0,0,1-1.06-3.93v-.82a9.23,9.23,0,0,1,1.16-4.7,8,8,0,0,1,3.28-3.14,11.46,11.46,0,0,1,9.84,0,8,8,0,0,1,3.29,3.14,9.33,9.33,0,0,1,1.16,4.7v.82a7.71,7.71,0,0,1-1.08,4,7.37,7.37,0,0,1-2.86,2.82,8.75,8.75,0,0,1,3.36,3.41,9.61,9.61,0,0,1,1.26,4.79v.56a9.74,9.74,0,0,1-1.24,5,8.42,8.42,0,0,1-3.52,3.32,12.52,12.52,0,0,1-10.57,0Zm8.13-4.08a4.68,4.68,0,0,0,1.9-1.84,5.42,5.42,0,0,0,.68-2.73v-.33a5.47,5.47,0,0,0-.68-2.75,4.68,4.68,0,0,0-1.9-1.84,6.48,6.48,0,0,0-5.7,0,4.64,4.64,0,0,0-1.9,1.85,5.54,5.54,0,0,0-.67,2.77v.35a5.38,5.38,0,0,0,.67,2.72,4.61,4.61,0,0,0,1.9,1.81,6.05,6.05,0,0,0,2.85.65A5.94,5.94,0,0,0,186.59,1668.33ZM186.2,1653a4.32,4.32,0,0,0,1.67-1.77,5.78,5.78,0,0,0,.59-2.65v-.33a5.31,5.31,0,0,0-.59-2.53,4.21,4.21,0,0,0-1.67-1.7,5.34,5.34,0,0,0-4.92,0,4.18,4.18,0,0,0-1.66,1.7,5.25,5.25,0,0,0-.6,2.55v.36a5.52,5.52,0,0,0,.6,2.61,4.27,4.27,0,0,0,1.66,1.76,5.19,5.19,0,0,0,4.92,0Z"/>
    <path d="M201.2,1672.54a8.52,8.52,0,0,1-3.41-3,11.1,11.1,0,0,1-1.62-4.77h4.74a5.28,5.28,0,0,0,.88,2.4,4.17,4.17,0,0,0,1.77,1.39,6.58,6.58,0,0,0,2.54.46,4.83,4.83,0,0,0,3.58-1.27,4.78,4.78,0,0,0,1.27-3.56v-1a5.86,5.86,0,0,0-1.2-4,4.3,4.3,0,0,0-3.42-1.4H204v-4.54h2.35a3.84,3.84,0,0,0,3-1.2,4.9,4.9,0,0,0,1.07-3.37v-1.06a4.19,4.19,0,0,0-1.13-3.12,4.41,4.41,0,0,0-3.2-1.1,4.82,4.82,0,0,0-2.12.46,4.09,4.09,0,0,0-1.59,1.41,6.55,6.55,0,0,0-.94,2.38h-4.72a12.84,12.84,0,0,1,1.72-4.79,8.63,8.63,0,0,1,3.2-3,9.33,9.33,0,0,1,4.45-1,9,9,0,0,1,6.63,2.32,8.81,8.81,0,0,1,2.35,6.54v.56a7.47,7.47,0,0,1-1.35,4.45,7.56,7.56,0,0,1-3.8,2.77,6.75,6.75,0,0,1,4.2,2.74,9.24,9.24,0,0,1,1.49,5.44v.56a10.81,10.81,0,0,1-1.11,5.09,7.57,7.57,0,0,1-3.25,3.21,12.31,12.31,0,0,1-10,.06Z"/>
  </g>
  <path class="cls-3" d="M241.4,1591.79a99.6,99.6,0,0,0-11.24-6.16c-6.34-2.94-19.56-8.44-39.67-6.25a91.92,91.92,0,0,0-17,4.49,116.46,116.46,0,0,0-19,9.24c-9.76,6-14.23,11-21.76,20.51-12.11,15.26-11.79,43.5-11.91,43.45"/>
  <path class="cls-3" d="M260.25,1604.62c-1.46-1.19-3.09-2.49-5.38-4.21a99.09,99.09,0,0,0-13.47-8.62"/>
  <path class="cls-4" d="M318.22,1653.36a284,284,0,0,1-24.14-18.9c-9.59-8.36-28.49-25-33.83-29.84"/>
  <path class="cls-6" d="M142,1573c-7.58,9.7-13.34,18.69-16.37,25.28-1.28,2.79-6.5,12.8-7.3,24.67s1.47,25.3,2.43,34.15"/>
  <path class="cls-16" d="M180.4,1525.73A155.81,155.81,0,0,1,168,1541.67c-11.61,13-10.07,11.95-19.16,22.91-2.43,2.83-4.72,5.64-6.87,8.39"/>
  <path class="cls-10" d="M184.21,1520.25l-2.71,4.2"/>
  <path class="cls-14" d="M120.56,1656.1c.2,7.15,2.53,38.18,19.67,61.54,10.28,14,22.16,20.29,29.5,24.5a95.19,95.19,0,0,0,36,12,101,101,0,0,0,56.63-9.42c13.14-6.59,26.95-16.24,46.82-34.8,0,0,43.81-39.75,80-55.67"/>
  <path class="cls-14" d="M120.63,1656.1c.16,5.33-.47,33.65,15.21,53a85.69,85.69,0,0,0,26.63,21.84c14.59,7.57,33.21,12.3,38.17,12.83a98.36,98.36,0,0,0,51.45-8.33c12-5.43,23.71-13.2,41.82-28.5,0,0,14.65-12.16,32.36-25.84,12.22-9.43,25-21.27,39-26.54"/>
  <path class="cls-14" d="M120.56,1656.1c.14,4.24-.33,29.46,13.93,46.36,8.48,10,18.65,15.2,24.71,18.22,6.32,3.16,13.92,7,21.2,9.57a92.23,92.23,0,0,0,17.69,4.4c22.65,2.31,37.66-5.1,44.81-8.21,10.84-4.73,22.69-11.35,39.08-24.67,0,0,11.93-11.1,28-23,11.06-8.2,22.24-19,31.85-24.44"/>
  <path class="cls-14" d="M120.63,1656.1c.2,6.23-1.27,27.88,10.81,42.19,7.59,9,16,13.17,21.41,15.88,5.66,2.82,12.65,6.46,19.17,8.75a98.61,98.61,0,0,0,17.17,4.25c20.27,2.07,33.6-3.13,40-5.92,9.7-4.23,21-10.25,35.68-22.17,12.57-9.87,14.35-12.37,28.75-24.16,9.53-7.81,16.05-15,23.9-20.25"/>
  <path class="cls-14" d="M120.63,1656.1c.09,3.07-.17,24.29,11.09,38.4,6.59,8.27,12.57,13.64,17.28,16.12a145.64,145.64,0,0,0,16.5,7.5c6.15,2.29,14.56,2.56,16.38,2.75,17.61,1.91,29.19-2.88,34.74-5.43,8.43-3.89,18.25-10.35,31-21.29,10.92-9.08,12.47-10.37,25-21.21,8.28-7.18,14.26-14.12,21.07-18.94"/>
  <path class="cls-14" d="M120.63,1656.1c.22,8,3.19,41.92,21.8,67.3a105,105,0,0,0,32.3,28.79,103.81,103.81,0,0,0,39.2,13.12c29.93,3.52,53-7.66,62.43-12.39,14.32-7.18,29.39-17.79,51.05-38,0,0,47.77-43.25,87.21-60.61"/>
  <path class="cls-13" d="M135.2,1724.61a77.13,77.13,0,0,0,4.45,6.81c12,16.38,28.18,25.57,36.76,30.5,18.71,10.74,36.53,12.46,42.89,13.21,32.08,3.77,56.79-8.22,66.91-13.29,15.36-7.69,32.61-19.56,55.83-41.26,0,0,53-47.08,95.29-65.68"/>
  <path class="cls-14" d="M120.63,1656.1c.3,10.92-.85,40,14.57,66.51"/>
  <line class="cls-1" x1="183.72" y1="1520.64" x2="183.72" y2="1594.38"/>
  <path class="cls-3" d="M292,1654.7c-6.58-4.67-15-10.31-23-17.25-12.09-10.47-13.55-12.15-24.11-20.92-12.32-10.58-21.82-16.82-30-20.58-5.37-2.47-16.57-7.09-33.59-5.25a78.64,78.64,0,0,0-14.43,3.77,76.75,76.75,0,0,0-34.07,23.65c-10.25,12.84-12,36.93-12,36.93"/>
</svg>
