<svg id="AUS" xmlns="http://www.w3.org/2000/svg" width="890.18" height="2767.1" viewBox="0 0 890.18 2767.1">
  <defs>
    <style>
      .cls-1, .cls-10, .cls-12, .cls-2, .cls-3, .cls-4, .cls-6, .cls-7, .cls-9 {
        fill: none;
      }

      .cls-1, .cls-2, .cls-3 {
        stroke: #877d77;
      }

      .cls-1, .cls-10, .cls-2, .cls-3, .cls-4, .cls-6, .cls-7, .cls-9 {
        stroke-miterlimit: 10;
      }

      .cls-1, .cls-2, .cls-6, .cls-9 {
        stroke-width: 4px;
      }

      .cls-10, .cls-12, .cls-2, .cls-3, .cls-7 {
        stroke-dasharray: 7 3;
      }

      .cls-10, .cls-12, .cls-3, .cls-7 {
        stroke-width: 3px;
      }

      .cls-4 {
        stroke: #bfbfbf;
        stroke-width: 2px;
        stroke-dasharray: 3 2;
      }

      .cls-5 {
        fill: #ea877d;
      }

      .cls-12, .cls-6, .cls-7 {
        stroke: #71babf;
      }

      .cls-8 {
        fill: #ffb000;
      }

      .cls-10, .cls-9 {
        stroke: #85b645;
      }

      .cls-11 {
        fill: #dd6553;
      }

      .cls-13 {
        fill: #bf6da0;
      }

      .cls-14 {
        fill: #ffcd71;
      }
    </style>
  </defs>
  <title>VIZ2-AUSTRALIA</title>
  <path class="cls-1" d="M678.73,2673.71a102.77,102.77,0,0,0-3,21.11"/>
  <path class="cls-2" d="M849.73,2693.41a253.16,253.16,0,0,1-21.28-16.55c-12.59-10.91-14.15-13.22-25.14-22.35-12.83-11-22.72-17.5-31.2-21.41-5.59-2.58-17.25-7.39-35-5.47a80.34,80.34,0,0,0-15,3.93c-5.69,2.11-11.81,5.47-16.76,8.09-4.74,2.5-12.09,8.21-18.72,16.52-3.81,4.77-6.29,11.24-7.91,17.54"/>
  <path class="cls-1" d="M274.47,2548a110.66,110.66,0,0,0-3.4,23.92"/>
  <path class="cls-3" d="M469.86,2571.52a322.8,322.8,0,0,1-25.77-20c-14.26-12.35-16-15-28.48-25.31-14.54-12.47-25.74-19.83-35.35-24.26-6.33-2.92-19.54-8.37-39.62-6.2a93,93,0,0,0-17,4.45c-6.44,2.4-13.38,6.21-19,9.17-5.37,2.83-13.69,9.3-21.21,18.72-4.31,5.4-7.13,12.74-9,19.87"/>
  <line class="cls-4" x1="469.11" y1="2572.22" x2="0.78" y2="2572.22"/>
  <line class="cls-4" x1="336.34" y1="2436.64" x2="336.34" y2="2511.3"/>
  <path class="cls-5" d="M397.59,2571.69a61.21,61.21,0,1,1-61.21-61.09A61.14,61.14,0,0,1,397.59,2571.69Z"/>
  <path class="cls-1" d="M449.44,2572.43c-6.85-4.85-15.7-11.12-24-18.34-12.58-10.9-14.14-13.21-25.13-22.34-12.82-11-22.71-17.51-31.19-21.42-5.59-2.58-17.24-7.38-35-5.47a81.33,81.33,0,0,0-15,3.93c-5.69,2.12-11.81,5.48-16.76,8.09-4.74,2.5-12.08,8.21-18.71,16.52-10.66,13.37-12.57,38.49-12.57,38.49"/>
  <path class="cls-6" d="M269.56,2557.48c.54,4.85,1.11,10.71,1.51,14.41"/>
  <path class="cls-7" d="M272.2,2520.59a58,58,0,0,0-3.5,15.77,119.73,119.73,0,0,0,.86,21.12"/>
  <path class="cls-7" d="M335,2435.7c-4.86,6.84-8.91,13.22-16.28,21.41-11.7,13-10.15,11.95-19.29,22.92-11,12.8-19.47,23.2-23.39,31.67-.64,1.38-2.26,4.57-3.84,8.89"/>
  <g>
    <path d="M323.27,2591h-4.65v-28.87l-4.71,3v-5l4.71-3.23h4.65Z"/>
    <path d="M336,2591h-4.65v-28.87l-4.72,3v-5l4.72-3.23H336Z"/>
    <path d="M344.47,2590.27a8.4,8.4,0,0,1-3.4-3,11.11,11.11,0,0,1-1.63-4.77h4.74a5.24,5.24,0,0,0,.89,2.39,4.08,4.08,0,0,0,1.76,1.39,6.4,6.4,0,0,0,2.54.46,4.42,4.42,0,0,0,4.86-4.83v-1a5.83,5.83,0,0,0-1.21-4,4.28,4.28,0,0,0-3.42-1.39h-2.35V2571h2.35a3.85,3.85,0,0,0,3-1.19,4.93,4.93,0,0,0,1.07-3.38v-1.05a4.12,4.12,0,0,0-1.13-3.12,4.36,4.36,0,0,0-3.2-1.1,4.82,4.82,0,0,0-2.12.45,4.16,4.16,0,0,0-1.58,1.41,6.63,6.63,0,0,0-.95,2.38H340a12.45,12.45,0,0,1,1.72-4.78,8.4,8.4,0,0,1,3.2-3,9.27,9.27,0,0,1,4.44-1,9,9,0,0,1,6.63,2.32,8.77,8.77,0,0,1,2.35,6.54v.57a7.31,7.31,0,0,1-5.15,7.21,6.69,6.69,0,0,1,4.2,2.75,9.21,9.21,0,0,1,1.5,5.43v.57a10.77,10.77,0,0,1-1.12,5.08,7.41,7.41,0,0,1-3.25,3.21,12.21,12.21,0,0,1-10,.06Z"/>
  </g>
  <line class="cls-4" x1="1.15" y1="380.62" x2="698.42" y2="380.62"/>
  <line class="cls-4" x1="183.43" y1="221.25" x2="183.43" y2="320.1"/>
  <path class="cls-8" d="M244.65,381.49a61,61,0,0,1-60.82,61.09c-33.6,0-60.83-25.35-60.83-59.09s27.23-63.08,60.83-63.08A61,61,0,0,1,244.65,381.49Z"/>
  <g>
    <path d="M154.25,399H149.6V370.08l-4.71,3v-4.94l4.71-3.24h4.65Z"/>
    <path d="M170.75,382l0,.84a3.46,3.46,0,0,1-1.72,1.59,6.84,6.84,0,0,1-2.72.5,7.15,7.15,0,0,1-4.17-1.24,8.07,8.07,0,0,1-2.79-3.51,12.74,12.74,0,0,1-1-5.23v0a13.31,13.31,0,0,1,1.09-5.65,7.75,7.75,0,0,1,3.16-3.56,9.79,9.79,0,0,1,5-1.22,9.64,9.64,0,0,1,5,1.24,8,8,0,0,1,3.15,3.61,13.67,13.67,0,0,1,1.09,5.7v0a18.44,18.44,0,0,1-.46,3.9,24.26,24.26,0,0,1-1.3,4.12l-.27.62c-.09.21-.19.42-.3.62L167.43,399h-5Zm.22-2.95a6.8,6.8,0,0,0,1.2-4.29v0a6.47,6.47,0,0,0-1.2-4.17,4.66,4.66,0,0,0-6.79,0,6.52,6.52,0,0,0-1.2,4.2v0a6.75,6.75,0,0,0,1.2,4.28,4.56,4.56,0,0,0,6.79,0Z"/>
    <path d="M197.33,369.14,188.76,399h-4.94l8.56-29.53H184v4.9H179.3v-9.45h18Z"/>
    <path d="M203.36,396.75a10,10,0,0,1-2.4-7.13V374.13a10,10,0,0,1,2.41-7.14q2.41-2.53,7-2.54c3.1,0,5.45.85,7.06,2.53s2.4,4.07,2.4,7.15v15.49q0,4.61-2.42,7.14c-1.61,1.7-3.95,2.54-7,2.54S205,398.45,203.36,396.75Zm10.69-3.32a5.57,5.57,0,0,0,1.17-3.81V374.13a5.65,5.65,0,0,0-1.16-3.81,5.69,5.69,0,0,0-7.29,0,5.6,5.6,0,0,0-1.17,3.81v15.49a5.57,5.57,0,0,0,1.18,3.81,5.63,5.63,0,0,0,7.27,0Z"/>
  </g>
  <path class="cls-1" d="M255.71,349.16c-2.28-2.07-4.86-4.33-8.44-7.33-12.74-11-22.56-17.51-31-21.42-5.56-2.57-17.14-7.38-34.74-5.47a81.21,81.21,0,0,0-14.92,3.93C161,321,154.89,324.35,150,327c-4.71,2.5-12,10.21-18.6,18.53-10.59,13.36-10.88,40.15-10.83,38.65"/>
  <path class="cls-2" d="M293.38,379.72a249.13,249.13,0,0,1-21.14-16.55c-8.4-7.32-11.85-10.77-16.53-15"/>
  <path class="cls-6" d="M183.93,246c-4.83,6.84-8.86,13.22-16.18,21.42-11.62,13-10.08,11.95-19.17,22.92-11,12.79-19.34,25.2-23.23,33.66-1.28,2.79-6.5,12.8-7.3,24.67s1.47,25.31,2.42,34.15"/>
  <path class="cls-6" d="M123.86,312.47l-.24.58c-1.3,3.24-6.61,14.88-7.43,28.69-.71,11.83,3.25,29.74,4.41,42"/>
  <path class="cls-6" d="M158,260c-3.21,4.05-5.14,6.57-10.7,14.23-10.94,14.59-19.35,28.51-23.41,38.25"/>
  <path class="cls-7" d="M183.59,221.56c-4.92,7.95-8.59,15.76-16,25.29-4.73,6.05-7.44,9.43-9.58,12.14"/>
  <path class="cls-9" d="M120.6,383.74c.27,9.72,2.28,40.32,18.64,62.62,10.28,14,22.28,20.2,29.63,24.41a95.35,95.35,0,0,0,35.95,12c27.45,3.22,48.59-7,57.25-11.37,13.14-6.59,27-17.24,46.82-35.8,0,0,43.82-38.75,80-54.67"/>
  <path class="cls-9" d="M120.6,383.74c.25,8,0,33.68,15,52.07a85.78,85.78,0,0,0,26.63,21.83c14.59,7.57,33.2,12.31,38.17,12.83a98.31,98.31,0,0,0,51.45-8.33c12-5.43,23.71-14.2,41.82-29.5,0,0,14.65-12.16,32.36-25.83,12.21-9.44,25-20.27,39-25.55"/>
  <path class="cls-9" d="M120.54,384.14c.22,7,.17,29.05,13.67,45,8.48,10.06,18.65,15.2,24.7,18.22,6.33,3.16,13.93,7,21.2,9.57a92.27,92.27,0,0,0,17.7,4.4c22.65,2.31,37.66-5.1,44.81-8.21,10.84-4.72,22.68-12.35,39.08-25.67,0,0,11.93-11.1,28-23,11.06-8.2,22.24-18,31.84-23.43"/>
  <path class="cls-9" d="M120.66,384.18c.2,6.23-1.58,26.52,10.5,40.83,7.59,9,16,13.17,21.4,15.88,5.67,2.82,12.66,6.46,19.17,8.75a98.65,98.65,0,0,0,17.18,4.25c20.27,2.07,33.6-3.13,40-5.92,9.71-4.23,21-11.25,35.68-23.16,12.58-9.88,14.36-12.38,28.76-24.17,9.53-7.81,16.05-14,23.89-19.25"/>
  <path class="cls-9" d="M120.66,384.18c.18,5.73.29,23.89,10.78,37,6.59,8.27,13.88,11.94,18.59,14.43,4.92,2.59,11,5.93,16.65,8a80.36,80.36,0,0,0,14.92,3.9c17.61,1.91,29.19-2.87,34.74-5.43,8.43-3.89,18.25-10.34,31-21.29,10.92-9.08,12.47-11.37,25-22.21,8.29-7.17,14.27-13.11,21.08-17.94"/>
  <path class="cls-9" d="M120.6,383.74c.29,10.59,3.71,42.06,21.55,66.38A105.22,105.22,0,0,0,213.65,492c29.93,3.51,53-7.67,62.42-12.4,14.33-7.18,29.39-18.79,51.06-39,0,0,47.76-42.25,87.21-59.6"/>
  <path class="cls-9" d="M120.6,383.74c.31,11.35-.34,46.33,18.77,72.4,12,16.38,28.18,25.57,36.76,30.5,18.7,10.74,36.52,12.46,42.89,13.21,32.08,3.77,56.79-8.21,66.91-13.28,15.36-7.7,32.61-20.57,55.82-42.26,0,0,53.19-44.32,95.47-62.92"/>
  <path class="cls-9" d="M120.6,383.75c.34,12.18-1.16,49.58,19.35,77.56,12.89,17.57,30.63,29,39.83,34.33,20.07,11.52,39.6,12.05,46.43,12.85,34.43,4,60.94-8.81,71.8-14.25,16.48-8.27,33.43-19.65,58.35-42.93,0,0,58.48-50.09,103.85-70.05"/>
  <path class="cls-9" d="M120.66,384.18c.36,12.66-1.72,50.39,20.21,79.46,13.78,18.26,32.47,32,42.31,37.5,21.46,12,42.74,13.16,50,14,36.79,4.2,65.47-10.43,77.08-16.08,17.61-8.59,36-20.9,62.65-45.09,0,0,62.23-51.56,110.73-72.3"/>
  <path class="cls-9" d="M120.66,384.18c.39,13.46-3.36,53.8,20,84.71,14.65,19.42,34.84,34.41,45.3,40.25,22.81,12.73,46.66,13.53,54.43,14.42,39.12,4.47,69.62-11.09,82-17.1,18.73-9.13,37.68-21.85,66-47.57,0,0,67.68-55.2,119.24-77.25"/>
  <path class="cls-9" d="M120.54,384.14c.41,14.25-3,58.76,21.74,91.5,15.52,20.57,36.38,35.48,47.46,41.67,24.16,13.48,49.2,14.39,57.42,15.33,41.44,4.73,73.89-12.5,87-18.87,19.84-9.67,41.37-24.14,71.36-51.38,0,0,72.17-57.89,126.79-81.25"/>
  <path class="cls-9" d="M120.54,384.14c.43,15-4.65,62.64,21.4,97.17,16.38,21.69,40.51,37.81,52.2,44.33,25.48,14.23,51.15,14.84,59.82,15.83,43.72,5,78.08-13.76,91.87-20.48,20.93-10.2,43.69-24.36,75.33-53.1,0,0,77.23-61.78,134.84-86.42"/>
  <path class="cls-9" d="M120.54,384.14c.45,15.84-5.38,67.11,22.07,103.5,17.25,22.86,42.19,39.12,54.51,46,26.86,15,54.51,16.12,63.65,17.17,46.07,5.26,82.67-15.26,97.2-22.34,22.06-10.75,45.78-25.8,79.12-56.08,0,0,83-65.28,143.72-91.25"/>
  <path class="cls-9" d="M120.54,384.14c.47,16.58-7,71.1,21.74,109.17,18.05,23.92,45.19,41.47,58.08,48.66,28.1,15.69,57.48,16.91,67.05,18,48.19,5.51,86.31-17.34,101.51-24.75,23.08-11.24,48-27.15,82.86-58.83,0,0,88.58-67.75,152.1-94.92"/>
  <path class="cls-9" d="M120.54,384.14c.49,17.31-8.93,73.73,21.07,113.5,18.86,25,48.85,44,62.31,51.46,29.35,16.39,60.38,18.4,70.37,19.54,50.35,5.75,89.83-18.85,105.71-26.59,24.1-11.75,50.28-28.56,86.72-61.66,0,0,94.7-70.37,161.06-98.75"/>
  <path class="cls-9" d="M120.54,384.14c.52,18.09-9.62,78.27,21.74,119.83,19.7,26.11,51.31,45.48,65.38,53.34,30.68,17.12,62.42,19.39,72.86,20.58,52.61,6,94.58-20.55,111.17-28.64,25.19-12.27,52.13-28.52,90.21-63.11,0,0,101.18-75.35,170.52-105"/>
  <path class="cls-9" d="M120.54,384.14c.54,18.92-8.22,86.05,24.56,129.5,20.59,27.3,51,44.29,65.71,52.5,32.07,17.9,65.76,21.25,76.68,22.5,55,6.28,99.16-23.35,116.5-31.8,26.34-12.83,54.5-29.83,94.31-66,0,0,104.12-78.3,176.61-109.3"/>
  <path class="cls-10" d="M146.59,520c21.49,28.48,52,46.11,67.38,54.67,33.45,18.67,67.94,21,79.33,22.33,57.37,6.56,104.87-24.75,123-33.57,27.47-13.39,56.86-31.12,98.39-68.84,0,0,109.28-81.7,184.9-114"/>
  <path class="cls-9" d="M120.54,384.14c.56,19.73-8.14,91.51,26.05,136.83"/>
  <line class="cls-4" x1="-0.56" y1="2694.63" x2="848.47" y2="2694.63"/>
  <line class="cls-4" x1="737.46" y1="2560.76" x2="737.46" y2="2634.11"/>
  <path class="cls-11" d="M798.67,2695.51a61,61,0,0,1-60.82,61.08c-33.59,0-60.82-25.35-60.82-59.08s27.23-63.09,60.82-63.09A61,61,0,0,1,798.67,2695.51Z"/>
  <g>
    <path d="M730.27,2714h-4.65v-28.87l-4.71,3v-5l4.71-3.23h4.65Z"/>
    <path d="M739.84,2713.31a8.1,8.1,0,0,1-3.17-2.93,11.83,11.83,0,0,1-1.63-4.62v0h4.65v0a4.49,4.49,0,0,0,1.46,2.92,4.65,4.65,0,0,0,3.14,1,4.15,4.15,0,0,0,3.45-1.53,6.78,6.78,0,0,0,1.22-4.33V2701a6.73,6.73,0,0,0-1.22-4.3,4.15,4.15,0,0,0-3.45-1.53,4.27,4.27,0,0,0-2.32.7,6.46,6.46,0,0,0-2,2h-4.24v-18h16.89v4.54H740.42v7.67a6.5,6.5,0,0,1,1.94-1.13,6.32,6.32,0,0,1,2.18-.4,9.41,9.41,0,0,1,4.91,1.22,7.68,7.68,0,0,1,3.1,3.56,13.63,13.63,0,0,1,1.06,5.65v2.86a13.24,13.24,0,0,1-1.09,5.65,7.88,7.88,0,0,1-3.19,3.57,9.81,9.81,0,0,1-5,1.24A9.57,9.57,0,0,1,739.84,2713.31Z"/>
  </g>
  <path class="cls-6" d="M673.27,2686.74c.45,3.71.91,7.14,1.23,10.07"/>
  <path class="cls-12" d="M738,2560c-4.83,6.84-8.85,13.23-16.18,21.42-11.61,13-10.08,11.95-19.16,22.92-11,12.79-19.35,25.2-23.24,33.66-1.28,2.79-6.5,12.8-7.3,24.67-.54,7.95.3,16.59,1.2,24.09"/>
  <line class="cls-4" x1="647.56" y1="2642.31" x2="-0.56" y2="2642.31"/>
  <path class="cls-13" d="M598.24,2642.31a60.76,60.76,0,1,1-60.75-61.08A60.92,60.92,0,0,1,598.24,2642.31Z"/>
  <line class="cls-4" x1="538.92" y1="2507.73" x2="538.92" y2="2582.4"/>
  <path class="cls-1" d="M538.45,2575.48c-1.06.07-2.15.16-3.25.28a80.09,80.09,0,0,0-14.9,3.93c-5.65,2.12-11.72,5.48-16.63,8.09-4.71,2.5-12,8.21-18.58,16.52-10.58,13.37-10.82,38.66-10.82,38.66"/>
  <path class="cls-3" d="M647.56,2642.31c-1.15-1-2.33-2-3.57-3-12.49-10.9-32.23-27.48-43.14-36.61-12.73-11-22.53-17.51-31-21.42a62.07,62.07,0,0,0-31.45-5.75"/>
  <path class="cls-6" d="M471.8,2608.87c-.52,11.53,1.53,24.24,2.41,32.74"/>
  <path class="cls-7" d="M475.22,2592.68a61.13,61.13,0,0,0-3.34,15.78c0,.47-.06.94-.08,1.41"/>
  <path class="cls-7" d="M537.59,2506.79c-4.83,6.84-8.85,13.22-16.16,21.42-11.61,13-10.07,11.95-19.15,22.91-10.95,12.8-19.32,23.2-23.21,31.67-.63,1.39-2.25,4.57-3.81,8.89"/>
  <g>
    <path d="M521.05,2660.36a8.18,8.18,0,0,1-3.17-2.93,11.89,11.89,0,0,1-1.63-4.62v0h4.65v0a4.49,4.49,0,0,0,1.46,2.92,4.65,4.65,0,0,0,3.14,1,4.16,4.16,0,0,0,3.46-1.54,6.79,6.79,0,0,0,1.21-4.32v-2.86a6.77,6.77,0,0,0-1.21-4.3,4.19,4.19,0,0,0-3.46-1.54,4.29,4.29,0,0,0-2.32.71,6.46,6.46,0,0,0-2,2H517v-18h16.89v4.55H521.63v7.66a6.47,6.47,0,0,1,1.94-1.12,6.09,6.09,0,0,1,2.18-.4,9.41,9.41,0,0,1,4.91,1.22,7.68,7.68,0,0,1,3.1,3.56,13.6,13.6,0,0,1,1.06,5.65v2.86a13.27,13.27,0,0,1-1.09,5.65,7.88,7.88,0,0,1-3.19,3.57,9.8,9.8,0,0,1-5,1.23A9.56,9.56,0,0,1,521.05,2660.36Z"/>
    <path d="M543.33,2660.19a8.37,8.37,0,0,1-3.52-3.32,9.74,9.74,0,0,1-1.25-5v-.56a9.77,9.77,0,0,1,1.25-4.8,8.35,8.35,0,0,1,3.31-3.4,7.33,7.33,0,0,1-2.81-2.85,7.78,7.78,0,0,1-1.06-3.92v-.83a9.29,9.29,0,0,1,1.16-4.69,8,8,0,0,1,3.28-3.15,11.48,11.48,0,0,1,9.85,0,8,8,0,0,1,3.28,3.15,9.29,9.29,0,0,1,1.16,4.69v.83a7.76,7.76,0,0,1-1.08,4,7.35,7.35,0,0,1-2.86,2.81,8.68,8.68,0,0,1,3.36,3.41,9.61,9.61,0,0,1,1.26,4.79v.56a9.74,9.74,0,0,1-1.24,5,8.42,8.42,0,0,1-3.52,3.32,12.52,12.52,0,0,1-10.57,0Zm8.13-4.08a4.64,4.64,0,0,0,1.91-1.84,5.52,5.52,0,0,0,.67-2.73v-.33a5.57,5.57,0,0,0-.67-2.75,4.7,4.7,0,0,0-1.91-1.84,6.46,6.46,0,0,0-5.69,0,4.67,4.67,0,0,0-1.91,1.85,5.54,5.54,0,0,0-.67,2.77v.35a5.35,5.35,0,0,0,.67,2.72,4.57,4.57,0,0,0,1.91,1.81,6,6,0,0,0,2.84.65A5.94,5.94,0,0,0,551.46,2656.11Zm-.38-15.36a4.24,4.24,0,0,0,1.66-1.77,5.78,5.78,0,0,0,.59-2.65V2636a5.34,5.34,0,0,0-.59-2.53,4.24,4.24,0,0,0-1.66-1.7,5.44,5.44,0,0,0-4.93,0,4.18,4.18,0,0,0-1.66,1.7,5.29,5.29,0,0,0-.59,2.56v.35a5.52,5.52,0,0,0,.59,2.61,4.21,4.21,0,0,0,1.66,1.76,5.21,5.21,0,0,0,4.93,0Z"/>
  </g>
  <line class="cls-4" x1="0.48" y1="2516.62" x2="251.21" y2="2516.62"/>
  <line class="cls-4" x1="119.43" y1="2381.26" x2="119.43" y2="2456.1"/>
  <path class="cls-7" d="M119.93,2380c-4.83,6.84-8.86,13.22-16.18,21.42-11.62,13-10.08,12-19.17,22.92-11,12.79-19.34,25.2-23.23,33.66-1.28,2.79-6.5,12.8-7.3,24.67a109.15,109.15,0,0,0,.47,17.42"/>
  <path class="cls-10" d="M108.19,2585a64.14,64.14,0,0,0,15.5,3.5c22.25,1.25,34.82-3.75,41.21-6.54,9.71-4.23,21-11.25,35.68-23.16,12.58-9.88,14.36-12.38,28.76-24.17,9.53-7.81,16-14,23.89-19.25"/>
  <path class="cls-9" d="M56.47,2516.79c.2,6.24-1.39,27.91,10.69,42.22,7.59,9,17.61,16.3,23,19,5.66,2.83,11.49,4.71,18,7"/>
  <path class="cls-9" d="M56.47,2516.79c.18,5.73.48,25.28,11,38.43a67.54,67.54,0,0,0,19.75,16.54c4.92,2.6,8.1,4.9,13.75,7a84.91,84.91,0,0,0,16.75,3.75c17.61,1.91,29.1-3.79,34.65-6.35,8.43-3.89,18.25-10.34,31-21.29,10.92-9.08,12.47-11.37,25-22.21,8.29-7.17,14.27-13.11,21.08-17.94"/>
  <path class="cls-14" d="M60.82,2516.68a61.09,61.09,0,1,0,61.08-61.08A61.09,61.09,0,0,0,60.82,2516.68Z"/>
  <g>
    <path d="M101.75,2536.45H97.1v-28.87l-4.72,3v-4.94l4.72-3.24h4.65Z"/>
    <path d="M111.31,2535.79a8,8,0,0,1-3.16-2.93,11.68,11.68,0,0,1-1.63-4.61v0h4.65v0a4.48,4.48,0,0,0,1.45,2.92,4.69,4.69,0,0,0,3.15,1,4.13,4.13,0,0,0,3.45-1.54,6.79,6.79,0,0,0,1.22-4.32v-2.86a6.77,6.77,0,0,0-1.22-4.3,4.16,4.16,0,0,0-3.45-1.54,4.32,4.32,0,0,0-2.33.71,6.69,6.69,0,0,0-2,2h-4.23v-18h16.88v4.55H111.9v7.66a6.42,6.42,0,0,1,1.93-1.12,6.15,6.15,0,0,1,2.19-.4,9.44,9.44,0,0,1,4.91,1.22,7.74,7.74,0,0,1,3.1,3.56,13.6,13.6,0,0,1,1.06,5.65v2.86A13.43,13.43,0,0,1,124,2532a7.94,7.94,0,0,1-3.19,3.57,9.8,9.8,0,0,1-5,1.23A9.49,9.49,0,0,1,111.31,2535.79Z"/>
    <path d="M133.59,2535.63a8.42,8.42,0,0,1-3.52-3.32,9.74,9.74,0,0,1-1.24-5v-.56a9.76,9.76,0,0,1,1.24-4.8,8.43,8.43,0,0,1,3.32-3.4,7.43,7.43,0,0,1-2.82-2.85,7.89,7.89,0,0,1-1.06-3.93V2511a9.2,9.2,0,0,1,1.17-4.69,7.91,7.91,0,0,1,3.28-3.15,11.46,11.46,0,0,1,9.84,0,7.91,7.91,0,0,1,3.28,3.15,9.2,9.2,0,0,1,1.17,4.69v.82a7.78,7.78,0,0,1-1.09,4,7.28,7.28,0,0,1-2.86,2.81,8.77,8.77,0,0,1,3.37,3.41,9.61,9.61,0,0,1,1.26,4.79v.56a9.74,9.74,0,0,1-1.24,5,8.42,8.42,0,0,1-3.52,3.32,12.54,12.54,0,0,1-10.58,0Zm8.14-4.08a4.68,4.68,0,0,0,1.9-1.84,5.42,5.42,0,0,0,.67-2.73v-.33a5.47,5.47,0,0,0-.67-2.75,4.68,4.68,0,0,0-1.9-1.84,6.48,6.48,0,0,0-5.7,0,4.64,4.64,0,0,0-1.9,1.85,5.54,5.54,0,0,0-.67,2.77v.35a5.35,5.35,0,0,0,.67,2.72,4.61,4.61,0,0,0,1.9,1.81,6.05,6.05,0,0,0,2.85.65A5.94,5.94,0,0,0,141.73,2531.55Zm-.39-15.36a4.12,4.12,0,0,0,1.66-1.77,5.66,5.66,0,0,0,.6-2.65v-.33a5.23,5.23,0,0,0-.6-2.53,4.12,4.12,0,0,0-1.66-1.7,5.34,5.34,0,0,0-4.92,0,4.12,4.12,0,0,0-1.66,1.7,5.29,5.29,0,0,0-.6,2.56v.35a5.52,5.52,0,0,0,.6,2.61,4.15,4.15,0,0,0,1.66,1.76,5.19,5.19,0,0,0,4.92,0Z"/>
  </g>
  <path class="cls-2" d="M230.47,2515.38a250.6,250.6,0,0,1-21.28-16.55c-12.59-10.9-14.15-13.22-25.14-22.34-12.82-11-22.71-17.51-31.2-21.42-5.59-2.58-17.24-7.39-35-5.47a81.57,81.57,0,0,0-15,3.93A140.15,140.15,0,0,0,86.69,2461c-4.74,2.5-12.45,8.93-18.75,17.5-3.88,5.28-6.46,12.09-8.18,18.49"/>
  <g>
    <path d="M313.63,3.22h6.11l18.85,51.12h-7.74L316.69,13.1,302.52,54.34h-7.74ZM303.47,36.3h26.89v6.82H303.47Z"/>
    <path d="M353.86,52.63a14.68,14.68,0,0,1-6.13-6.5,23,23,0,0,1-2.11-10.28V3.22h7.17V36.09q0,5.59,2.81,8.65t7.95,3.06q5.16,0,8-3.06c1.88-2,2.83-4.92,2.83-8.65V3.22h7.17V35.85a23,23,0,0,1-2.11,10.28,14.66,14.66,0,0,1-6.15,6.5,22.28,22.28,0,0,1-19.43,0Z"/>
    <path d="M401.87,54.16a26.41,26.41,0,0,1-6.17-2.11,25.91,25.91,0,0,1-5.36-3.51l4.46-5.49a20.1,20.1,0,0,0,6.44,3.8,22.41,22.41,0,0,0,7.63,1.26q5.55,0,8.61-2a6.61,6.61,0,0,0,3.06-5.82v0A6.16,6.16,0,0,0,419.15,36a8.29,8.29,0,0,0-3.59-2.32,38.51,38.51,0,0,0-5.67-1.39.93.93,0,0,0-.23,0,.8.8,0,0,1-.23,0l-.53-.11a54.19,54.19,0,0,1-8.35-2,11.77,11.77,0,0,1-5.5-4.05c-1.52-1.95-2.29-4.74-2.29-8.35v0a14.79,14.79,0,0,1,2.13-8.1,13.36,13.36,0,0,1,6.21-5.12,26.8,26.8,0,0,1,15.2-1.16,26.56,26.56,0,0,1,5.24,1.78,29.44,29.44,0,0,1,5.08,3l-4.08,5.69a23.44,23.44,0,0,0-5.82-3.21,16.54,16.54,0,0,0-5.82-1.08q-5.23,0-8.13,2.09a6.87,6.87,0,0,0-2.9,5.93v0a5.63,5.63,0,0,0,1.49,4.15,9,9,0,0,0,3.73,2.23,54.19,54.19,0,0,0,6.2,1.5l.27.05.26,0,.39.07.38.07a43.32,43.32,0,0,1,7.75,2.25,12.11,12.11,0,0,1,5.21,4.21A13.32,13.32,0,0,1,427.64,40v.07a14.05,14.05,0,0,1-2.22,8A13.72,13.72,0,0,1,419,53.12a26.47,26.47,0,0,1-10.14,1.74A33.43,33.43,0,0,1,401.87,54.16Z"/>
    <path d="M430.8,3.22h36.07V10H430.8ZM445.25,7.4h7.17V54.34h-7.17Z"/>
    <path d="M472.5,3.19h7.17V54.34H472.5Zm3.13,22.71h17.43a6.72,6.72,0,0,0,3.63-1,6.53,6.53,0,0,0,2.44-2.79A9.68,9.68,0,0,0,500,18a9.68,9.68,0,0,0-.86-4.17A6.57,6.57,0,0,0,496.7,11a6.63,6.63,0,0,0-3.64-1H475.63V3.19h17.15A16.12,16.12,0,0,1,500.57,5a12.8,12.8,0,0,1,5.2,5.19A15.83,15.83,0,0,1,507.62,18a15.7,15.7,0,0,1-1.86,7.75,13,13,0,0,1-5.22,5.19,16,16,0,0,1-7.76,1.83H475.63Zm13.92,5.23,7.14-1.61,13.07,24.82h-8.5Z"/>
    <path d="M533.35,3.22h6.12l18.84,51.12h-7.73L536.41,13.1,522.24,54.34h-7.73ZM523.19,36.3h26.9v6.82h-26.9Z"/>
    <path d="M566.05,3.22h7.17V54.34h-7.17Zm3.59,44.3h29.25v6.82H569.64Z"/>
    <path d="M614.49,54.34h-7.17V3.22h7.17Z"/>
    <path d="M641.07,3.22h6.12L666,54.34H658.3L644.13,13.1,630,54.34h-7.73ZM630.91,36.3h26.9v6.82h-26.9Z"/>
  </g>
  <path class="cls-6" d="M54.52,2500.06c.59,6.25,1.45,12.11,1.95,16.73"/>
  <path class="cls-1" d="M59.76,2495a116.09,116.09,0,0,0-3.29,21.79"/>
</svg>
